<svg width="31" height="24" viewBox="0 0 31 24" fill="none" xmlns="http://www.w3.org/2000/svg">
<path d="M30.15 3.2C30.02 2.57 29.74 1.97 29.33 1.46C29.25 1.35 29.16 1.26 29.06 1.16C28.33 0.42 27.3 0 26.26 0H3.98C2.92 0 1.92001 0.41 1.17001 1.16C1.08001 1.25 0.990002 1.35 0.900002 1.46C0.490002 1.96 0.210002 2.56 0.0800018 3.2C0.0300018 3.45 0 3.71 0 3.97V19.62C0 20.16 0.110002 20.69 0.330002 21.2C0.520002 21.65 0.810004 22.07 1.16 22.43C1.25 22.52 1.34 22.6 1.43 22.68C2.14 23.27 3.04 23.59 3.96 23.59H26.24C27.17 23.59 28.07 23.27 28.78 22.67C28.87 22.59 28.96 22.51 29.05 22.43C29.39 22.09 29.67 21.69 29.86 21.26L29.89 21.2C30.11 20.71 30.21 20.18 30.21 19.63V3.98C30.21 3.72 30.19 3.46 30.14 3.21L30.15 3.2ZM2.06001 2.54C2.12001 2.46 2.19 2.37 2.28 2.28C2.73 1.83 3.34 1.58 3.97 1.58H26.25C26.89 1.58 27.5 1.83 27.94 2.28C28.02 2.36 28.09 2.45 28.16 2.53L28.33 2.76L16.44 13.12C16.07 13.44 15.6 13.62 15.11 13.62C14.62 13.62 14.15 13.44 13.78 13.12L1.9 2.76L2.06001 2.53V2.54ZM1.59 19.76C1.59 19.76 1.59 19.67 1.59 19.62V4.3L10.82 12.35L1.69 20.31L1.6 19.76H1.59ZM27.44 21.7C27.08 21.91 26.67 22.02 26.25 22.02H3.97C3.55 22.02 3.14 21.91 2.78 21.7L2.41 21.48L11.85 13.26L12.88 14.16C13.5 14.7 14.29 15 15.11 15C15.93 15 16.72 14.7 17.34 14.16L18.37 13.26L27.8 21.49L27.43 21.71L27.44 21.7ZM28.65 19.62C28.65 19.62 28.65 19.71 28.65 19.76L28.57 20.32L19.43 12.36L28.66 4.31V19.63L28.65 19.62Z" fill="#4B4B4B"/>
</svg>
