<?xml version="1.0" encoding="UTF-8"?>
<svg id="Layer_2" data-name="Layer 2" xmlns="http://www.w3.org/2000/svg" xmlns:xlink="http://www.w3.org/1999/xlink" viewBox="0 0 297.71 154.21">
  <defs>
    <style>
      .cls-1 {
        fill: url(#_名称未設定グラデーション_28-3);
      }

      .cls-2 {
        fill: url(#_名称未設定グラデーション_28-2);
      }

      .cls-3 {
        fill: #f0e6aa;
      }

      .cls-4 {
        fill: url(#_名称未設定グラデーション_28-8);
      }

      .cls-5 {
        fill: url(#_名称未設定グラデーション_28-4);
      }

      .cls-6 {
        fill: url(#_名称未設定グラデーション_28-9);
      }

      .cls-7 {
        fill: url(#_名称未設定グラデーション_28-11);
      }

      .cls-8 {
        opacity: .15;
      }

      .cls-9 {
        fill: url(#_名称未設定グラデーション_28-7);
      }

      .cls-10 {
        fill: url(#_名称未設定グラデーション_28);
      }

      .cls-11 {
        fill: url(#_名称未設定グラデーション_28-12);
      }

      .cls-12 {
        fill: url(#_名称未設定グラデーション_28-5);
      }

      .cls-13 {
        fill: url(#_名称未設定グラデーション_28-6);
      }

      .cls-14 {
        fill: url(#_名称未設定グラデーション_28-10);
      }
    </style>
    <linearGradient id="_名称未設定グラデーション_28" data-name="名称未設定グラデーション 28" x1="53.29" y1="-3.57" x2="119.76" y2="62.91" gradientUnits="userSpaceOnUse">
      <stop offset="0" stop-color="#fff" stop-opacity=".6"/>
      <stop offset=".24" stop-color="#fff" stop-opacity=".81"/>
      <stop offset=".47" stop-color="#fff"/>
      <stop offset="1" stop-color="#fff" stop-opacity=".6"/>
    </linearGradient>
    <linearGradient id="_名称未設定グラデーション_28-2" data-name="名称未設定グラデーション 28" x1="61.9" y1="10.73" x2="111.2" y2="60.03" xlink:href="#_名称未設定グラデーション_28"/>
    <linearGradient id="_名称未設定グラデーション_28-3" data-name="名称未設定グラデーション 28" x1="65.24" y1="27.28" x2="99.95" y2="61.99" xlink:href="#_名称未設定グラデーション_28"/>
    <linearGradient id="_名称未設定グラデーション_28-4" data-name="名称未設定グラデーション 28" x1="38.14" y1="91.3" x2="104.61" y2="157.78" xlink:href="#_名称未設定グラデーション_28"/>
    <linearGradient id="_名称未設定グラデーション_28-5" data-name="名称未設定グラデーション 28" x1="46.7" y1="94.18" x2="96" y2="143.48" xlink:href="#_名称未設定グラデーション_28"/>
    <linearGradient id="_名称未設定グラデーション_28-6" data-name="名称未設定グラデーション 28" x1="57.95" y1="92.22" x2="92.66" y2="126.93" xlink:href="#_名称未設定グラデーション_28"/>
    <linearGradient id="_名称未設定グラデーション_28-7" data-name="名称未設定グラデーション 28" x1="102.93" y1="57.47" x2="154.26" y2="108.79" xlink:href="#_名称未設定グラデーション_28"/>
    <linearGradient id="_名称未設定グラデーション_28-8" data-name="名称未設定グラデーション 28" x1="105.52" y1="65.79" x2="139.93" y2="100.2" xlink:href="#_名称未設定グラデーション_28"/>
    <linearGradient id="_名称未設定グラデーション_28-9" data-name="名称未設定グラデーション 28" x1="98.53" y1="64.1" x2="127.72" y2="93.29" xlink:href="#_名称未設定グラデーション_28"/>
    <linearGradient id="_名称未設定グラデーション_28-10" data-name="名称未設定グラデーション 28" x1="4.51" y1="45.64" x2="55.83" y2="96.97" xlink:href="#_名称未設定グラデーション_28"/>
    <linearGradient id="_名称未設定グラデーション_28-11" data-name="名称未設定グラデーション 28" x1="18.83" y1="54.23" x2="53.25" y2="88.65" xlink:href="#_名称未設定グラデーション_28"/>
    <linearGradient id="_名称未設定グラデーション_28-12" data-name="名称未設定グラデーション 28" x1="31.04" y1="61.14" x2="60.23" y2="90.33" xlink:href="#_名称未設定グラデーション_28"/>
  </defs>
  <g id="section">
    <g>
      <g class="cls-8">
        <polygon class="cls-10" points="55.24 5.52 102.66 5.52 102.66 74.49 108.18 74.49 108.18 0 49.72 0 49.72 44.19 55.24 44.19 55.24 5.52"/>
        <polygon class="cls-2" points="96.69 74.54 96.69 11.42 61.21 11.42 61.21 44.15 64.92 44.15 64.92 15.14 92.97 15.14 92.97 74.54 96.69 74.54"/>
        <polygon class="cls-1" points="74.26 24.04 84.41 24.04 84.41 74.65 87.3 74.65 87.3 21.15 71.37 21.15 71.37 44.21 74.26 44.21 74.26 24.04"/>
        <polygon class="cls-5" points="102.66 148.69 55.24 148.69 55.24 79.72 49.72 79.72 49.72 154.21 108.18 154.21 108.18 110.02 102.66 110.02 102.66 148.69"/>
        <polygon class="cls-12" points="61.21 79.67 61.21 142.79 96.69 142.79 96.69 110.06 92.97 110.06 92.97 139.08 64.92 139.08 64.92 79.67 61.21 79.67"/>
        <polygon class="cls-13" points="83.64 130.17 73.49 130.17 73.49 79.57 70.6 79.57 70.6 133.06 86.53 133.06 86.53 110 83.64 110 83.64 130.17"/>
        <polygon class="cls-9" points="114.57 45.82 114.57 51.34 153.24 51.34 153.24 98.77 82.27 98.77 82.27 104.29 158.76 104.29 158.76 45.82 114.57 45.82"/>
        <polygon class="cls-4" points="82.22 89.08 82.22 92.79 147.34 92.79 147.34 57.31 114.62 57.31 114.62 61.03 143.63 61.03 143.63 89.08 82.22 89.08"/>
        <polygon class="cls-6" points="134.72 80.51 82.12 80.51 82.12 83.4 137.61 83.4 137.61 67.47 114.55 67.47 114.55 70.36 134.72 70.36 134.72 80.51"/>
        <polygon class="cls-14" points="5.52 55.67 76.49 55.67 76.49 50.15 0 50.15 0 108.61 44.19 108.61 44.19 103.09 5.52 103.09 5.52 55.67"/>
        <polygon class="cls-7" points="76.54 65.36 76.54 61.64 11.42 61.64 11.42 97.12 44.15 97.12 44.15 93.41 15.14 93.41 15.14 65.36 76.54 65.36"/>
        <polygon class="cls-11" points="24.04 73.92 76.65 73.92 76.65 71.03 21.15 71.03 21.15 86.97 44.21 86.97 44.21 84.08 24.04 84.08 24.04 73.92"/>
      </g>
      <g>
        <path class="cls-3" d="M120.23,100.57l.15-.17-.02-.06.11-.03.1-.12.16-.29.19-.21.3-.19.27-.32.13-.1.19-.14.25-.15.15-.08.13-.12.3-.17.55-.39.08-.09.02-.07h.13s.36-.21.36-.21l.02-.03h.02s.11-.08.11-.08l.04-.03s.04-.03.08-.04l.04-.06.21-.12v.02s.59-.35.59-.35l.15-.11.02-.03.25-.15.21-.14v.02s.02-.03.02-.03h.04s.06-.07.06-.07l.13-.1.06-.06.13-.1.17-.09.55-.25.1-.12h.04s.04,0,.04,0l.02.06.08-.04.23-.17.09-.02v.02s.04-.08.04-.08l.3-.08s.08-.04.13-.05l.06-.08.4-.17c.06-.02.11-.05.17-.09l.06-.06.4-.24.17-.09.11-.05.09-.02.4-.15.08-.07.06-.02.53-.27.25-.13.02-.1.06-.02.02.04.13-.08.07.03.3-.1c.25-.13.51-.22.79-.36l.04-.08.43-.15.15-.04c.19-.09.4-.19.62-.27l.21-.17.07.03.02-.05.09.02c.32-.15.66-.28,1-.41l.15-.08.06-.02.1-.12.04.06c.06-.02.13-.03.19-.07l.17-.09.06-.04h.06s.02,0,.02,0c.64-.25,1.26-.47,1.87-.7l.36-.16.15-.02c.23-.08.47-.16.68-.22l.21-.12.26-.06.34-.06.32-.08.04-.03h.11s.26-.07.26-.07l.15-.06.28-.11.15-.04h.19s.06.03.06.03l.68-.1c.13,0,.26-.02.39-.05l.08-.09.09.07,1.86-.22.3-.08.22.04s.06,0,.11,0l.34-.09h.13s.19,0,.19,0h.04c.49-.07.95,0,1.4.11l.13-.03.04-.06.04.03.05.12.06.03.41-.03h.09s.04.08.04.08l.28.2c.13.04.26.07.39.08.65.11.99.77,1.37,1.36l.15-.02.04.06v.16s.07.14.07.14l.05.1.07.07v.02s.02,0,.02,0l-.02.03c.27.34.32.92.19,1.59v.32s-.05.08-.05.08l-.03.39-.08.29-.16.31-.1.37-.08.18-.1.21-.25.4-.08.18-.1.16-.41.78-.02.07.02.06-.06.04-.08.04c-.06.13-.14.24-.23.35l-.02.07-.08.16-.15.15c-.04.06-.08.13-.12.17-.6.76-1.19,1.48-1.79,2.18l-.02.07-.1.12-.06.15-.1.18-.06.06-.21.14-.06.11-.13.1-.15.11-.4.44-.14.22-.06.06-.17.22-.08.07-.06.06-.1.09-.13.1-.11.07c-.73.75-1.47,1.46-2.2,2.1l-.04.08-.06.04h-.04s-.08.1-.08.1l-.06.08-.3.21-.19.25-.25.27-.15.13-.42.17-.17.13-.06.06-.11.07c-.57.42-1.12.83-1.69,1.17l-.1.12-.17.11-.27.25-.13.05-.12.28-.1.12h-.34s-.32.12-.32.12l-.62.2c-.81.41-1.64.73-2.47,1.01-.09.02-.19.07-.32.1l-.08.04h-.06c-.38.11-.9.26-1.45.38l-.15.04-.1.12-.06.02-.13-.08-.15.02h-.02c-.73.12-1.41.18-1.91.03l-.11-.04h-.02c-.3-.12-.5-.32-.55-.63l-.05-.12.02-.14.04-.1v-.07s.02-.03.02-.03l-.02-.06.02-.07-.02-.04h.04s.02-.06.02-.06l.02-.03.06-.06.12-.17.08-.2v-.07s.04-.01.04-.01h.11c.1-.12.21-.24.31-.38l.04-.08.08-.07.09-.02v.16s-.02.03-.02.03c0,.02,0,.05-.02.07l-.12.17-.04.08-.12.19-.08.18-.08.2.02.04-.06.04-.06.2.02.11.09.14.07.28.16.3c.28.04.58.06.73.04l.11.02.26-.09.3-.03h.32s.39-.02.39-.02c.62-.11,1.24-.24,1.81-.46l.06-.04.06-.06.19-.05.17-.11.13-.08.09.02.06-.06.13-.05.24-.04c.17-.07.34-.15.53-.25l.25-.24.43-.11c.21-.1.4-.21.61-.34v-.04s.06-.04.06-.04l.15-.11.11-.07h-.04s.04-.09.04-.09l.08-.04h.02s0,.02,0,.02l-.04.06.06-.04.09-.02.08-.07.02-.03h.04s.36-.21.36-.21l.08-.07.21-.12.15-.13.4-.24.06-.06.93-.55.13-.1.13-.08.04-.06.23-.13h.04c.49-.36.99-.76,1.47-1.15l.13-.17.23-.22.17-.04.04-.1.04.03.27-.23v-.02s.17-.18.17-.18l.23-.26.17-.18.17-.11.25-.15h.02c.61-.59,1.22-1.2,1.78-1.81l.12-.19.04-.15.15-.17.06-.11.44-.36.14-.31.25-.2.33-.4.04-.06.17-.2.29-.55.19-.27.15-.2.21-.19c.1-.14.19-.3.27-.43l.04-.06.43-.77.08-.2.08-.09v-.11s.18-.27.18-.27l.06-.24.02-.21.15-.11.18-.41.33-.56.08-.18v-.07s.08-.27.08-.27l.02-.07.04-.1.06-.13.14-.51-.02-.08.1-.32c.02-.12.04-.26.03-.37v-.2c0-.14-.01-.25-.04-.38-.07-.3-.21-.58-.34-.82l-.02-.02-.15-.14-.18-.16-.29-.38-.02-.02-.22-.13h-.09s-.07-.03-.07-.03l-.13-.1-.17-.07-.09-.02-.05-.1-.06.02-.24-.1c-.17-.07-.37-.11-.56-.15h-.13s-.02-.03-.02-.03l-.19-.02c-.78-.1-1.59-.08-2.41.01v.02s-.32.06-.32.06h-.19s-.13.06-.13.06l-.19-.02-.32.04-.26.06-.49.15-.28.07-.34.13-.73.18h-.17s-.26-.03-.26-.03l-.3.03c-.68.15-1.37.34-2.05.54l-.04.03-.15.06-.19.05-.13.08-.11-.04c-.09.02-.15.06-.21.08l-.25.2-.32.08-.64.14-.51.2-.19.09-.13.05-.04.06-.08.09-.21.08-.06-.03h-.06s-.74.27-.74.27l-.06.04h-.04s-.26.08-.26.08l-.81.34-.06.02-1.42.63h-.02s-.3.15-.3.15h-.04s-.06.05-.11.06l-.08.09-.11.03-.02-.02-.91.43-.11.07-.04.06h-.06s-.38.2-.38.2l-.19.12-.21.12-.08.07-.11.05-.23.13-.02.05h-.13s-.08.08-.08.08l-.21.1-.59.33-.19.09-.17.13-.57.26-.17.11-.59.33-.32.1-.19.09-.02.05-.32.15-.21.14-.19.16-.11.09-.15.02h-.04s-.23.16-.23.16l-.11.07-.51.35-.48.39-.13.1-.15.13-.46.32-.27.23-.19.14-.17.13-.04.06-.08.09v.07s-.04.01-.04.01l-.08.2-.1.21-.06.06-.21.19-.23.1-.11-.06-.02-.02-.23.26v.02s-.02.07-.02.07h-.02s-.06.16-.06.16l-.12.28-.06.15-.02.03-.02.05-.04.03-.08.04-.13.15-.04.12h.09s.09.16.09.16v.2s.07.12.07.12l.04.03.04-.03h.13s.17,0,.17,0l.08-.04h.24s.04,0,.04,0l.07.05h.06s.04.04.04.04l.21-.08.11.02.09.07v.09s.06-.08.06-.08v-.07s-.05-.03-.05-.03h-.04s.08-.08.08-.08h.04s.15.02.15.02l.04-.03.06-.02.02-.05.02-.07.02-.05.09-.02.04.08v-.02s.02.02.02.02v-.02s.13-.05.13-.05h.11s0,.11,0,.11l.15-.02.11-.05.07.05v-.07s.04.06.04.06h.13s.06,0,.06,0l.11.06.04.06-.02.03.05.15-.04.15.13-.03.09.02.02.06-.04.15-.02-.04-.11-.06-.06-.03.04-.03h-.04s-.04.04-.04.04h-.02s-.06.11-.06.11l.04.03.02.06-.12.19-.23.08h-.21s-.28-.12-.28-.12c-.02.03-.04.03-.08.04h-.21s-.09.03-.09.03l-.11.05-.39-.06h-.02s-.02-.01-.02-.01h-.04s-.04,0-.04,0l-.02.05-.02.03-.08.09-.11.03h-.11s0-.02,0-.02l-.15-.03.02.02h-.04s-.09-.01-.09-.01l-.15-.05-.11-.09v-.02s-.04.01-.04.01v-.02s-.2-.06-.2-.06l-.11.05.02-.1c-.22-.1-.33-.26-.35-.43l-.04-.08.04-.03v-.09s-.05-.12-.05-.12l.1-.14-.02-.02.02-.05v-.09s.04-.08.04-.08v-.07s.08-.16.08-.16l-.02-.02v-.02s.02.02.02.02l.04-.06.04-.08h.02s.04-.06.04-.06l.06-.13h.02s.14-.25.14-.25v-.02s.08-.16.08-.16l.12-.21.19-.18.13-.03ZM125.15,112.56l-.37.59-.06.13-.12.21-.14.31-.12.24-.12.14-.23.28-1.24,2.13-.06.13-.08.18-.37.8-.12.21-.1.25-.39.71-.27.5-.04.08-.28.73v.05s.02.04.02.04v.05s-.02,0-.02,0l.03.24.05.31-.04.15-.12.33-.31.33-.19.07h-.21s-.05-.09-.05-.09l-.02-.11-.04.06v-.07s.04-.01.04-.01l.02-.07.04-.12v-.09s-.02-.02-.02-.04c0-.07-.02-.13,0-.2h-.02s0-.02,0-.02l.02-.03.04-.15h-.04s-.07-.11-.07-.11l.04-.15.06-.17.19-.16.02-.05.06-.08.02-.12v-.07s.16-.25.16-.25l.04-.03.1-.18-.07-.07.02-.05h.04s.06-.09.06-.09l.35-.54.02-.07.04-.06v-.07s.14-.24.14-.24l.12-.19.1-.16.06-.13.06-.15.04-.03v-.02s.06-.06.06-.06l.06-.08.02-.07.06-.11.75-1.6.02-.05.04-.17.04-.1.17-.2.04-.12.06-.08c.12-.28.27-.57.41-.83l.04-.12.06-.11.06-.15.02-.07-.03-.15.04-.06.15-.11.06-.06.12-.26.32-.83.21-.21.33-.6.02-.12.08-.43.31-.55.4-.26.09.02.02.08-.06.35.11.02v.09s-.04.08-.04.08l-.08.13-.02.07.23-.4.02-.05.08-.16.1-.21.19-.25.06-.15.1-.18.19-.27.35-.61.04-.12-.02-.04.04-.06.09-.02,1.38-2.37.04-.21.06-.11.08-.07.27-.48v-.14s.65-1.19.65-1.19h.04s.14-.25.14-.25v-.05s.06-.02.06-.02l.41-.81.08-.07.08-.11.02-.05.04-.03.08-.13.17-.22v-.05s.12-.26.12-.26l.08-.13.02-.05.27-.48v-.11s.1-.07.1-.07l.41-.72.14-.4.06-.17.17-.22v-.16s.43-.81.43-.81l.06-.22.21-.39.18-.39.53-1,.14-.6.12-.44.23-.44.14-.24s-.04-.08,0-.16l.56-.69.12-.19h.04s.04-.07.04-.07c.08-.07.15-.11.19-.03l.07.1h.04s.07.09.07.09l-.05.53-.08.18v.16s-.06.22-.06.22l-.04.06h.04s-.06.12-.06.12l-.02.12.02.04v.02s-.02-.02-.02-.02l-.1.18h-.04s-.04.04-.04.04l-.04.08-.11.07h-.04s-.06.12-.06.12l-.1.14-.04.19-.04.24-.15.15-.13.15-.58,1.01-.04.12h-.02s.02.09.02.09l-.04.06-.02.1h.04s-.02.06-.02.06v-.05s-.08.18-.08.18h-.04s-.06.09-.06.09h-.04s-.04.07-.04.07h-.02s-.18.39-.18.39v.02s-.04.17-.04.17l-.1.12-.04.06-.37.71-.02.07-.1.27-.23.31-.14.38-.08.16-.12.19-.29.39-.08.13c-.25.45-.54.91-.78,1.33l-.08.22-.17.2-1.17,1.97v.02s-.04.03-.04.03l-.04.08-.02.05-.16.29-.19.3-.02.1-.17.25-.21.37-.04.17-.04.08-.46.52-.27.43v.02s-.14.29-.14.29l-.12.24-.1.16-.1.14c-.41.74-.84,1.6-1.25,2.33v.02s-.25.47-.25.47l-.02.1-.02.12-.06.11-.23.24-.19.32Z"/>
        <path class="cls-3" d="M151.14,104.32c.23-.17.47-.37.7-.56l.02-.02.93-.79.09-.12.14-.13.04-.05.23-.23.09-.04.05-.07.38-.33.09-.02.07-.08.05-.03.07-.1.11-.1h.04s.09-.11.09-.11l.13-.11.07-.1.13-.13.2-.13.16-.14c.13-.11.25-.24.38-.37.02-.02.04-.03.05-.03l.05-.09h.05s.06,0,.06,0l.06.06-.02.08-.07.08-.07.04-.05.05-.04.05h-.04c-.34.35-.72.65-1.07.98l-.12.17-.18.12-.13.11c-.09.06-.16.14-.23.21-.13.11-.23.35-.35.46l-.43.34-.12.13-.11.09-.23.21-.04.05-.05.05-.16.14-.25.24-.09.1-.23.16-.12.13-.05.05-.36.36-.11.18-.07.06-.14.19-.02.12-.05.05-.15.02-.11.09-.33.16-.34.16h-.02s-.23.18-.23.18l-.09.02-.04.05-.41.32h-.05s-.07.07-.07.07l-.09.02-.05.07-.07.06h-.02s-.07.04-.07.04h-.06s-.05,0-.05,0l-.06-.02-.07-.02-.28-.03h-.07s-.1-.15-.1-.15c-.08-.1-.17-.25-.19-.4-.02-.21-.01-.42.08-.66h-.05s0,0,0,0h.02s.03-.07.03-.07l.02-.08.05-.17.16-.33.1-.47.1-.22.09-.08.12-.2.09-.2.12-.34h.04s.07-.09.07-.09l.02-.06.05-.13.05-.03.26-.49.05-.11.16-.29.09-.21.3-.54.03-.11.7-1.24.09-.2.11-.16v-.06s.17-.31.17-.31l.07-.11.03-.09.28-.5.09-.08.05-.13.04-.03.05-.09.02-.04.07-.13.02-.02.05-.09.03-.09.11-.14v-.02s.01-.12.01-.12l.11-.18.14-.17.09-.14.3-.54v-.02s.05-.09.05-.09l.05-.19.05-.05h.05c.05-.12.12-.24.19-.35l.07-.13.09-.2.11-.16.07-.1.07-.13.07-.08s.02-.04.04-.05v-.06s.07-.11.07-.11l.07-.1v-.08s.07-.1.07-.1v-.06s.26-.47.26-.47l.05-.07.03-.11.16-.29.04-.03.11-.18.09-.12.59-1.1.09-.1.24-.49.12-.15.14-.27.07-.1.21-.42.04-.07v-.02s.07-.08.07-.08l.02-.04.03-.11.03-.07-.07.08-.02-.03v-.02s.05-.11.05-.11l.09-.04v.08s.07-.15.07-.15l.12-.17.09-.16.02-.08.12-.2.34-.32.16-.29.13-.11.04-.05.03-.07v-.02s.02,0,.02,0h.04s.07-.03.07-.03l.07-.1.12-.13.09-.08.03-.09-.02-.03h.05s.02.02.02.02l.09-.08h.06s.02-.02.02-.02c.04-.03.04-.07.07-.06h.04s.02-.07.02-.07v-.06s.05-.01.05-.01v.02s.09-.04.09-.04h.11s.08.09.08.09l.1.17-.14.38-.23.27-.27.26-.07.13-.38.23-.09.08-.12.24-.25.29-.04.07-.28.38-.4.76-.18.2-.1.22-.23.33v.02s-.23.41-.23.41l-.12.15-.37.67-.23.31-.28.5-.35.63-.14.17-.72,1.34-.12.22-.12.26-.18.24-.19.3-.51.84-.02.12-.16.31-.05.03v.08s-.12.09-.12.09v.14s-.09.1-.09.1l-.07.08h-.02s-.33.63-.33.63l-.18.31-.03.14v.2s-.07.09-.07.09l-.14.23-.09.06-.03.18-.14.19-.18.22-.16.35-.09.08-.16.29v.04s-.14.27-.14.27l-.21.38s0,.02-.02.02l-.19.42s-.04.05-.04.07l-.09.23-.12.28-.09.12-.43,1.02v.22s-.05.11-.05.11l-.12.3-.07.09-.03.09v.27s.03.11.03.11l.07.06.04.05h.06s.17.06.17.06l.15-.04.25-.14.07-.08.16-.08.05-.05.2-.15.34-.22.05-.05.18-.1.11-.1.25-.18.16-.14.34-.28.31-.17h.02Z"/>
        <path class="cls-3" d="M162.11,101.18c.02-.08.01-.16.07-.25v-.04s.02-.06.02-.06l.09-.2.02-.08.05-.09s.03-.07.03-.09l.02-.04c.1-.26.23-.5.33-.76l.03-.11.05-.09.09-.2.02-.06.09-.2.02-.12.07-.13v-.15s-.04-.05-.04-.05l-.04-.09-.07.08h-.04s-.23.16-.23.16l-.38.23-.05.05-.13.07-.18.14-.45.36-.32.29-.11.09-1.06.92-.09.12h-.04s-.05.1-.05.1l-.52.44-.2.13-.04.05-.7.6-.04.05-.04.03-.07.11-.05.03v.02s-.16.12-.16.12l-.05.07h-.05s-.09.11-.09.11l-.04.03-.02.02-.04.03-.05.03-.07.06-.11.14-.07.04-.13.07-.11.1-.05.07-.14.11-.27.11-.13.09v.02s-.05.05-.05.05h-.02s-.02-.01-.02-.01l-.11.07h-.05s-.02.06-.02.06l-.02.02h-.02s.02-.04.02-.04l-.07.02-.51.07v-.02s-.11.03-.11.03l-.11-.03-.19-.07s-.06,0-.09,0v-.02s-.02.02-.02.02l-.06-.08c0-.1,0-.17.01-.25v-.12s.04-.36.04-.36l.03-.16.07-.11.05-.17.02-.06.09-.14.03-.09.12-.19.21-.46.05-.17.11-.18.09-.16.07-.21.1-.2.07-.11.11-.12.02-.04.04-.05.09-.16v-.04s.02,0,.02,0l.09-.18.25-.35.07-.15.04-.07.02-.04.03-.2v-.21s.03-.14.03-.14l-.04-.11v-.08s.05-.13.05-.13l.11-.12.19-.32.16-.16.13-.03.09.05v.02s0,.02.02.01c.06.06.06.16.06.26h.02s.04.33.04.33l-.05.24-.09.18-.18.26-.14.38-.12.15-.05.07-.11.14-.11.16-.07.08-.02.04-.07.11-.11.12-.02.06h-.02s-.04.03-.04.03l-.37.61-.03.09-.05.11-.07.1c-.09.16-.18.31-.24.47l-.18.31c-.03.09-.07.15-.1.22l-.07.15v.14s-.05.2-.05.2l-.09.18-.02.12-.02.02c0,.06,0,.12.02.15.09.13.56-.1,1.01-.39l.11-.12.18-.07.27-.18.14-.08.14-.11c.25-.18.49-.35.74-.55l.11-.12.13-.09.16-.12.11-.08.14-.19.45-.31s.04-.05.05-.05l.03-.07.13-.07.39-.35.02-.02.07-.11.07-.04.04-.07.09-.08.05-.07.25-.14.54-.48.16-.18.23-.19.21-.29.13-.11.16-.14.22-.15.09-.08.14-.13.43-.28.07-.06.16-.14.11-.14.02-.04.04-.03.07.02c.09-.08.2-.17.31-.23l.02-.02.16-.12h.06c.06.01.09.06.11.09l.04-.03h.11s.09.05.09.05v.08s-.03.07-.03.07h.04s0,.03,0,.03h-.04s0,.03,0,.03l-.04.05-.05.13-.14.21-.09.18v.12s-.15.27-.15.27l-.03.11-.05.11-.09.16-.04.07-.07.21-.07.19-.11.16-.02.08-.14.27-.02.08-.07.19-.02.12-.09.2-.05.07c-.08.27-.12.47-.02.53.09.07.2.1.37.08l.18-.03.15-.04h.11s.13-.04.13-.04c.2-.05.4-.14.63-.24l.02-.02.11-.03.25-.14h.09s.4-.16.4-.16l.02-.02h.02s.11-.07.11-.07l.24-.08.18-.07h.02s.04-.03.05-.04h.02s.11-.05.11-.05l.09.02.04.05-.07.08-.07.04-.05.03-.33.1-.07.08-.05.05-.04-.03-.23.12-.61.37-.16.06-.11.05-.23.14-.16.06-.13.05h-.04s-.04.04-.05.04h-.04s-.22.1-.22.1l-.27.13-.15.04c-.22.07-.4.16-.53.17l-.04.03h-.04s-.06-.02-.07-.01h-.05s-.06-.05-.06-.05l-.02-.05v-.04s-.02-.01-.02-.01v-.02s-.04-.16-.03-.26v-.14s.05-.07.05-.07Z"/>
        <path class="cls-3" d="M175.86,93.12v.04s.02.05.02.05l-.03.07-.02.08.04.07h.02s-.05.28-.05.28l-.14.13-.09.08-.17-.06-.28-.08h-.13s-.04-.07-.04-.07l-.07.02.03-.11v-.15s.03-.12.03-.12l-.02-.17v-.19s-.04-.03-.04-.03l-.02-.07-.13-.03-.09.02-.15-.02-.24.04c-.56.2-.33-.01-1,.35l-.22.17h-.07s-.54.25-.54.25l-.38.29-.31.21-.2.17-.14.09-.22.11-.31.23-.09.06-.48.37-.27.26-.02.04-.29.25-.11.12-.07.08-.11.1-.11.14-.1.2-.14.13-.09.12-.2.18c-.11.16-.16.29-.17.41-.05.21,0,.06.1.15l.06.08.13.05.09.13.06.08h.02c.11.04.22.06.31.09l.24.04v.04s.31.06.31.06h.16s.09.05.09.05h.02s.02.01.02.01l.48.07.2-.05h.15s.15.06.15.06l.02-.02.04.03.07.04.35.07.16-.02.11.03.36-.09.09.03.26-.03h.33s.09.05.09.05l.31.04.11.16.04.16-.02.04-.02.08-.07.11-.12.15-.25.18-.09.02-.11.1-.23.14h-.06s-.2.03-.2.03l-.43.23-.8.26-.24.06-.73.22-.22.05-.24.08-.31.06-.22.11-.27.13-.48.02-.29.07-.18.07-.33.14-.11.03-.25.12-.11.03-.36.19-.27.16-.15.02-.2.07-.49.24-.05.03-.2.09h-.04s-.02.01-.02.01l-.07.02-.07.06-.07.04-.04-.03v-.04s-.02,0-.02,0l.02-.02h-.02s.04-.06.04-.06l.04-.03h.02s.07-.1.07-.1l.54-.25.2-.11h.04s.25-.11.25-.11l.18-.08h.05s.5-.37.5-.37l.18-.05.14-.08.27-.03.2-.07.14-.08.38-.13.31-.12.27-.09.38-.13h.06s.22-.05.22-.05l.13-.09h.05c.09-.02.18-.06.29-.09l.16-.12.42-.14.31-.15.55-.16h.06s.11-.06.11-.06l.2-.05.16-.14.31-.14-.09-.02-.06-.04h-.2s-.24.01-.24.01l-.28-.05-.02-.05h-.07s-.18.04-.18.04l-.11-.11-.46-.08-.07-.02-.13-.03-.46-.12h-.02s-.02-.01-.02-.01c-.35-.05-.66-.07-.77-.13h-.02s0-.01,0-.01l-.11-.03h-.09s-.22-.04-.22-.04l-.05.03-.06-.1-.09.02-.19-.09-.23-.29v-.29s.03.07.03.07c.02-.08.05-.17.1-.26.03-.09.11-.16.14-.25h-.02s.23-.44.23-.44l.12-.19h.04s.07-.16.07-.16l.11-.1.09-.16.11-.1.07-.1.18-.1h.02s.05-.1.05-.1l.11-.08h.02s.36-.33.36-.33l.16-.14.16-.19.05-.05.11-.12.07-.08.03-.11.07-.06.13-.03.13-.05.36-.21.24-.1.11-.05.05-.03.31-.17.05-.05c.29-.11.32-.22.41-.28l.12-.13.07-.02.2-.03.09-.06.09-.04s.07-.02.13-.05c.16-.08.38-.19.62-.27l.11-.07.14-.09.07-.06.25-.06.13-.07.31-.02h.13s.05,0,.05,0h.02s.18,0,.18,0l.05-.03.24.02.19.09.06.06.04.07c.04.09.06.2.1.32h.04s-.02.09-.02.09l-.02.02Z"/>
        <path class="cls-3" d="M193.6,93.55l-.04-.13s-.04-.03-.04-.05c-.06-.06-.06-.18-.04-.32v-.06s.03-.2.03-.2l.1-.32.09-.21.09-.14.16-.23.17-.33.14-.23.04-.07.02-.08.16-.27.05-.13.03-.11v-.08s-.06.05-.06.05h-.04s-.14.12-.14.12l-.07.04-.43.38-.14.17-.12.17-.13.07-.13.09-.36.3-.07.13-.21.21-.11.09-.32.31-.36.38-.05.09-.07.11-.11.07-.04.03c-.07.08-.14.13-.2.2l-.09.08-.13.11-.18.2-.11.09c-.27.26-.5.44-.63.47h-.02s0,.02,0,.02l-.09.04-.07-.04-.07-.06-.11-.18c-.06-.08-.06-.25,0-.5l.04-.42.02-.12.09-.22.05-.05.15-.39.05-.09.28-.46.1-.22.04-.05.02-.06.18-.26.05-.15.07-.11.37-.75.35-.67.25-.39.33-.55-.27.07-.35.03-.07.04h-.04s-.02.01-.02.01l-.3.25-.21.25-.61.48-.16.18-.62.62-.38.29-.05.03-.12.15-.02.02-.07.06-.54.54-.23.23-.16.23-.36.44-.27.26c-.05.07-.11.12-.16.18l-.12.26-.05.07-.14.21-.14.09-.05.11h-.04s-.04.06-.04.06h-.05s-.07.13-.07.13l-.04.03-.48.58-.02.06-.09.1-.07.08-.04.03-.23.27-.11.14h-.02s-.2.25-.2.25v.06s-.03,0-.03,0l-.04.03-.18.26-.23.25-.09.14-.02.04-.18.24-.12.19-.09.2-.05.11-.09.06-.05.03-.02.02-.02.06-.02.04-.09.08-.02.04v.04s-.03.07-.03.07v.06s-.07.1-.07.1v.02s-.04-.01-.04-.01l-.05.03-.04.05h-.02s-.02.03-.02.03l-.11.1-.22.11h-.04s0-.01,0-.01l-.13.07-.09.02h-.09s-.04-.06-.04-.06l-.11.09h-.04s-.08-.11-.08-.11l-.06-.06v-.16s.06-.19.06-.19l.05-.07h-.02s.02-.1.02-.1l.09-.1.07-.11.19-.42.37-.52.02-.02.02-.08.05-.03.19-.38.12-.19.1-.2.03-.09.05-.09.12-.22v-.04s.09-.08.09-.08l.05-.11.1-.2.32-.56.11-.16.07-.15.33-.55.09-.18.32-.52.21-.38.05-.11.05-.21.03-.12.09-.1.09-.06.03-.12.04-.05v-.06s-.02-.03-.02-.03l.03-.07v-.08s.05-.11.05-.11h-.02s.02-.02.02-.02h.02s.05-.04.05-.04l.02-.06h.04s0-.03,0-.03l.11-.12.05-.03.14-.33.12-.17.07-.17h-.04s.09-.17.09-.17l.04-.07.03-.09v-.02s-.02-.01-.02-.01v-.02s.02,0,.02,0v-.18s.05-.2.05-.2l.04-.07.1-.22.18-.16.07.02v-.08s.05-.05.05-.05h.05s.03-.08.03-.08l.09-.04.2-.07.11-.03.09.02.06.04v.12s-.08.18-.08.18v.1s-.03.11-.03.11l-.14.44-.29.28-.2.2-.02.02-.19.4v.04s-.07.13-.07.13v.14s-.07.15-.07.15l-.03.09-.07.08-.02.02-.04.03-.02.04h-.04s-.02.09-.02.09l-.07.1-.11.12-.14.27-.11.18-.07.19-.05.07-.2.2-.21.34-.13.11-.19.32v.04s-.12.17-.12.17l-.16.29-.05.19-.07.13-.12.21-.02.06-.14.15-.16.25-.21.38-.19.36-.18.3-.31.58-.12.38-.03.09.02-.02.07-.02.05-.05h.05s.04-.04.04-.04l.04-.05.11-.09.02-.1.09-.14.09-.08.18-.12.16-.16.18-.22.04-.05.04-.03.11-.12.21-.29.41-.49.14-.13.37-.4.11-.16.04-.05.11-.09.25-.26.12-.22.07-.04.25-.26.16-.21.09-.08.02-.04.34-.43.13-.11.2-.24.05-.09.11-.1.16-.19.14-.13.18-.26.46-.5.14-.17.11-.16.32-.24.23-.21.07-.13h.04s.07-.07.07-.07l.07-.04.12-.15.04-.05.13-.09.16-.16.22-.15.27-.24.03-.09.27-.22.52-.25.4-.27.18-.1.11-.07.05-.05.04-.03h.04s-.04.04-.04.04l.16-.02h.07s.11.17.11.17l-.03.2-.05.09c-.1.26-.32.56-.44.79-.04.07-.07.1-.09.14l-.14.17-.1.22-.28.38-.19.3-.03.07-.14.21-.47.97-.23.46-.17.51h-.02s0,.02,0,.02l-.19.44-.07.29-.05.09-.04.05-.05.15-.02.04.02.13.04.14.02.09.04.07.02.05h.02s.27-.17.27-.17l.07-.04c.11-.1.21-.23.34-.38l.09-.12.09-.06c.14-.15.27-.32.41-.49l.21-.23.11-.12.43-.44.77-.81.07-.13.07-.08.13-.09.07-.02s.07-.08.11-.1l.05-.07.02-.04v-.02s.04-.05.04-.05l.02-.06v-.02s.09-.08.09-.08h-.02s.02-.02.02-.02h.04s.05-.02.05-.02l.04-.05h.04s.14-.1.14-.1l.13-.03.09-.06h.06s-.02.03-.02.03l.13-.05.02-.02h.09s.09.01.09.01l.06.04v.1s-.02.02-.02.02h.02s-.04.04-.04.04l-.1.35v.06s-.08.25-.08.25l-.16.27-.1.32-.05.13-.11.18-.21.34-.07.15-.1.22-.07.17-.05.21.04.2.13.08c.15.04.38.02.64-.08l.11-.05v.02s.04-.03.05-.03l.02-.02.05-.05.22-.07.18-.12.11-.08.09.02.05-.05.02-.02.11-.05.38-.31.23-.21.11-.05.11-.12h.05s.25-.23.25-.23l.11-.05.11-.09.23-.17.23-.19.5-.4.05-.05.65-.51.07-.08.23-.16.09-.08.23-.21.13-.13.07-.04.06.08-.02.08-.09.06-.04.03-.09.08-.03.07-.04.05-.11.05-.54.5-.14.15h-.05s-.22.18-.22.18l-.16.16-.09.06-.04.05-.05.03-.3.25-.11.09-.09.08-.11.1-.07.06-.07.08-.16.14-.04.03-.09.06-.07.08-.16.12-.25.16-.32.24-.14.13h-.07s-.18.12-.18.12c-.05.03-.11.08-.18.12l-.04.03-.09.04-.22.11v.02s-.04,0-.04,0l-.11.09-.11.05-.09.02c-.13.07-.23.12-.36.15l-.18.05c-.07.02-.15.02-.22.02h-.05s-.26-.06-.26-.06Z"/>
        <path class="cls-3" d="M204.83,87.99l-.07.17s0,.1-.01.16l-.1.22-.12.22-.16.16-.18.24-.07.11-.09.12-.14.15-.04.03c-.3.37-.68.73-1.05,1.08v.04s-.05.01-.05.01l-.2.18v.02s-.03.05-.03.05l-.07.02s-.02.02-.04.03v.06s-.07.02-.07.02l-.14.15h-.02s-.09.12-.09.12l-.13.07-.07.11-.12.13-.07.04-.2.07-.07.06-.11.05h-.04c-.29.2-.54.38-.79.52l-.07.08-.05.03-.07.11-.05.03h-.13s-.13.03-.13.03l-.35.07-.33.04v-.02s-.05.03-.07.04c-.11,0-.18,0-.27,0-.07-.04-.46-.14-.48-.27v-.17s-.06.03-.06.03l-.02-.11.12-.38.12-.36.07-.13.21-.29.12-.13.04-.07.3-.31.27-.36.05-.11.07-.1.39-.43.11-.12.09-.04.04-.05.14-.13.03-.07.02.03.43-.46.09-.12.05-.03.16-.16.12-.19.16-.19.25-.16.23-.27.14-.11.16-.14c.18-.16.34-.34.5-.47l-.26.03c-.13.05-.24.1-.34.13l-.05.03-.02.02h-.06s-.22.05-.22.05c-.16.06-.36.15-.56.2h-.02s-.42.13-.42.13h-.22s-.11-.05-.11-.05l-.06-.08v-.14s.15-.27.15-.27l.14-.09.18-.08.18-.06.15.02h.27c.27-.06.56-.11.87-.13l.2-.09.29-.05.34-.14h.06s.31-.11.31-.11c.05-.03.11-.09.16-.14l.16-.16.14-.11.05-.03.09-.08.14-.06.16-.06c.13-.05.25-.1.38-.12l.13-.05.06.04c.07,0,.13.03.2.06l.51-.19.02-.02.22-.11.27-.09.29-.17.11-.05.18-.07.36-.09.14-.06.22-.04h.02c.07-.02.16-.05.24-.08.09-.02.2-.07.31-.1l.07-.04.04-.03h.04s.04.02.04.02l.11-.03.11-.07.13-.03.16-.02h.04s.13-.06.13-.06l.11.03h.05s.07-.05.07-.05l.15-.02h.07c.22-.02.4-.02.51-.01l.07.04.07-.02.06.06c.11.03.2.08.31.13h.04s.06.03.06.03l.09.02.06.1.08.1v.06s-.11.12-.11.12l-.05.15-.16.35-.07.13v.02s-.04.05-.03.07l-.07.13-.11.07v-.15s.03-.07.03-.07v-.04c.02-.08.07-.19.1-.28l.03-.11.12-.38s-.02-.03-.02-.07l-.06-.08-.18-.05-.15-.08h-.27c-.4,0-.91.12-1.2.2l-.27.07-.22.07c-.2.05-.29.11-.47.18-.8.26-1.36.48-1.89.69l-.04.03-.16.08-.09.08-.29.05c-.29.11-.58.24-.91.36l-.14.09-.15.04-.33.12-.09.08c.18.01.35.05.48.07h.04s.06.04.06.04h.04s.07.05.07.05l.15.06.22.2.06.12.1.21v.35c-.03.1-.04.2-.08.31ZM204.39,87.96v-.12s.07-.19.07-.19v-.27s.01-.02.01-.02l-.1-.17-.11-.09-.13-.06-.15-.06-.13-.03-.17-.02-.15-.06h-.11s-.04-.02-.04-.02c-.23.21-.45.46-.77.77l-.16.18-.12.15-.64.57-.18.18-.13.11-.36.34-.02.02-.09.1-.27.22-.21.21-.2.18-.09.1-.25.26-.02.02-.19.3-.16.27-.09.16s-.02.02-.04.03c-.12.19-.23.39-.28.55v.04s-.02.08-.02.08l-.03.11v.11s-.01.04-.01.04l-.02.06c.02.15.06.27.15.33h.04s.11.04.11.04c.04,0,.07,0,.11,0,.6-.11.73-.2,1.32-.56.25-.14.52-.32.77-.5l.02-.04h.05s.22-.18.22-.18l.14-.19.3-.25.07-.04h.04s.55-.55.55-.55l.05-.07.04-.03c.14-.15.28-.32.43-.49l.05-.09.03-.07.11-.12.11-.16.05-.11.07-.04.03-.09.05-.07.04-.07h.04c.14-.26.26-.48.33-.69ZM205.05,85.69c-.13-.05-.36.11-.54.23l.54-.23Z"/>
        <path class="cls-3" d="M210.61,87.91l-.03.09.14-.17.25-.26.07-.08.04-.03h.04s0-.03,0-.03l.14-.09-.07-.06.11-.03.32-.41h.05s.28-.39.28-.39l.32-.29.3-.33.04-.05h.02s.34-.38.34-.38l.02-.02.5-.51v.02s.32-.31.32-.31l.09-.12.07-.04.16-.16.04-.05h.02s.36-.33.36-.33l.14-.19.11-.1.27-.18.2-.24.2-.17.38-.23.16-.12c.13-.11.34-.28.59-.46l.11-.12.32-.22.32-.2.05-.05.16-.14.2-.13.13-.09.24-.08c.31-.17.6-.3.83-.34l.11-.07.07.06c.09.02.17.06.22.1.02.01.04.03.04.07l.13.12-.02.51-.21.52-.22.13-.2.05-.11-.11v-.19s-.09.1-.09.1v-.1s.03-.03.03-.03l.02-.1-.02-.13-.04-.24-.08-.08-.27.11-.25.18-.09.04-.15.02-.2.15-.11.05-.72.34c-.34.24-.63.47-.74.55l-.11.09-.09.12-.72.59-.27.24-.11.14-.34.28-.09.08-.16.18-.27.26-.11.16-.52.5-.76.89-.1.2-.12.13-.23.33-.21.27-.07.06-.14.13-.12.17-.02.04-.14.17-.16.23-.09.12-.07.08-.18.24-.07.15-.07.08-.07.11-.18.22-.3.4-.09.18-.07.11-.09.2-.03.12-.02.04-.03.11-.11.14-.29.3-.18.18h-.16s-.09-.11-.09-.11v-.02s-.06-.1-.04-.18v-.08s.03-.05.03-.05l.05-.24-.04.05-.02-.07.05-.15.07-.25.12-.22.02-.04v-.04s.07-.08.07-.08l.05-.11v-.04s.16-.18.16-.18h.04s.05-.06.05-.06l.21-.38.12-.22.05-.03.09-.21.1-.32.12-.15.03-.12.19-.32.05-.05.23-.44v-.08s.3-.48.3-.48l.17-.37.07-.13.09-.2.02-.06.04-.05.12-.22v-.06s.1-.22.1-.22l.11-.05.06.02.11-.16.05-.15.02-.1v-.06s-.08-.02-.08-.02l.05-.07-.02.04.05-.09h-.02s-.07.1-.07.1c-.09.12-.16.04-.17-.06l.04-.05v-.04s.02-.06.02-.06l.05-.11.02-.04-.04-.05-.02.02-.09-.02v-.06s.03-.05.03-.05l.07-.04h-.04s.04-.02.04-.02h-.04s-.02-.06-.02-.06l.07-.13.09.03.05-.11v-.08s.01-.06.01-.06h-.04s.09-.05.09-.05v-.1s.03-.03.03-.03h.04s.07-.1.07-.1l.09-.02h.13s.09-.02.09-.02l.07-.06v-.04s.07-.08.07-.08h.07s.05-.01.05-.01l.04.03-.02.02-.09.06c.15.02.22.1.24.19h.02s-.02.08-.02.08c0,.23-.17.55-.36.85l.02.03-.19.32-.11.05-.16.23-.07.11-.05.15h-.02c-.09.16-.17.34-.28.48,0,.02-.02,0-.02,0l-.1.2-.03.12-.07.15-.16.33-.11.16-.03.09-.1.22-.21.42-.12.32-.1.22-.09.12-.04.05Z"/>
        <path class="cls-3" d="M220.43,85.4v.1s-.09.12-.09.12l-.05.09s-.02.02-.02.04v.06s-.07.13-.07.13v.49s-.04.3.04.38c.11.11.06.12.52.16h.31s.24-.06.24-.06l.27-.11,1.32-.64.25-.18.7-.43.14-.13.07-.06h.04s1.08-.76,1.08-.76l.07-.02.13-.11.16-.08.59-.38.07-.04c.65-.45.9-.69,1.53-1.16l.4-.25.02-.04.11-.08.32-.2.34-.24v-.04s.05-.01.05-.01l.22-.17.02-.04.97-.88.09-.04c.13-.11.25-.24.39-.39.04-.05.09-.04.11,0v-.02s.07-.08.07-.08h.07s.06.16.06.16l-.09.06-.16.1-.09.06-.41.41-.09.16-.09.02-.07.06c-.16.16-.34.3-.5.44l-.02.02-.13.11-.07.08h-.05s-.57.47-.57.47l-.02.04-.07.04-.14.11-.04.03-.25.24-.68.48c-.22.17-.43.36-.65.51l-.05.07-.9.69-.07.08-.04-.05-.2.18-.22.09-.14.11h-.02c-.23.18-.47.33-.7.49l-.27.22-.56.43-.14.08-.22.09-.31.17-.18.07-.07.06-.07.08-.23.12h-.04c-.22.14-.47.26-.72.36l-.05.07-.09.04h.02s-.36.16-.36.16h-.11s-.2.12-.2.12l-.44.03-.41-.11-.19-.22-.1-.23-.06-.26v-.33s0-.04,0-.04l-.02-.03v-.13s.11-.51.11-.51l.12-.26.14-.38.1-.22.04-.05.05-.17.11-.12.05-.15.1-.2.05-.07.2-.15.07-.11.13-.09.14-.15.04-.03.18-.22.16-.18.12-.22.07-.1.09-.14.07-.08.11-.07.04-.07.09-.12.14-.09.09-.06c.39-.41.8-.84,1.23-1.22l.04-.05.18-.18.23-.16s.04,0,.04-.03l.21-.21.13-.11.05-.03.25-.1c.2-.13.4-.25.59-.36l.16-.14.18-.05.11-.07.06.02c.15-.04.29-.07.42-.09l.02-.02.05-.03h.04s.05-.02.05-.02l.02-.02h.11s0,0,0,0h.02s-.02.04-.02.04l.06.02h.05s.02.02.02.02h.02s.11.03.11.03h.02c.09.07.17.11.19.2h.06s-.02.05-.02.05h.02s-.02.02-.02.02v.1s.02.07.02.07l-.03.14-.03.07v.12s-.06.31-.06.31l-.14.29-.18.24-.2.18-.16.16-.63.51-.09.1-.13.07c-.41.41-.86.8-1.31,1.16l-.02.04-.52.4-.23.23-.47.33-.34.22-.49.22-.29.09-.13.03-.11-.03-.04-.09.03-.07.12-.3.25-.31.23-.16.15-.04h.13s.15,0,.15,0l.24-.06.22-.09.23-.16.07-.02.04-.07.52-.32.48-.37.23-.19.09-.14.23-.16.03-.09.27-.16.07-.1.23-.25.8-.94.07-.11.03-.14.04-.07.08-.31h-.02s-.02-.05-.02-.05l-.04-.09-.09-.09-.13-.03h-.13s-.2.04-.2.04l-.13.05h-.07c-.49.24-1.01.66-1.31.89l-.22.17-.05.07-.09.1h-.07s-.02.02-.04.03v.04s-.11.07-.11.07l-.04.05h-.04s-.39.34-.39.34l-.2.22-.12.17-.18.1-.07.06c-.16.16-.3.33-.46.5l-.09.14-.23.29-.12.17-.2.24-.25.33-.25.37-.05.07-.1.2-.12.22-.18.24-.16.31Z"/>
        <path class="cls-3" d="M260.9,62l-.02.08-.07.15-.05.05-.07.06-.53.89-.07.15-.11.14-.26.41v.02s-.07.15-.07.15l-.05.05-.04.03-.33.53-.07.15-.04.05-.1.2h-.02s-.12.21-.12.21l-.12.24-.18.28v.04s-.14.27-.14.27l-.21.25-.16.35-.09.14-.14.19-.16.19-.19.26-.18.2-.16.25h.04s-.02.09-.02.09l-.03.07-.07.06-.03.11h-.04s0,.05,0,.05l-.16.21-.07.04-.35.53-.12.2-.07.19-.14.15-.11.12-.26.41-.09.12-.18.28-.05.11-.25.35-.12.2-.34.49-.11.18-.02.08-.11.2-.05.09-.23.19-.03.12-.12.13-.14.15-.07.06-.16.25-.16.23-.14.25-.21.36-.03.18-.04.05-.18.08-.22.17-.6.83h.02s0,.07,0,.07l-.04.05-.13.11-.27.34c-.09.14-.19.26-.3.4l-.05.11-.12.17-.14.15-.03.07-.04.05-.28.36v.04s-.09.1-.09.1l-.02.08-.36.44-.05.05-.05.09-.19.28-.05.03-.14.15-.89,1.19-.11.1-.35.48-.12.13-.19.26-.11.09s-.02,0-.02.02l-.28.4v.04s-.03.05-.03.05l-.07.04-.04.07-.05.07-.05.09.09-.06h.02s0,.03,0,.03l-.07.1-.09.04v-.06s-.11.14-.11.14l-.16.14-.12.19-.03.09-.12.17-.32.26s-.07.08-.11.12v.02s-.04.03-.04.03l.05-.03h.02s0,.11,0,.11l-.09.06-.11.03v-.02s-.34.39-.34.39v.17s-.12.03-.12.03l-.23.33-.02.04-.12.24-.18.16-.14.29-.19.28-.11.07-.32.22-.12.15-.2.13-.23.14-.07.08-.32.29-.27.26-.27.34-.09.12-.2.2-.09.1-.08.27-.11.07-.22.02-.24.1-.6.23-.56.18h-.02s-.05.04-.05.04h-.05s-.06-.01-.06-.01h-.04c-.47.11-.95.09-1.42.21l-.13-.03-.15.04v-.04s-.02-.03-.02-.03c-.04-.01-.07-.02-.11-.01-.06-.02-.06-.12-.15-.21h-.04s-.2-.13-.2-.13l-.11-.11-.12-.28v-.35s-.05-.14-.05-.14v-.15s0-.18,0-.18l-.08-.08v-.06s.09-.12.09-.12v-.08s.01-.14.01-.14l.02-.08.03-.14v-.12s.02-.41.02-.41l-.04-.14v-.12s.01-.1.01-.1l-.04-.18v-.08s.05-.17.05-.17l.05-.11v-.13s.03-.05.03-.05l.03-.24.02-.08.06-.38v-.02s.03-.09.03-.09l.02-.08v-.18s.03-.04.03-.04l.06-.4-.02-.03v-.02s.04-.05.04-.05v-.17s-.02.04-.02.04h-.02s-.02,0-.02,0l.02-.08.04-.05.04.03.02-.12.03-.14.03-.16-.02-.05v-.16s.17-.27.17-.27v-.02s.02-.08.02-.08l-.04-.07.03-.09.05-.11.03-.12.15-.6.02-.06.1-.41h.02s.18-.75.18-.75v-.02s.02,0,.02,0l.08-.33v-.08s.01-.06.01-.06l-.03.07h-.06s-.02-.06-.02-.06l.05-.09.11-.07v.02s.04-.09.04-.09v-.04s.02-.04.02-.04l.05-.19-.02-.07-.02-.05.05-.05.05-.09.17-.55.08-.45.07-.19.05-.17.05-.3.07-.23.05-.15.14-.27.05-.19.02-.02.05-.21.12-.3c.02-.08.05-.17.08-.27l.05-.23.05-.19v-.16s.17-.54.17-.54l.03-.18.05-.19h-.02s-.02-.01-.02-.01v-.04s.02-.02.02-.02l.05-.21-.08-.25v-.12s.06-.31.06-.31l.18-.28v-.13s-.02,0-.02,0v-.02s.04,0,.04,0l.02-.06v-.06s.02-.02.02-.02v-.02s.03-.14.03-.14l.07-.13.03-.09.04-.03v.02s.05-.09.05-.09l-.06-.24-.06-.1-.04-.05v-.13s.08-.18.08-.18l.08-.35.1-.2.13-.09.09.03.08.08s.11-.05.15.04c.02.09.04.2.03.34l.02.09.04.2v.19s-.03.05-.03.05l.04.03-.03.09v.1s.06,0,.06,0l-.02.04h-.04s-.05.16-.05.16l-.02.04-.05.03-.02.1-.05.05-.05.07c-.02.1-.05.23-.08.33l.02.09v.18s-.1.18-.1.18l-.07.13-.15.48-.02.04.02.05-.02.04v.18s-.15.27-.15.27l-.05.15v.02s-.02.08-.02.08l-.05.13.09-.04.04.07-.07.13-.02.02h-.04s0-.09,0-.09l-.03.09-.05.11v.13s-.03.05-.03.05l-.04.03-.02.06h.06s-.02.09-.02.09l-.09.12-.1.32v.04s-.08.29-.08.29l-.05.21-.19.55v.12s-.39,1.26-.39,1.26l-.03.18-.05.19.02.05-.12.32-.05.13v.08s-.17.53-.17.53l-.07.1-.02.12-.07.06v.12s-.05.15-.05.15l-.02.02-.03.14v.04s-.07.23-.07.23v.04s-.05.19-.05.19l-.02.04-.05.21v.02s-.03.12-.03.12l-.1.43h.02s.02.22.02.22l-.07.21-.03.09-.09.14c0,.06-.02.1-.03.14v.02s-.04.47-.04.47l-.07.17-.05.21v.18s-.06.32-.06.32l-.04.05-.05.34s-.02.12-.03.24l-.03.16.02.21-.03.34v.27s0,.16,0,.16l-.03.2v.19s.12.26.12.26v.15s-.01.06-.01.06v.15s.03.13.03.13v.12s.04-.05.04-.05l.04.05v.08s-.02.02-.02.02h-.02s-.02-.05-.02-.05v.06s-.01.08-.01.08v.04s.02.05.02.05v.02s-.02.04-.02.04v.35s.03.07.03.07v.15s.1.19.1.19l.17.34.06.1h.02s.13.1.13.1c.41.13.9.03,1.44-.23l.2-.13.05-.03.2-.09.07-.04c.4-.24.81-.55,1.22-.89l.18-.16.16-.14.11-.1.11-.09.61-.56.02-.02.09-.18.05-.07.16-.18.2-.09h.02s.12-.11.12-.11l.09-.1.16-.39.29-.27.14-.11.25-.12.12-.17.02-.04h.02s.27-.3.27-.3v-.1s.1-.28.1-.28l.23-.23.11-.1.25-.12.05-.03.25-.28c.16-.2.32-.39.48-.57l.09-.18.59-.67.57-.72.23-.27.35-.49.16-.19.28-.36.18-.16.43-.57.12-.21.18-.26.25-.26.19-.26.59-.75.02-.1.25-.29.07-.08v-.04s.12-.13.12-.13l.05-.11.14-.11.07-.1.07-.13.05-.19.28-.32.2-.18.32-.43v-.02s.02-.02.02-.02l.03-.09.11-.1c.23-.33.46-.64.67-.96l.14-.19.07-.15.05-.13.07-.04.02-.08.07-.1.03-.07.09-.02.04-.05s.05-.09.09-.14l.02-.04.05-.17.09-.08.03-.09.09-.14.03-.09.13-.05.04-.07v.02s.39-.62.39-.62l.09-.12.37-.58.16-.25.18-.24.12-.19.07-.15.12-.2.16-.27.14-.19.04-.03.05-.09.09-.14.07-.09.35-.55.13-.11.03-.07.04-.03.49-.74.05-.13.11-.16.05-.05.37-.58.02-.02.03-.12.05-.03v.02s.12-.19.12-.19l.05-.13.14-.23.07-.08.39-.6.02-.04.11-.14.07-.17.05-.11.07-.06.02-.06.07-.11.02-.04.05-.03.09-.2.14-.23.11-.1.04-.03.11-.18h-.02s.09-.17.09-.17l.02-.06.04-.03.26-.39.02-.06.05-.11.05-.05.02-.02.02-.04.07-.11.02-.04h.05s.02-.06.02-.06l.09-.12.02-.04.16-.31.14-.21.12-.17.05-.15.11-.16v-.08s.17-.26.17-.26l.07-.08.02-.06.26-.45.07-.06.03-.09.11-.16v-.02s.07-.11.07-.11l.11-.18v-.02s.02,0,.02,0l.05-.09.02-.02.02-.08.11-.16.07-.08.28-.46h.02s.16-.3.16-.3l.03-.16.05-.03h.05s.07.05.07.05v.06s-.03.09-.03.09l-.09.1-.03.11h-.04s0,.05,0,.05l-.16.27-.05.03-.18.31-.07.13-.12.21-.02.02-.14.25-.05.19-.14.17-.09.14-.25.43-.02.04-.07.11-.07.15-.05.11-.05.07-.05.05-.16.25-.16.29-.1.22-.23.37v-.02s-.04.05-.04.07v.04s-.05.09-.05.09l-.07.08-.05.11h-.02s0,.02,0,.02l-.04.05-.07.11Z"/>
        <path class="cls-3" d="M261.96,75.02l.02-.04.04-.07.32-.51.07-.17.05-.07.02-.04.05-.05.21-.3.07-.11v-.04s.02.01.02.01l.05-.21h-.02s-.09-.01-.09-.01l-.16.04-.22.11-.52.34-.13.07-.09.04-.52.48h-.02s-.14.14-.14.14l-.13.09-.13.11-.41.32-.41.36-.16.12-.27.22-.09.06-.21.19-.11.07-.32.29-.11.1-.11.12-.16.1-.16.12-.43.36-.04.05-.18.16h-.04s0,.03,0,.03l-.16.04-.22.15-.15.04c-.05.05-.13.09-.18.12l-.07.08-.36.23-.07.04-.27.18-.04.03-.05.03h-.05s-.11.02-.11.02h-.02c-.29.12-.53.12-.61-.08-.08-.23-.01-.54.11-.88l.07-.25.05-.03.02-.08.07-.13.03-.09.04-.03v.02s.03-.1.03-.1l.12-.22.2-.2.04-.05.14-.29.07-.11.14-.15.21-.25.8-.97v-.02s.02,0,.02,0l.23-.27.05-.07.3-.35.14-.13.46-.48.02-.02.21-.3.09-.12.07-.15.04-.03h.13s.05-.07.05-.07l.13-.07.07-.04.09-.04.07-.08v-.04s.14-.09.14-.09l.57-.45.11-.12.07-.06.14-.08h.04s.04-.02.04-.02l.16-.1h.05s.09-.09.09-.09l.13-.05.11-.07.13-.07.07-.04h.18s.11-.04.11-.04l.11-.03h.07s.04,0,.04,0v.02s.07-.02.07-.02l.06.02.02.03h.07s.04.09.04.09v.17s-.05.05-.05.05c-.02.06-.07.11-.19.28-.05.05-.11.05-.13.03l-.2.11-.13.05-.33.08-.29.03v.02s-.07.02-.07.02v-.02s-.04,0-.04,0l-.13.05-.13.03-.25.18-.29.21-.41.3-.29.21c-.11.09-.2.18-.3.29t-.02,0l-.16.18-.02.02-.04.03-.8.84-.07.1-.16.23-.12.17-.13.11-.16.14-.05.07-.16.23-.04.05-.03.07-.21.34-.05.05-.04.05-.05.05-.03.09-.05.09h-.04s-.03.11-.03.11l-.07.11-.03.09-.09.12-.09.14-.18.28v.04s.02.11.02.11l-.02.04v.04s-.03.05-.03.05l-.07.08-.05.09-.09.14-.07.13v.04s-.02.04-.02.04v.12s.04.05.04.05l.06.08.06.02.38-.25.16-.08.25-.16h.02s.09-.05.09-.05c.23-.16.47-.33.7-.5l.09-.08.13-.11.09-.1.15-.04c.2-.15.41-.3.61-.46l.09-.1.13-.09v-.02s.04-.03.04-.03l.05-.07.07-.04.27-.2.14-.11.13-.11.48-.39.12-.13.5-.38.11-.07.32-.26.16-.18.32-.26.09-.1.14-.13.09-.1.21-.21.23-.21.56-.28.22-.05h.16s.13.04.13.04l.07.04c.07,0,.11.03.15.1v.02s.04.01.04.01v.08s-.01.06-.01.06h.04s-.02.03-.02.03h-.02s-.04.03-.04.03l-.04.07-.03.09-.11.12s-.05.09-.09.14l-.12.24-.11.12-.05.03-.21.32-.04.05v.02s-.04.03-.04.03l-.11.18-.03.07-.03.09-.14.25s-.05.11-.07.15l-.05.17-.02.02c-.03.09-.05.17-.03.2,0,.06-.02.02.06.02.02,0,.04.01.06,0l.09-.04.13-.03.04-.03.13-.03.09-.04h.04c.13-.04.23-.11.4-.19l.14-.07.13-.09.11-.03.63-.35.05-.05.2-.11v.02s.23-.14.23-.14l.14-.11.07-.04.07-.08.6-.32v-.04s.05.02.05.02l.16-.1.05-.07.87-.49.09-.02.45-.27s.04,0,.06,0h.04s.02.12.02.12l-.07.08-.15.04-.31.15-.22.17-.07.02-.29.15-.14.09-.41.32-.31.21-.34.2-.4.25-.07.06-.18.12-.09.08-.14.09h-.02s-.13.09-.13.09l-.14.13-.05.03-.04.05-.47.29v.04s-.02-.01-.02-.01l-.14.09-.02.04-.31.19-.27.16-.09.1-.02.02-.02-.03-.05.03-.04.05h-.04s-.02.01-.02.01l-.13.07-.2.05h-.04s-.13.02-.13.02l-.09-.02-.07-.02-.06-.06.02-.1-.02-.07c-.02-.07-.02-.13.01-.25l.05-.15.02-.08.12-.21.05-.11.14-.23.05-.09Z"/>
        <path class="cls-3" d="M270.4,74.35c.23-.17.47-.37.7-.56l.02-.02.93-.79.09-.12.14-.13.04-.05.23-.23.09-.04.05-.07.38-.33.09-.02.07-.08.05-.03.07-.1.11-.1h.04s.09-.11.09-.11l.13-.11.07-.1.13-.13.2-.13.16-.14c.13-.11.25-.24.38-.37.02-.02.04-.03.05-.03l.05-.09h.05s.06,0,.06,0l.06.06-.02.08-.07.08-.07.04-.05.05-.04.05h-.04c-.34.35-.72.65-1.07.98l-.12.17-.18.12-.13.11c-.09.06-.16.14-.23.21-.13.11-.23.35-.35.46l-.43.34-.12.13-.11.09-.23.21-.04.05-.05.05-.16.14-.25.24-.09.1-.23.16-.12.13-.05.05-.36.36-.11.18-.07.06-.14.19-.02.12-.05.05-.15.02-.11.09-.33.16-.34.16h-.02s-.23.18-.23.18l-.09.02-.04.05-.41.32h-.05s-.07.07-.07.07l-.09.02-.05.07-.07.06h-.02s-.07.04-.07.04h-.06s-.05,0-.05,0l-.06-.02-.07-.02-.28-.03h-.07s-.1-.15-.1-.15c-.08-.1-.17-.25-.19-.4-.02-.21-.01-.42.08-.66h-.05s0,0,0,0h.02s.03-.07.03-.07l.02-.08.05-.17.16-.33.1-.47.1-.22.09-.08.12-.2.09-.2.12-.34h.04s.07-.09.07-.09l.02-.06.05-.13.05-.03.26-.49.05-.11.16-.29.09-.21.3-.54.03-.11.7-1.24.09-.2.11-.16v-.06s.17-.31.17-.31l.07-.11.03-.09.28-.5.09-.08.05-.13.04-.03.05-.09.02-.04.07-.13.02-.02.05-.09.03-.09.11-.14v-.02s.01-.12.01-.12l.11-.18.14-.17.09-.14.3-.54v-.02s.05-.09.05-.09l.05-.19.05-.05h.05c.05-.12.12-.24.19-.35l.07-.13.09-.2.11-.16.07-.1.07-.13.07-.08s.02-.04.04-.05v-.06s.07-.11.07-.11l.07-.1v-.08s.07-.1.07-.1v-.06s.26-.47.26-.47l.05-.07.03-.11.16-.29.04-.03.11-.18.09-.12.59-1.1.09-.1.24-.49.12-.15.14-.27.07-.1.21-.42.04-.07v-.02s.07-.08.07-.08l.02-.04.03-.11.03-.07-.07.08-.02-.03v-.02s.05-.11.05-.11l.09-.04v.08s.07-.15.07-.15l.12-.17.09-.16.02-.08.12-.21.34-.32.16-.29.13-.11.04-.05.04-.07v-.02s.02,0,.02,0h.04s.07-.03.07-.03l.07-.1.12-.13.09-.08.03-.09-.02-.03h.05s.02.02.02.02l.09-.08h.06s.02-.02.02-.02c.04-.03.03-.07.07-.06h.04s.02-.07.02-.07v-.06s.05-.01.05-.01v.02s.09-.04.09-.04h.11s.08.09.08.09l.1.17-.14.38-.23.27-.27.26-.07.13-.38.23-.09.08-.12.24-.25.29-.04.07-.28.38-.4.76-.18.2-.1.22-.23.33v.02s-.23.41-.23.41l-.12.15-.37.67-.23.31-.28.5-.35.63-.14.17-.72,1.34-.12.22-.12.26-.18.24-.19.3-.51.84-.02.12-.16.31-.05.03v.08s-.12.09-.12.09v.14s-.09.1-.09.1l-.07.08h-.02s-.33.63-.33.63l-.18.31-.03.14v.2s-.07.09-.07.09l-.14.23-.09.06-.03.18-.14.19-.18.22-.16.35-.09.08-.16.29v.04s-.14.27-.14.27l-.21.38s0,.02-.02.02l-.19.42s-.04.05-.04.07l-.09.23-.12.28-.09.12-.43,1.02v.22s-.05.11-.05.11l-.12.3-.07.09-.03.09v.27s.03.11.03.11l.07.06.04.05h.06s.17.06.17.06l.15-.04.25-.14.07-.08.16-.08.05-.05.2-.15.34-.22.05-.05.18-.1.11-.1.25-.18.16-.14.34-.28.31-.17h.02Z"/>
        <path class="cls-3" d="M281.37,71.2c.02-.08.01-.16.07-.25v-.04s.02-.06.02-.06l.09-.2.02-.08.05-.09s.03-.07.03-.09l.02-.04c.1-.26.23-.5.33-.76l.03-.11.05-.09.09-.2.02-.06.09-.2.02-.12.07-.13v-.15s-.04-.05-.04-.05l-.04-.09-.07.08h-.04s-.23.16-.23.16l-.38.23-.05.05-.13.07-.18.14-.45.36-.32.29-.11.09-1.06.92-.09.12h-.04s-.05.1-.05.1l-.52.44-.2.13-.04.05-.7.6-.04.05-.04.03-.07.11-.05.03v.02s-.16.12-.16.12l-.05.07h-.05s-.09.11-.09.11l-.04.03-.02.02-.04.03-.05.03-.07.06-.11.14-.07.04-.13.07-.11.1-.05.07-.14.11-.27.11-.13.09v.02s-.05.05-.05.05h-.02s-.02,0-.02,0l-.11.07h-.05s-.02.06-.02.06l-.02.02h-.02s.02-.04.02-.04l-.07.02-.51.07v-.02s-.11.03-.11.03l-.11-.03-.18-.07s-.06,0-.09,0v-.02s-.02.02-.02.02l-.06-.08c0-.1,0-.17.01-.25v-.12s.04-.36.04-.36l.03-.16.07-.11.05-.17.02-.06.09-.14.03-.09.12-.19.21-.46.05-.17.11-.18.09-.16.07-.21.1-.2.07-.11.11-.12.02-.04.04-.05.09-.16v-.04s.02,0,.02,0l.09-.18.25-.35.07-.15.04-.07.02-.04.03-.2v-.21s.03-.14.03-.14l-.04-.11v-.08s.05-.13.05-.13l.11-.12.19-.32.16-.16.13-.03.09.05v.02s0,.02.02.01c.06.06.06.16.06.26h.02s.04.33.04.33l-.05.24-.09.18-.18.26-.14.38-.12.15-.05.07-.11.14-.11.16-.07.08-.02.04-.07.11-.11.12-.02.06h-.02s-.04.03-.04.03l-.37.61-.03.09-.05.11-.07.1c-.09.16-.18.31-.24.47l-.18.31c-.03.09-.07.15-.1.22l-.07.15v.14s-.05.2-.05.2l-.09.18-.02.12-.02.02c0,.06,0,.12.02.15.09.13.56-.1,1.02-.39l.11-.12.18-.06.27-.18.14-.08.14-.11c.25-.18.49-.35.74-.55l.11-.12.13-.09.16-.12.11-.08.14-.19.45-.31s.04-.05.05-.05l.03-.07.13-.07.39-.35.02-.02.07-.11.07-.04.04-.07.09-.08.05-.07.25-.14.54-.48.16-.18.23-.19.21-.29.13-.11.16-.14.22-.15.09-.08.14-.13.43-.28.07-.06.16-.14.11-.14.02-.04.04-.03.07.02c.09-.08.2-.17.31-.23l.02-.02.16-.12h.06c.06.01.09.06.11.09l.04-.03h.11s.09.05.09.05v.08s-.03.07-.03.07h.04s0,.03,0,.03h-.04s0,.03,0,.03l-.04.05-.05.13-.14.21-.09.18v.12s-.15.27-.15.27l-.03.11-.05.11-.09.16-.04.07-.07.21-.07.19-.11.16-.02.08-.14.27-.02.08-.07.19-.02.12-.09.2-.05.07c-.08.27-.12.47-.02.53.09.07.2.1.37.08l.18-.03.15-.04h.11s.13-.04.13-.04c.2-.05.4-.14.63-.24l.02-.02.11-.03.25-.14h.09s.4-.16.4-.16l.02-.02h.02s.11-.07.11-.07l.24-.08.18-.07h.02s.04-.03.05-.04h.02s.11-.05.11-.05l.09.02.04.05-.07.08-.07.04-.05.03-.33.1-.07.08-.05.05-.04-.03-.23.12-.61.37-.16.06-.11.05-.23.14-.16.06-.13.05h-.04s-.04.04-.05.04h-.04s-.22.1-.22.1l-.27.13-.15.04c-.22.07-.4.16-.53.17l-.04.03h-.04s-.06-.02-.07-.01h-.05s-.06-.05-.06-.05l-.02-.05v-.04s-.02-.01-.02-.01v-.02s-.04-.16-.03-.26v-.14s.05-.07.05-.07Z"/>
        <path class="cls-3" d="M287.16,68.63v.1s-.09.12-.09.12l-.05.09s-.02.02-.02.04v.06s-.07.13-.07.13v.49s-.04.3.04.38c.11.11.06.12.52.16h.31s.24-.06.24-.06l.27-.11,1.32-.64.25-.18.7-.43.14-.13.07-.06h.04s1.08-.76,1.08-.76l.07-.02.13-.11.16-.08.59-.38.07-.04c.65-.45.9-.69,1.53-1.16l.4-.25.02-.04.11-.09.32-.2.34-.24v-.04s.05-.01.05-.01l.22-.17.02-.04.97-.88.09-.04c.13-.11.25-.24.39-.39.04-.05.09-.04.11,0v-.02s.07-.08.07-.08h.07s.06.16.06.16l-.09.06-.16.1-.09.06-.41.41-.09.16-.09.02-.07.06c-.16.16-.34.3-.5.44l-.02.02-.13.11-.07.08h-.05s-.57.47-.57.47l-.02.04-.07.04-.14.11-.04.03-.25.24-.68.48c-.22.17-.43.36-.65.51l-.05.07-.9.69-.07.08-.04-.05-.2.18-.22.09-.14.11h-.02c-.23.18-.47.33-.7.49l-.27.22-.56.43-.14.08-.22.09-.31.17-.18.07-.07.06-.07.08-.23.12h-.04c-.22.14-.47.26-.72.36l-.05.07-.09.04h.02s-.36.16-.36.16h-.11s-.2.12-.2.12l-.44.03-.41-.11-.19-.22-.1-.23-.06-.26v-.33s0-.04,0-.04l-.02-.03v-.13s.11-.51.11-.51l.12-.26.14-.38.1-.22.04-.05.05-.17.11-.12.05-.15.1-.2.05-.07.2-.15.07-.11.13-.09.14-.15.04-.03.18-.22.16-.18.12-.22.07-.1.09-.14.07-.08.11-.07.03-.07.09-.12.14-.09.09-.06c.39-.41.8-.84,1.23-1.22l.04-.05.18-.18.23-.16s.04,0,.04-.03l.21-.21.13-.11.05-.03.25-.1c.2-.13.4-.25.6-.36l.16-.14.18-.05.11-.07.06.02c.15-.04.29-.07.42-.09l.02-.02.05-.03h.04s.05-.02.05-.02l.02-.02h.11s0,0,0,0h.02s-.02.04-.02.04l.06.02h.05s.02.02.02.02h.02s.11.03.11.03h.02c.09.07.17.11.19.2h.06s-.02.05-.02.05h.02s-.02.02-.02.02v.1s.02.07.02.07l-.03.14-.03.07v.12s-.06.31-.06.31l-.14.29-.18.24-.2.18-.16.16-.63.51-.09.1-.13.07c-.41.41-.86.8-1.31,1.16l-.02.04-.52.4-.23.23-.47.33-.34.22-.49.22-.29.09-.13.03-.11-.03-.04-.09.03-.07.12-.3.25-.31.23-.16.15-.04h.13s.15,0,.15,0l.24-.06.22-.09.23-.16.07-.02.04-.07.52-.32.49-.37.23-.19.09-.14.23-.16.03-.09.27-.16.07-.1.23-.25.8-.94.07-.11.03-.14.03-.07.08-.31h-.02s-.02-.05-.02-.05l-.04-.09-.09-.09-.13-.03h-.13s-.2.04-.2.04l-.13.05h-.07c-.49.24-1.01.66-1.31.89l-.22.17-.05.07-.09.1h-.07s-.02.02-.04.03v.04s-.11.07-.11.07l-.04.05h-.04s-.39.34-.39.34l-.2.22-.12.17-.18.1-.07.06c-.16.16-.3.33-.46.5l-.09.14-.23.29-.12.17-.19.24-.25.33-.25.37-.05.07-.1.2-.12.22-.18.24-.16.31Z"/>
      </g>
    </g>
  </g>
</svg>