<?xml version="1.0" encoding="UTF-8"?>
<svg id="Layer_2" data-name="Layer 2" xmlns="http://www.w3.org/2000/svg" xmlns:xlink="http://www.w3.org/1999/xlink" viewBox="0 0 380.96 248.92">
  <defs>
    <style>
      .cls-1 {
        fill: url(#_名称未設定グラデーション_28-3);
      }

      .cls-2 {
        fill: #fff;
      }

      .cls-3 {
        fill: url(#_名称未設定グラデーション_28-2);
      }

      .cls-4 {
        fill: #f0e6aa;
      }

      .cls-5 {
        fill: url(#_名称未設定グラデーション_28-8);
      }

      .cls-6 {
        fill: url(#_名称未設定グラデーション_28-4);
      }

      .cls-7 {
        fill: url(#_名称未設定グラデーション_28-9);
      }

      .cls-8 {
        fill: url(#_名称未設定グラデーション_28-11);
      }

      .cls-9 {
        opacity: .15;
      }

      .cls-10 {
        fill: url(#_名称未設定グラデーション_28-7);
      }

      .cls-11 {
        fill: url(#_名称未設定グラデーション_28);
      }

      .cls-12 {
        fill: url(#_名称未設定グラデーション_28-5);
      }

      .cls-13 {
        fill: url(#_名称未設定グラデーション_28-6);
      }

      .cls-14 {
        fill: url(#_名称未設定グラデーション_28-10);
      }
    </style>
    <linearGradient id="_名称未設定グラデーション_28" data-name="名称未設定グラデーション 28" x1="133.93" y1="-5.42" x2="234.99" y2="95.64" gradientUnits="userSpaceOnUse">
      <stop offset="0" stop-color="#fff" stop-opacity=".6"/>
      <stop offset=".24" stop-color="#fff" stop-opacity=".81"/>
      <stop offset=".47" stop-color="#fff"/>
      <stop offset="1" stop-color="#fff" stop-opacity=".6"/>
    </linearGradient>
    <linearGradient id="_名称未設定グラデーション_28-2" data-name="名称未設定グラデーション 28" x1="147.02" y1="16.32" x2="221.97" y2="91.27" xlink:href="#_名称未設定グラデーション_28"/>
    <linearGradient id="_名称未設定グラデーション_28-3" data-name="名称未設定グラデーション 28" x1="152.09" y1="41.48" x2="204.87" y2="94.25" xlink:href="#_名称未設定グラデーション_28"/>
    <linearGradient id="_名称未設定グラデーション_28-4" data-name="名称未設定グラデーション 28" x1="110.89" y1="138.81" x2="211.96" y2="239.87" xlink:href="#_名称未設定グラデーション_28"/>
    <linearGradient id="_名称未設定グラデーション_28-5" data-name="名称未設定グラデーション 28" x1="123.91" y1="143.18" x2="198.87" y2="218.13" xlink:href="#_名称未設定グラデーション_28"/>
    <linearGradient id="_名称未設定グラデーション_28-6" data-name="名称未設定グラデーション 28" x1="141.02" y1="140.2" x2="193.79" y2="192.97" xlink:href="#_名称未設定グラデーション_28"/>
    <linearGradient id="_名称未設定グラデーション_28-7" data-name="名称未設定グラデーション 28" x1="213.36" y1="100.03" x2="265.67" y2="152.33" xlink:href="#_名称未設定グラデーション_28"/>
    <linearGradient id="_名称未設定グラデーション_28-8" data-name="名称未設定グラデーション 28" x1="202.74" y1="97.46" x2="247.1" y2="141.82" xlink:href="#_名称未設定グラデーション_28"/>
    <linearGradient id="_名称未設定グラデーション_28-9" data-name="名称未設定グラデーション 28" x1="59.76" y1="69.4" x2="137.79" y2="147.43" xlink:href="#_名称未設定グラデーション_28"/>
    <linearGradient id="_名称未設定グラデーション_28-10" data-name="名称未設定グラデーション 28" x1="81.53" y1="82.46" x2="133.84" y2="134.76" xlink:href="#_名称未設定グラデーション_28"/>
    <linearGradient id="_名称未設定グラデーション_28-11" data-name="名称未設定グラデーション 28" x1="100.1" y1="92.97" x2="144.46" y2="137.33" xlink:href="#_名称未設定グラデーション_28"/>
  </defs>
  <g id="main">
    <g>
      <g class="cls-9">
        <polygon class="cls-11" points="136.9 8.39 208.99 8.39 208.99 113.25 217.38 113.25 217.38 0 128.5 0 128.5 67.19 136.9 67.19 136.9 8.39"/>
        <polygon class="cls-3" points="199.91 113.33 199.91 17.36 145.97 17.36 145.97 67.12 151.62 67.12 151.62 23.01 194.26 23.01 194.26 113.33 199.91 113.33"/>
        <polygon class="cls-1" points="165.81 36.55 181.24 36.55 181.24 113.48 185.63 113.48 185.63 32.16 161.41 32.16 161.41 67.22 165.81 67.22 165.81 36.55"/>
        <polygon class="cls-6" points="208.99 226.05 136.9 226.05 136.9 121.2 128.5 121.2 128.5 234.45 217.38 234.45 217.38 167.26 208.99 167.26 208.99 226.05"/>
        <polygon class="cls-12" points="145.97 121.12 145.97 217.08 199.91 217.08 199.91 167.33 194.26 167.33 194.26 211.44 151.62 211.44 151.62 121.12 145.97 121.12"/>
        <polygon class="cls-13" points="180.08 197.89 164.64 197.89 164.64 120.96 160.25 120.96 160.25 202.29 184.47 202.29 184.47 167.23 180.08 167.23 180.08 197.89"/>
        <polygon class="cls-2" points="227.1 69.67 227.1 78.06 285.89 78.06 285.89 150.15 178.03 150.15 178.03 158.55 294.29 158.55 294.29 69.67 227.1 69.67"/>
        <polygon class="cls-10" points="177.96 135.43 177.96 141.08 276.92 141.08 276.92 87.14 227.17 87.14 227.17 92.78 271.27 92.78 271.27 135.43 177.96 135.43"/>
        <polygon class="cls-5" points="257.73 122.4 177.8 122.4 177.8 126.8 262.12 126.8 262.12 102.58 227.07 102.58 227.07 106.97 257.73 106.97 257.73 122.4"/>
        <polygon class="cls-7" points="61.31 84.64 169.17 84.64 169.17 76.24 52.92 76.24 52.92 165.12 120.1 165.12 120.1 156.73 61.31 156.73 61.31 84.64"/>
        <polygon class="cls-14" points="169.24 99.36 169.24 93.72 70.28 93.72 70.28 147.65 120.03 147.65 120.03 142.01 75.93 142.01 75.93 99.36 169.24 99.36"/>
        <polygon class="cls-8" points="89.47 112.39 169.4 112.39 169.4 107.99 85.08 107.99 85.08 132.21 120.13 132.21 120.13 127.82 89.47 127.82 89.47 112.39"/>
      </g>
      <g>
        <path class="cls-4" d="M2.38,203.78l.31-.37-.05-.13.23-.06.22-.25.35-.62.4-.44.63-.4.58-.68.27-.21.4-.3.54-.33.32-.18.27-.26.63-.35,1.17-.83.18-.19.04-.16.28.03.77-.48.04-.06h.05s.23-.16.23-.16l.09-.07s.09-.07.18-.09l.09-.12.45-.26v.05s1.27-.75,1.27-.75l.31-.22.04-.06.54-.33.45-.31v.05s.05-.06.05-.06l.09-.02.13-.13.27-.21.13-.13.27-.21.36-.19,1.18-.54.22-.25.09-.02.09.02.05.13.18-.09.49-.37.18-.05v.05s.09-.17.09-.17l.64-.16c.09-.02.18-.09.27-.12l.13-.18.86-.36c.14-.03.23-.11.36-.19l.13-.13.86-.51.36-.19.23-.11.18-.05.86-.31.18-.14.14-.03,1.13-.58.54-.28.04-.2.14-.03.05.09.27-.17.14.06.64-.21c.54-.28,1.09-.47,1.68-.76l.09-.17.91-.33.32-.08c.41-.2.86-.41,1.31-.57l.45-.36.14.06.04-.11.18.05c.68-.32,1.41-.6,2.13-.87l.32-.18.14-.03.22-.25.09.12c.14-.03.27-.07.41-.15l.36-.19.13-.08h.14s.05,0,.05,0c1.36-.54,2.68-1.01,3.99-1.49l.77-.34.32-.03c.5-.17,1-.35,1.45-.46l.45-.26.55-.14.73-.13.68-.17.09-.07h.23s.55-.15.55-.15l.32-.13.59-.24.32-.08h.41s.14.05.14.05l1.46-.22c.27-.02.55-.04.82-.11l.18-.19.19.15,3.97-.47.64-.16.46.08s.14.01.23,0l.73-.18.27-.02.41.04.09-.02c1.05-.12,2.02.03,2.98.27l.27-.07.09-.12.09.07.1.27.14.06.87-.07h.18s.1.17.1.17l.61.43c.28.08.55.15.83.18,1.38.23,2.1,1.65,2.91,2.9l.32-.03.09.12v.34s.15.3.15.3l.1.22.14.16v.05s.05-.01.05-.01l-.04.06c.57.73.69,1.96.41,3.38l.02.67-.13.18-.07.84-.17.62-.35.67-.21.78-.17.38-.22.44-.53.86-.17.38-.22.35-.87,1.67-.04.16.05.13-.14.08-.18.09c-.13.28-.31.51-.49.75l-.04.16-.17.33-.31.32c-.09.12-.18.29-.27.36-1.29,1.63-2.53,3.15-3.82,4.64l-.04.16-.22.25-.13.32-.22.39-.13.13-.45.31-.13.23-.27.21-.31.22-.85.94-.31.46-.13.13-.35.48-.18.14-.13.13-.22.2-.27.21-.23.15c-1.56,1.6-3.13,3.11-4.7,4.47l-.09.17-.13.08-.09.02-.18.19-.13.18-.63.45-.4.54-.54.57-.31.27-.91.37-.36.28-.13.13-.23.15c-1.21.89-2.38,1.76-3.6,2.5l-.22.25-.36.24-.58.53-.27.12-.26.6-.22.25h-.73s-.68.26-.68.26l-1.32.43c-1.72.87-3.49,1.55-5.26,2.14-.18.05-.41.15-.68.22l-.18.09h-.14c-.82.24-1.91.56-3.09.81l-.32.08-.22.25-.14.03-.28-.17-.32.03h-.05c-1.55.26-3.01.38-4.08.07l-.23-.09h-.05c-.65-.26-1.07-.69-1.18-1.34l-.1-.27.04-.3.09-.22v-.14s.04-.06.04-.06l-.05-.13.04-.16-.05-.09.09.03.04-.16.04-.06.13-.13.27-.36.17-.43v-.14s.09-.02.09-.02h.23c.22-.26.45-.51.67-.81l.09-.17.18-.14.18-.05v.34s-.04.06-.04.06c0,.05,0,.1-.04.16l-.27.36-.09.17-.26.41-.17.38-.17.43.05.08-.14.08-.13.42.05.23.19.29.15.59.34.64c.6.09,1.24.12,1.56.09l.23.04.54-.19.64-.06.69-.03h.82c1.32-.25,2.64-.53,3.87-.99l.13-.08.13-.13.41-.1.36-.24.27-.16.18.05.13-.13.27-.12.5-.08c.36-.14.72-.33,1.13-.53l.54-.52.91-.23c.45-.21.86-.46,1.31-.72v-.1s.13-.08.13-.08l.32-.22.22-.15-.09-.03.09-.17.18-.09h.05s0,.04,0,.04l-.09.12.14-.08.18-.05.18-.14.04-.06.09.02.77-.48.18-.14.45-.26.31-.27.86-.51.13-.13,1.99-1.18.27-.21.27-.17.09-.12.5-.27.09-.02c1.04-.74,2.11-1.6,3.15-2.44l.27-.36.49-.46.36-.09.09-.22.09.07.58-.49v-.05s.36-.38.36-.38l.49-.56.36-.38.36-.24.54-.33h.05c1.3-1.26,2.59-2.55,3.8-3.87l.26-.41.08-.31.31-.37.13-.23.94-.77.3-.66.54-.43.71-.86.09-.12.36-.43.61-1.17.4-.58.31-.42.45-.4c.22-.3.4-.63.57-.92l.09-.12.92-1.63.17-.43.18-.19v-.24s.39-.58.39-.58l.12-.52.03-.44.31-.22.39-.87.7-1.19.17-.38v-.14s.17-.57.17-.57l.04-.16.09-.21.13-.28.29-1.09-.05-.18.21-.68c.04-.25.08-.55.07-.79v-.43c-.02-.29-.02-.53-.08-.81-.15-.64-.44-1.24-.73-1.75l-.05-.04-.33-.3-.38-.34-.62-.81-.05-.04-.46-.27h-.18s-.14-.06-.14-.06l-.28-.22-.37-.15-.18-.05-.1-.22-.14.03-.51-.21c-.37-.15-.78-.24-1.2-.33l-.28-.03-.05-.04-.41-.04c-1.65-.21-3.39-.16-5.13.03v.05s-.68.12-.68.12h-.41s-.27.12-.27.12l-.41-.04-.69.08-.55.14-1.05.31-.59.15-.73.28-1.55.39h-.37s-.55-.06-.55-.06l-.64.06c-1.46.32-2.91.73-4.37,1.15l-.09.07-.32.13-.41.1-.27.17-.23-.09c-.18.05-.32.13-.45.16l-.54.43-.68.17-1.37.3-1.09.42-.41.2-.27.12-.09.12-.18.19-.45.16-.14-.06h-.14s-1.59.58-1.59.58l-.14.08-.09-.03-.55.19-1.72.72-.14.03-3.04,1.34h-.05s-.63.32-.63.32l-.09.02c-.04.06-.14.08-.23.11l-.18.19-.23.06-.05-.04-1.95.93-.23.15-.09.12h-.14s-.81.43-.81.43l-.41.25-.45.26-.18.14-.23.11-.5.27-.04.11-.27.02-.18.14-.45.21-1.27.71-.41.2-.36.28-1.22.55-.36.24-1.27.7-.68.22-.41.2-.04.11-.68.32-.45.31-.4.34-.22.2-.32.03-.09.02-.5.32-.22.15-1.08.76-1.03.84-.27.21-.31.27-.99.68-.58.49-.41.3-.36.28-.09.12-.18.19v.14s-.09.02-.09.02l-.17.43-.22.44-.13.13-.45.4-.5.22-.23-.14-.05-.04-.49.56v.05s-.04.16-.04.16h-.05s-.13.33-.13.33l-.26.6-.13.32-.04.06-.04.11-.09.07-.18.09-.27.31-.08.26h.18s.19.34.19.34v.43s.15.25.15.25l.09.07.09-.07.28.03.37-.04.18-.09.5-.03.09.03.14.11h.14s.09.09.09.09l.45-.16.23.04.19.15v.19s.14-.18.14-.18v-.14s-.1-.07-.1-.07l-.09-.03.18-.14.09-.02.32.06.09-.07.14-.03.04-.11.04-.16.04-.11.18-.05.1.17v-.05s.05.04.05.04v-.05s.27-.12.27-.12h.23s0,.23,0,.23l.32-.03.23-.11.14.11v-.14s.09.12.09.12l.28.03.14-.03.23.13.09.12-.04.06.1.31-.08.31.27-.07.18.05.05.13-.08.31-.05-.08-.23-.14-.14-.06.09-.07-.09-.02-.09.12h-.05s-.13.24-.13.24l.09.07.05.13-.26.41-.5.17-.46.02-.6-.28c-.04.06-.09.07-.18.09l-.46.02-.18.05-.23.11-.83-.13h-.05s-.05-.03-.05-.03l-.09.02-.09-.03-.04.11-.04.06-.18.19-.23.06h-.23s0-.04,0-.04l-.32-.06.05.04-.09.02-.18-.05-.32-.11-.23-.18v-.05s-.09.02-.09.02v-.05s-.42-.14-.42-.14l-.23.11.04-.2c-.46-.22-.7-.55-.76-.92l-.1-.17.09-.07v-.19s-.1-.27-.1-.27l.22-.3-.05-.04.04-.11v-.19s.08-.17.08-.17v-.14s.17-.33.17-.33l-.05-.04v-.05s.05.04.05.04l.09-.12.09-.17h.05s.09-.13.09-.13l.13-.27h.05s.31-.52.31-.52v-.05s.17-.33.17-.33l.26-.45.4-.39.27-.07ZM12.87,229.36l-.79,1.26-.13.28-.26.45-.3.66-.26.5-.27.31-.49.61-2.63,4.53-.13.27-.17.38-.78,1.7-.26.45-.22.54-.83,1.52-.57,1.06-.09.17-.6,1.55v.1s.05.09.05.09v.1s-.04.01-.04.01l.06.52.11.65-.08.31-.26.69-.67.7-.41.15-.46-.03-.1-.17-.05-.23-.09.12v-.14s.09-.02.09-.02l.04-.16.08-.26v-.19s-.05-.04-.05-.08c0-.14-.05-.28-.01-.43h-.05s0-.04,0-.04l.04-.06.08-.31-.09-.03-.14-.21.08-.31.13-.37.4-.34.04-.11.13-.18.04-.25v-.14s.35-.52.35-.52l.09-.07.22-.39-.14-.16.04-.11.09-.02.13-.18.75-1.16.04-.16.09-.12v-.14s.3-.51.3-.51l.26-.41.22-.35.13-.27.13-.32.09-.07v-.05s.13-.13.13-.13l.13-.18.04-.16.13-.23,1.61-3.41.04-.11.08-.36.09-.22.36-.43.08-.26.13-.18c.26-.6.57-1.21.87-1.77l.09-.26.13-.23.13-.32.04-.16-.05-.33.09-.12.32-.22.13-.13.26-.55.69-1.77.45-.45.7-1.29.04-.25.16-.91.66-1.18.86-.55.18.05.05.18-.12.76.23.04v.19s-.08.17-.08.17l-.18.29-.04.16.48-.85.04-.11.17-.33.22-.44.4-.54.13-.32.22-.39.4-.58.75-1.3.09-.26-.05-.08.09-.12.18-.05,2.94-5.05.08-.46.13-.23.18-.14.57-1.01v-.29s1.4-2.53,1.4-2.53l.09-.02.31-.51v-.1s.13-.03.13-.03l.87-1.72.18-.14.18-.24.04-.11.09-.07.18-.29.35-.48v-.1s.26-.55.26-.55l.18-.29.04-.11.57-1.02v-.24s.22-.15.22-.15l.88-1.53.3-.85.13-.37.35-.48v-.34s.91-1.73.91-1.73l.13-.47.44-.84.39-.82,1.14-2.13.29-1.28.25-.93.48-.94.31-.51c-.05-.09-.1-.17,0-.34l1.2-1.46.26-.41.09-.02.09-.12c.18-.14.31-.22.41-.06l.14.21.09-.02.14.21-.11,1.14-.17.38v.34s-.12.47-.12.47l-.09.12.09.03-.13.23-.04.25.05.08v.05s-.05-.04-.05-.04l-.22.39-.09.02-.09.07-.09.17-.23.15-.09.02-.13.23-.22.3-.08.41-.08.5-.31.32-.27.31-1.23,2.15-.09.26h-.05s.05.19.05.19l-.09.12-.04.2.09.03-.04.11v-.1s-.18.38-.18.38l-.09.02-.13.18-.09.02-.09.12h-.05s-.39.84-.39.84v.05s-.08.36-.08.36l-.22.25-.09.12-.79,1.51-.04.16-.21.59-.49.66-.3.8-.17.33-.26.41-.62.83-.18.29c-.53.95-1.14,1.93-1.67,2.84l-.17.48-.36.43-2.51,4.21v.05s-.09.07-.09.07l-.09.17-.04.11-.35.62-.4.63-.04.2-.35.52-.44.79-.08.36-.09.17-.98,1.12-.57.92v.05s-.3.61-.3.61l-.26.5-.22.35-.22.3c-.88,1.58-1.79,3.4-2.67,4.98v.05s-.52,1-.52,1l-.04.2-.04.25-.13.23-.49.51-.4.68Z"/>
        <path class="cls-4" d="M68.3,211.79c.5-.37,1-.79,1.49-1.2l.04-.05,1.99-1.7.19-.25.31-.28.08-.1.5-.5.19-.09.11-.15.8-.7.19-.05.15-.16.12-.07.15-.2.23-.22.08.02.19-.25.27-.23.15-.2.27-.27.42-.27.34-.29c.27-.23.53-.51.8-.78.04-.05.08-.06.12-.07l.11-.19.12-.03h.12s.12.15.12.15l-.03.17-.15.16-.15.08-.11.11-.08.1-.08.02c-.72.72-1.53,1.37-2.29,2.06l-.26.36-.38.26-.27.23c-.19.13-.34.29-.5.46-.27.23-.49.74-.76.97l-.92.73-.27.27-.23.18-.5.45-.08.1-.11.11-.34.29-.53.51-.19.21-.5.33-.27.27-.11.11-.76.77-.22.39-.15.12-.3.41-.03.26-.11.11-.31.04-.23.18-.69.34-.73.35-.04-.03-.5.41-.19.05-.08.1-.88.68-.12.03-.15.12-.19.05-.11.15-.15.12h-.04s-.15.09-.15.09h-.12s-.12.02-.12.02l-.12-.05-.16-.04-.59-.06h-.16s-.2-.32-.2-.32c-.16-.21-.36-.53-.41-.85-.05-.44-.02-.9.16-1.4l-.12.03v-.04s.04-.01.04-.01l.07-.14.03-.17.11-.36.33-.7.21-1,.22-.47.19-.17.26-.44.19-.42.25-.72.08-.02.15-.16.04-.13.11-.28.12-.07.56-1.05.11-.23.34-.62.18-.46.63-1.15.07-.22,1.49-2.64.19-.42.23-.35v-.12s.37-.67.37-.67l.15-.24.07-.18.6-1.06.19-.17.11-.28.08-.06.11-.19.04-.09.15-.29.04-.05.11-.19.07-.18.23-.3v-.04s.03-.26.03-.26l.22-.39.3-.36.19-.29.64-1.15v-.04s.11-.19.11-.19l.11-.4.11-.11.12-.03c.11-.23.26-.48.41-.72l.15-.29.19-.42.23-.35.15-.2.15-.29.15-.16c.04-.05.04-.09.08-.1v-.12s.15-.24.15-.24l.15-.2v-.16s.15-.2.15-.2v-.12s.56-1.01.56-1.01l.11-.15.07-.22.34-.62.08-.06.22-.39.19-.25,1.27-2.34.19-.21.52-1.04.27-.31.3-.57.15-.2.45-.9.07-.14v-.04s.15-.16.15-.16l.04-.09.07-.22.07-.14-.15.16-.04-.07v-.04s.11-.23.11-.23l.19-.09v.16s.15-.33.15-.33l.26-.35.19-.34.03-.17.26-.44.72-.68.34-.62.27-.23.08-.1.07-.14v-.04s.04,0,.04,0l.08.02.15-.08.15-.2.27-.27.19-.17.07-.18-.04-.07.12-.03.04.07.19-.17h.12s.04-.04.04-.04c.08-.06.07-.14.15-.12l.08-.02.04-.13v-.12s.11-.03.11-.03v.04s.19-.09.19-.09l.23-.02.16.21.2.36-.29.82-.49.58-.57.56-.15.28-.81.49-.19.17-.26.52-.53.63-.07.14-.6.81-.86,1.62-.38.43-.22.47-.49.7v.04s-.48.86-.48.86l-.27.31-.78,1.43-.49.66-.6,1.06-.75,1.34-.3.36-1.53,2.86-.26.48-.26.56-.38.51-.41.64-1.09,1.8-.03.26-.33.66-.12.07v.16s-.26.19-.26.19l-.03.3-.15.2-.15.16h-.04s-.71,1.34-.71,1.34l-.37.67-.07.31-.03.42-.11.19-.3.49-.19.13-.07.39-.3.41-.38.47-.33.74-.19.17-.34.62v.08s-.3.57-.3.57l-.45.81s0,.04-.04.05l-.41.89c-.04.05-.08.1-.07.14l-.18.5-.26.6-.19.25-.92,2.17-.03.46-.07.22-.26.64-.15.2-.07.18-.02.58.08.23.16.13.08.1h.12s.35.13.35.13l.31-.08.54-.3.15-.16.35-.17.11-.11.42-.31.73-.47.11-.11.38-.22.23-.22.54-.38.34-.29.73-.6.65-.37h.04Z"/>
        <path class="cls-4" d="M91.72,205.08c.03-.17.03-.34.14-.53v-.08s.03-.13.03-.13l.18-.42.03-.17.11-.19s.07-.14.07-.18l.04-.09c.22-.55.48-1.07.7-1.62l.07-.22.11-.19.18-.42.04-.13.18-.42.03-.26.15-.29v-.33s-.09-.1-.09-.1l-.08-.19-.15.16-.08.02-.5.33-.81.49-.11.11-.27.15-.38.3-.96.78-.69.63-.23.18-2.25,1.97-.19.25-.08.02-.11.19-1.11.94-.42.27-.08.1-1.49,1.28-.08.1-.08.06-.15.24-.12.07v.04s-.34.25-.34.25l-.11.15-.12.03-.19.21-.08.06-.04.05-.08.06-.12.07-.15.12-.23.3-.15.08-.27.15-.23.22-.11.15-.31.24-.58.23-.27.19v.04s-.11.11-.11.11l-.04-.03h-.04s-.23.15-.23.15l-.12.03-.04.09-.04.05-.04-.03.04-.05-.16.04-1.09.15v-.04s-.23.06-.23.06l-.24-.06-.39-.15c-.08.02-.12-.01-.19,0v-.04s-.04.05-.04.05l-.12-.18c0-.2,0-.37.03-.54v-.25s.09-.77.09-.77l.07-.35.15-.24.11-.36.04-.13.19-.29.07-.18.26-.4.44-.98.11-.36.23-.39.19-.34.14-.45.22-.43.15-.24.23-.26.04-.09.08-.1.19-.34v-.08s.04,0,.04,0l.19-.38.53-.75.15-.33.07-.14.04-.09.07-.43v-.45s.06-.31.06-.31l-.08-.23v-.16s.11-.28.11-.28l.23-.26.41-.68.34-.33.27-.07.2.12v.04s0,.04.04.03c.12.13.13.34.13.54l.04.03.1.68-.1.52-.19.38-.38.55-.29.82-.27.31-.11.15-.23.3-.23.35-.15.16-.04.09-.15.24-.23.26-.04.13h-.04s-.08.07-.08.07l-.79,1.31-.07.18-.11.23-.15.2c-.19.34-.37.67-.52,1l-.37.67c-.07.18-.15.33-.22.47l-.15.33-.03.3-.07.43-.19.38-.03.26-.04.05c0,.12,0,.25.05.32.2.28,1.2-.22,2.16-.83l.23-.26.39-.14.58-.39.31-.16.31-.24c.54-.38,1.03-.75,1.57-1.18l.23-.26.27-.19.34-.25.23-.18.3-.41.96-.65c.04-.05.08-.1.11-.11l.07-.14.27-.15.84-.75.04-.05.15-.24.15-.08.07-.14.19-.17.11-.15.54-.3,1.15-1.03.34-.38.5-.41.45-.61.27-.23.34-.29.46-.32.19-.17.3-.28.92-.6.15-.12.34-.29.23-.3.04-.09.08-.06.16.04c.19-.17.42-.35.65-.49l.04-.05.35-.25h.12c.12.02.2.13.24.2l.08-.06.24.02.2.07v.16s-.07.14-.07.14l.08-.02v.08s-.08-.02-.08-.02v.08s-.07.1-.07.1l-.11.28-.3.45-.19.38v.25s-.33.58-.33.58l-.07.22-.11.23-.19.34-.07.14-.15.45-.15.41-.23.35-.03.17-.3.57-.03.17-.15.41-.03.26-.18.42-.11.15c-.18.58-.25,1.01-.05,1.13.2.16.43.22.79.17l.39-.06.31-.08.23-.02.27-.07c.43-.11.85-.3,1.35-.5l.04-.05.23-.06.54-.3h.2s.85-.35.85-.35l.04-.05h.04s.23-.15.23-.15l.5-.17.39-.14h.04c.04-.06.08-.07.12-.08h.04s.23-.11.23-.11l.2.03.08.1-.15.16-.15.08-.12.07-.7.22-.15.16-.11.11-.08-.06-.5.25-1.31.78-.35.13-.23.1-.5.29-.35.13-.27.11-.08.02c-.04.05-.08.06-.12.07l-.08.02-.46.2-.58.27-.31.08c-.46.16-.85.34-1.12.36l-.08.06-.08-.02c-.08.02-.12-.01-.16,0l-.12.03-.12-.14-.04-.11v-.08s-.04-.03-.04-.03v-.04c-.08-.1-.09-.35-.05-.56l.03-.3.07-.14Z"/>
        <path class="cls-4" d="M121.04,187.9v.08s.04.11.04.11l-.07.14-.03.17.08.14h.04s-.1.59-.1.59l-.3.28-.19.17-.35-.12-.59-.18h-.27s-.08-.16-.08-.16l-.16.04.07-.22v-.33s.06-.27.06-.27l-.05-.36v-.41s-.09-.06-.09-.06l-.04-.15-.27-.05-.19.05-.31-.05-.51.09c-1.2.43-.7-.03-2.13.74l-.46.36h-.16s-1.16.54-1.16.54l-.8.61-.65.45-.42.35-.31.2-.46.24-.65.49-.19.13-1.03.8-.57.56-.04.09-.61.53-.23.26-.15.16-.23.22-.23.3-.22.43-.3.28-.19.25-.42.39c-.23.35-.34.62-.37.88-.11.44,0,.12.2.32l.12.18.28.1.2.28.12.18h.04c.24.1.47.12.67.19l.51.08v.08s.67.12.67.12h.35s.2.11.2.11h.04s.04.02.04.02l1.02.16.43-.11h.31s.32.13.32.13l.04-.05.08.06.16.08.75.14.35-.05.24.06.78-.2.2.07.55-.05h.7s.2.1.2.1l.67.08.24.35.09.35-.04.09-.03.17-.15.24-.26.31-.54.38-.19.05-.23.22-.5.29h-.12s-.43.05-.43.05l-.92.48-1.7.55-.5.13-1.55.47-.47.12-.5.17-.66.12-.46.24-.58.27-1.01.05-.62.16-.39.14-.7.3-.23.06-.54.26-.23.06-.77.4-.58.35-.31.04-.43.15-1.04.51-.12.07-.42.19-.08-.02-.04.05-.16.04-.15.12-.15.08-.08-.06v-.08s-.04,0-.04,0l.04-.05-.04-.03.08-.1.08-.06h.04s.15-.21.15-.21l1.16-.54.42-.23.08.02.54-.26.39-.18.12-.03,1.07-.77.39-.1.31-.16.58-.06.43-.15.31-.16.81-.29.66-.25.58-.19.81-.29h.12s.47-.11.47-.11l.27-.19h.12c.19-.04.39-.13.62-.19l.35-.25.89-.31.66-.33,1.16-.33h.12s.23-.13.23-.13l.43-.11.34-.29.66-.29-.2-.03-.12-.09-.43.03h-.51s-.59-.1-.59-.1l-.04-.11h-.16s-.39.1-.39.1l-.24-.23-.98-.17-.16-.04-.27-.06-.98-.25h-.04s-.04-.02-.04-.02c-.74-.1-1.41-.14-1.65-.29h-.04s0-.03,0-.03l-.24-.06h-.19s-.47-.08-.47-.08l-.12.07-.12-.22-.19.05-.4-.19-.48-.62.02-.62.04.15c.04-.17.11-.36.22-.55.07-.18.23-.35.3-.53l-.04-.03.48-.91.26-.4.08-.02.15-.33.23-.22.19-.34.23-.22.15-.2.38-.22h.04s.11-.2.11-.2l.23-.18h.04s.76-.7.76-.7l.34-.29.34-.42.11-.11.23-.26.15-.16.07-.22.15-.12.27-.07.27-.11.77-.44.5-.21.23-.1.12-.07.65-.37.11-.11c.62-.24.69-.46.88-.59l.27-.27.16-.04.43-.07.19-.13.19-.09c.08-.02.16-.04.27-.11.35-.17.81-.41,1.31-.58l.23-.14.31-.2.15-.12.54-.14.27-.15.66-.04h.27s.12-.02.12-.02l.04.03.39-.02.12-.07.51.04.4.19.12.13.08.14c.08.19.13.42.21.69l.08-.02-.03.21-.04.05Z"/>
        <path class="cls-4" d="M158.89,188.82l-.08-.27s-.08-.06-.08-.1c-.12-.14-.13-.38-.09-.68v-.12s.06-.43.06-.43l.22-.67.18-.46.19-.3.34-.5.37-.71.3-.49.07-.14.03-.17.34-.58.11-.28.07-.22v-.16s-.12.11-.12.11l-.08.02-.31.24-.15.08-.92.81-.3.37-.26.36-.27.15-.27.19-.76.65-.15.29-.46.45-.23.18-.69.67-.76.81-.11.19-.15.24-.23.14-.08.06c-.15.16-.31.28-.42.44l-.19.17-.27.23-.38.43-.23.18c-.57.56-1.07.93-1.34,1h-.04s0,.05,0,.05l-.19.09-.16-.08-.16-.13-.24-.39c-.12-.18-.13-.54.01-1.07l.09-.89.03-.26.18-.46.11-.11.33-.83.11-.19.6-.98.22-.47.08-.1.04-.13.38-.55.11-.32.15-.24.78-1.6.75-1.43.53-.83.71-1.17-.58.15-.74.06-.15.08-.08-.02s-.04.05-.04.05l-.65.53-.45.53-1.3,1.03-.34.37-1.33,1.33-.8.61-.12.07-.27.31-.04.05-.15.12-1.14,1.15-.5.5-.34.5-.76.93-.57.56c-.11.15-.23.26-.34.37l-.26.56-.11.15-.3.45-.31.2-.11.23-.08.02-.08.1-.12.03-.15.24-.08.06-1.02,1.25-.04.13-.19.21-.15.16-.08.06-.49.58-.23.3h-.04s-.42.53-.42.53v.12s-.07.02-.07.02l-.08.06-.38.55-.49.54-.19.29-.04.09-.38.51-.26.4-.19.42-.11.23-.19.13-.12.07-.04.05-.04.13-.04.09-.19.17-.04.09v.08s-.07.14-.07.14v.12s-.15.2-.15.2v.04s-.08-.02-.08-.02l-.12.07-.08.1h-.04s-.04.06-.04.06l-.23.22-.46.24-.08.02v-.04s-.27.15-.27.15l-.19.05h-.2s-.08-.14-.08-.14l-.23.18-.08-.02-.16-.21-.12-.14.03-.34.11-.4.11-.15-.04-.03.03-.17.19-.21.15-.24.41-.89.79-1.11.04-.05.03-.17.12-.07.41-.8.26-.4.22-.43.07-.18.11-.19.26-.48v-.08s.19-.17.19-.17l.11-.23.22-.43.67-1.2.23-.35.15-.33.71-1.17.19-.38.67-1.12.45-.81.11-.23.11-.44.07-.27.19-.21.19-.13.07-.27.08-.1v-.12s-.04-.07-.04-.07l.07-.14v-.16s.11-.23.11-.23h-.04s.04-.04.04-.04l.04.03.11-.11.04-.13.08-.02v-.04s.23-.26.23-.26l.12-.07.29-.69.26-.36.15-.37-.08-.02.19-.34.07-.14.07-.18v-.04s-.04-.03-.04-.03v-.04s.04,0,.04,0l.03-.38.07-.43.07-.14.22-.47.38-.34.16.04v-.16s.11-.11.11-.11l.12-.03.07-.14.19-.09.43-.15.23-.06.2.03.12.09v.25s-.18.38-.18.38v.2s-.07.22-.07.22l-.29.94-.61.61-.42.43-.04.05-.41.85v.08s-.15.29-.15.29l-.03.3-.11.32-.07.18-.15.16-.04.05-.08.06-.04.09-.08.02-.03.17-.15.2-.23.26-.3.57-.22.39-.15.41-.11.15-.42.44-.45.73-.27.23-.41.68v.08s-.26.36-.26.36l-.34.62-.11.4-.15.29-.26.44-.04.13-.3.32-.34.54-.45.81-.41.76-.37.63-.67,1.24-.25.81-.07.18.04-.05.16-.04.11-.11.12-.03.08-.06.08-.1.23-.18.03-.22.19-.29.19-.17.38-.26.34-.33.38-.47.08-.1.08-.06.23-.26.45-.61.87-1.04.31-.28.8-.86.23-.35.08-.1.23-.18.53-.55.26-.48.15-.08.53-.55.34-.46.19-.17.04-.09.72-.92.27-.23.42-.52.11-.19.23-.22.34-.42.31-.28.38-.55.99-1.07.3-.36.23-.35.69-.5.5-.45.15-.29.08.02.15-.16.15-.08.27-.31.08-.1.27-.19.34-.33.46-.32.57-.52.07-.18.57-.47,1.12-.53.84-.58.39-.22.23-.14.11-.11.08-.06.08-.02-.08.1.35-.05h.16s.24.35.24.35l-.07.43-.11.19c-.22.55-.67,1.2-.93,1.68-.07.14-.15.2-.19.29l-.3.37-.22.47-.6.81-.41.64-.07.14-.3.45-1,2.07-.48.99-.36,1.08h-.04s0,.05,0,.05l-.41.93-.14.61-.11.19-.08.1-.11.32-.04.09.05.28.09.31.04.2.08.14.04.11.04.03.58-.39.15-.08c.23-.22.46-.49.72-.8l.19-.25.19-.13c.3-.32.57-.68.87-1.04l.46-.49.23-.26.91-.93,1.64-1.73.15-.29.15-.16.27-.19.16-.04c.08-.1.15-.16.23-.22l.11-.15.04-.09v-.04s.08-.1.08-.1l.04-.13v-.04s.19-.17.19-.17l-.04-.03h.04s.08.01.08.01l.12-.07.08-.1.08-.02.31-.2.27-.07.19-.13h.12s-.04.06-.04.06l.27-.11.04-.05h.19s.2.03.2.03l.12.09v.2s-.03.05-.03.05h.04s-.08.09-.08.09l-.22.76v.12s-.18.54-.18.54l-.34.58-.22.67-.11.28-.22.39-.45.73-.15.33-.22.47-.15.37-.11.44.09.43.28.18c.31.09.82.04,1.36-.18l.23-.1v.04s.08-.06.12-.07l.04-.05.11-.11.46-.16.38-.26.23-.18.2.03.11-.11.04-.05.23-.1.8-.66.5-.45.23-.1.23-.26.12-.03.53-.46.23-.1.23-.18.5-.37.5-.41,1.07-.85.11-.11,1.38-1.09.15-.16.5-.33.19-.17.5-.45.27-.27.15-.08.12.18-.03.17-.19.13-.08.06-.19.17-.07.14-.08.1-.23.1-1.14,1.07-.3.32-.12.03-.46.36-.34.33-.19.13-.08.1-.12.07-.65.53-.23.18-.19.17-.23.22-.15.12-.15.16-.34.29-.08.06-.19.13-.15.16-.34.25-.54.34-.69.5-.3.28h-.16s-.38.26-.38.26c-.12.07-.23.18-.38.26l-.08.06-.19.09-.46.24v.04s-.08.02-.08.02l-.23.18-.23.1-.19.05c-.27.15-.5.25-.77.32l-.39.1c-.16.04-.31.04-.47.04l-.12.03-.55-.15Z"/>
        <path class="cls-4" d="M182.84,176.94l-.15.37c-.04.09,0,.21-.03.34l-.22.47-.26.48-.34.33-.38.51-.15.24-.19.25-.3.32-.08.06c-.64.78-1.44,1.56-2.25,2.3v.08s-.11.03-.11.03l-.42.39v.04s-.07.1-.07.1l-.16.04q-.04.05-.08.06v.12s-.15.04-.15.04l-.3.32h-.04s-.19.26-.19.26l-.27.15-.15.24-.27.27-.15.08-.43.15-.15.12-.23.1-.08.02c-.61.4-1.15.78-1.69,1.08l-.15.16-.12.07-.15.24-.12.07h-.27s-.27.05-.27.05l-.74.14-.7.09v-.04s-.12.07-.16.08c-.23.02-.39.02-.59-.02-.16-.08-.98-.29-1.03-.57v-.37s-.12.07-.12.07l-.04-.24.25-.81.25-.77.15-.29.45-.61.27-.27.08-.14.65-.66.57-.76.11-.23.15-.2.84-.91.23-.26.19-.09.08-.1.31-.28.07-.14.04.07.91-.97.19-.25.12-.07.34-.33.26-.4.34-.42.54-.34.49-.58.31-.24.34-.29c.38-.34.72-.72,1.07-1.01l-.55.05c-.27.11-.5.21-.73.27l-.12.07-.04.05h-.12s-.47.11-.47.11c-.35.13-.77.32-1.2.43h-.04s-.89.28-.89.28h-.47s-.24-.11-.24-.11l-.12-.18.03-.3.3-.57.31-.2.39-.18.39-.14.31.04.59.02c.58-.15,1.2-.26,1.87-.3l.42-.19.62-.12.73-.31h.12s.66-.24.66-.24c.12-.07.23-.18.34-.29l.34-.33.31-.24.12-.07.19-.17.31-.12.35-.13c.27-.11.54-.22.81-.25l.27-.11.12.09c.16,0,.27.06.43.14l1.08-.4.04-.05.46-.24.58-.19.62-.36.23-.1.39-.14.78-.19.31-.12.47-.08h.04c.15-.05.35-.1.5-.18.19-.05.43-.15.66-.21l.15-.08.08-.06.08-.02.08.06.23-.06.23-.14.27-.07.35-.05.08-.02.27-.11.24.06.12-.03.15-.08.31-.04h.16c.47-.03.86-.05,1.09-.03l.16.08.16-.04.12.13c.24.06.43.18.67.29l.08-.02.12.09.2.03.12.22.16.21v.12s-.22.26-.22.26l-.11.32-.33.74-.15.28v.04c-.04.05-.07.1-.07.14l-.15.28-.23.14v-.33s.07-.14.07-.14v-.08c.03-.17.14-.41.22-.59l.07-.22.25-.81s-.04-.07-.04-.15l-.12-.18-.39-.11-.32-.17-.59-.02c-.86.01-1.94.28-2.57.44l-.58.15-.46.16c-.43.11-.62.24-1.01.38-1.7.55-2.9,1.02-4.02,1.47l-.08.06-.35.17-.19.17-.62.11c-.62.24-1.24.52-1.93.77l-.31.2-.31.08-.7.26-.19.17c.39.03.74.1,1.02.16l.08-.02.12.09.08.02.16.08.32.13.48.42.12.26.21.44-.02.75c-.03.21-.07.43-.14.65ZM181.9,176.89v-.25s.14-.41.14-.41l.02-.58v-.04s-.21-.36-.21-.36l-.24-.19-.28-.14-.32-.13-.27-.05-.35-.04-.31-.13-.24-.02s-.08-.02-.08-.02c-.5.46-.95.98-1.64,1.65l-.34.37-.27.31-1.37,1.21-.38.38-.27.23-.76.73-.04.05-.19.21-.57.47-.46.45-.42.39-.19.21-.53.55-.04.05-.41.64-.34.58-.19.33s-.04.05-.08.06c-.26.4-.49.82-.59,1.18v.08s-.03.17-.03.17l-.07.22v.25s-.03.09-.03.09l-.04.13c.05.32.13.59.33.7l.08-.02.24.11c.08-.02.16,0,.23-.02,1.28-.24,1.55-.43,2.82-1.2.54-.3,1.12-.69,1.65-1.08l.04-.09.12-.03.46-.36.3-.41.65-.53.15-.08.08-.02,1.18-1.16.11-.15.08-.06c.3-.32.61-.69.91-1.05l.11-.19.07-.14.23-.26.23-.35.11-.23.15-.08.07-.18.11-.15.07-.14.08-.02c.3-.53.56-1.01.71-1.46ZM183.3,172.04c-.28-.1-.77.24-1.16.5l1.16-.5Z"/>
        <path class="cls-4" d="M195.17,176.77l-.07.18.3-.37.53-.55.15-.16.08-.06.08-.02v-.04s.31-.2.31-.2l-.16-.12.23-.06.68-.87.12-.03.6-.81.69-.63.65-.7.08-.1h.04s.72-.81.72-.81l.04-.05,1.07-1.09v.04s.69-.67.69-.67l.19-.25.15-.08.34-.33.08-.1h.04s.76-.7.76-.7l.3-.41.23-.22.58-.39.42-.52.42-.35.81-.49.35-.25c.27-.23.73-.6,1.26-.98l.23-.26.69-.46.69-.42.11-.11.34-.29.42-.27.27-.19.5-.17c.65-.37,1.27-.65,1.78-.74l.23-.14.16.12c.2.03.35.12.47.21.04.03.08.06.08.14l.28.26-.05,1.08-.44,1.1-.46.28-.43.11-.24-.23v-.41s-.2.21-.2.21v-.21s.07-.06.07-.06l.03-.21-.05-.28-.09-.51-.16-.17-.58.23-.54.38-.19.09-.31.04-.42.31-.23.1-1.54.72c-.73.51-1.34,1-1.57,1.18l-.23.18-.19.25-1.53,1.25-.57.52-.23.3-.73.6-.19.17-.34.37-.57.56-.23.35-1.11,1.06-1.63,1.9-.22.43-.27.27-.49.7-.45.57-.15.12-.31.28-.26.36-.04.09-.3.37-.34.5-.19.25-.15.16-.38.51-.15.33-.15.16-.15.24-.38.47-.64.86-.19.38-.15.24-.18.42-.07.27-.04.09-.07.23-.23.3-.61.65-.38.38h-.35s-.2-.23-.2-.23v-.04c-.08-.1-.12-.22-.09-.39v-.16s.07-.1.07-.1l.1-.52-.08.1-.04-.15.11-.32.14-.53.26-.48.04-.09v-.08s.15-.16.15-.16l.11-.23v-.08s.34-.37.34-.37l.08-.02.11-.11.45-.81.26-.48.12-.07.18-.46.22-.67.26-.31.07-.27.41-.68.11-.11.48-.95v-.16s.63-1.03.63-1.03l.37-.79.15-.29.18-.42.04-.13.08-.1.26-.48v-.12s.22-.47.22-.47l.23-.1.12.05.23-.35.11-.32.03-.22v-.12s-.16-.04-.16-.04l.11-.15-.04.09.11-.19-.04-.03-.15.24c-.19.25-.35.09-.35-.12l.08-.1v-.08s.03-.13.03-.13l.11-.23.04-.09-.08-.1-.04.05-.2-.03v-.12s.07-.1.07-.1l.15-.08-.08.02.08-.06-.08.02-.04-.15.15-.28.2.07.11-.23v-.16s.03-.13.03-.13l-.08-.02.19-.09v-.21s.07-.06.07-.06l.08-.02.15-.2.19-.05.27-.03h.19s.15-.13.15-.13v-.08s.15-.16.15-.16h.16s.12-.03.12-.03l.08.06-.04.05-.19.13c.31.04.47.21.52.41l.04.03-.04.13c.01.49-.36,1.16-.77,1.8l.04.07-.41.68-.23.1-.34.5-.15.24-.11.32h-.04c-.19.35-.37.72-.6,1.03,0,.04-.04,0-.04,0l-.22.43-.07.27-.15.33-.33.7-.23.35-.07.18-.22.47-.45.9-.26.68-.22.47-.19.25-.08.1Z"/>
        <path class="cls-4" d="M216.12,171.42v.2s-.18.25-.18.25l-.11.19s-.04.05-.04.09v.12s-.15.28-.15.28v1.04c-.05.05-.08.63.08.8.24.23.12.26,1.1.34h.66s.5-.13.5-.13l.58-.23,2.82-1.37.54-.38,1.5-.91.31-.28.15-.12.08-.02,2.3-1.61.16-.04.27-.23.35-.17,1.27-.81.15-.08c1.38-.97,1.91-1.47,3.26-2.47l.84-.54.04-.09.23-.18.69-.42.73-.51v-.08s.11-.03.11-.03l.46-.36.04-.09,2.06-1.88.19-.09c.27-.23.53-.51.84-.83.08-.1.19-.09.23-.02v-.04s.15-.16.15-.16h.16s.13.34.13.34l-.19.13-.35.21-.19.13-.88.88-.19.34-.19.05-.15.12c-.34.33-.73.64-1.07.93l-.04.05-.27.23-.15.16-.12.03-1.23.97-.04.09-.15.08-.31.24-.08.06-.53.51-1.46,1.03c-.46.36-.92.77-1.38,1.09l-.11.15-1.92,1.47-.15.16-.08-.1-.42.39-.46.2-.31.24h-.04c-.5.38-1,.71-1.5,1.05l-.57.47-1.19.92-.31.16-.46.2-.65.37-.39.14-.15.12-.15.16-.5.25-.08.02c-.46.28-1,.54-1.54.76l-.11.15-.19.09h.04s-.77.35-.77.35l-.23-.02-.42.27-.94.07-.86-.24-.4-.48-.21-.48-.13-.54-.02-.7.04-.09-.04-.07v-.29s.24-1.09.24-1.09l.26-.56.29-.82.22-.47.08-.1.11-.36.23-.26.11-.32.22-.43.11-.15.42-.31.15-.24.27-.19.3-.32.08-.06.38-.47.34-.37.26-.48.15-.2.19-.29.15-.16.23-.14.07-.14.19-.25.31-.2.19-.13c.84-.87,1.71-1.79,2.63-2.6l.08-.1.38-.38.5-.33s.08-.02.08-.06l.46-.44.27-.23.12-.07.54-.22c.42-.27.85-.54,1.27-.77l.34-.29.39-.1.23-.14.12.05c.31-.08.62-.16.89-.18l.04-.05.12-.07.08.02.12-.07.04-.05.24.02v-.04s.04-.01.04-.01l-.04.09.12.05.12-.03.04.07h.04s.24.05.24.05l.04.03c.2.12.36.2.4.39h.12s-.04.1-.04.1h.04s-.04.04-.04.04v.2s.05.15.05.15l-.07.31-.07.14v.25s-.13.65-.13.65l-.3.61-.38.51-.42.39-.34.33-1.34,1.08-.19.21-.27.15c-.88.88-1.83,1.7-2.79,2.47l-.04.09-1.11.86-.49.5-1,.7-.73.47-1.04.47-.62.2-.27.07-.24-.06-.08-.19.07-.14.26-.64.53-.67.5-.33.31-.08h.27s.31.02.31.02l.5-.13.46-.2.5-.33.16-.04.07-.14,1.11-.69,1.03-.8.5-.41.19-.29.5-.33.07-.18.58-.35.15-.2.49-.54,1.71-2,.15-.24.07-.31.07-.14.18-.66-.04-.03-.04-.07-.08-.19-.2-.2-.27-.06h-.27s-.43.09-.43.09l-.27.11h-.16c-1.04.51-2.15,1.41-2.8,1.9l-.46.36-.11.15-.19.21h-.16s-.04.05-.08.06v.08s-.23.14-.23.14l-.08.1-.08.02-.84.71-.42.48-.26.36-.38.22-.15.12c-.34.33-.65.7-.99,1.07l-.19.29-.49.62-.26.36-.42.52-.53.71-.53.79-.11.15-.22.43-.26.48-.38.51-.33.66Z"/>
        <path class="cls-4" d="M302.43,121.51l-.03.17-.15.33-.11.11-.15.12-1.12,1.89-.15.33-.23.3-.56.88v.04s-.15.33-.15.33l-.11.11-.08.06-.71,1.13-.15.33-.08.1-.22.43h-.04s-.26.45-.26.45l-.26.52-.38.59v.08s-.3.57-.3.57l-.46.53-.33.74-.19.3-.3.41-.34.42-.42.56-.38.43-.34.54.08.02-.03.17-.07.14-.15.12-.07.22-.08.02v.08s-.34.46-.34.46l-.15.08-.75,1.14-.26.44-.15.41-.3.32-.23.26-.56.88-.19.25-.38.59-.11.23-.53.75-.26.44-.72,1.05-.22.39-.03.17-.22.43-.11.19-.5.41-.07.27-.27.27-.3.32-.15.12-.34.54-.34.5-.3.53-.45.77-.07.39-.08.1-.39.18-.46.36-1.28,1.77h.04s0,.15,0,.15l-.08.1-.27.23-.57.72c-.19.3-.42.56-.64.86l-.11.23-.26.36-.3.32-.07.14-.08.1-.61.77v.08s-.19.21-.19.21l-.03.17-.76.93-.11.11-.11.19-.41.6-.12.07-.3.32-1.89,2.54-.23.22-.76,1.01-.27.27-.42.56-.23.18s-.04.01-.04.05l-.6.85v.08s-.07.1-.07.1l-.15.08-.07.14-.11.15-.11.19.19-.13.04.03v.04s-.15.2-.15.2l-.19.09v-.12s-.23.3-.23.3l-.34.29-.26.4-.07.18-.26.35-.69.55c-.08.06-.15.16-.23.26v.04s-.08.06-.08.06l.12-.07.04.03v.2s-.19.13-.19.13l-.23.06v-.04s-.72.84-.72.84v.37s-.26.07-.26.07l-.49.7-.04.09-.26.52-.38.34-.3.61-.41.6-.23.14-.69.46-.27.31-.42.27-.5.29-.15.16-.69.63-.57.56-.57.72-.19.25-.42.44-.19.21-.18.58-.23.14-.47.04-.5.21-1.28.49-1.2.38-.04-.03-.11.11-.12.03-.12-.05-.08-.02c-1.01.25-2.02.22-3.03.47l-.27-.05-.31.08v-.08s-.04-.07-.04-.07c-.08-.02-.16-.04-.24-.02-.12-.05-.12-.26-.32-.46l-.08-.02-.44-.26-.24-.23-.25-.6-.02-.74-.09-.31v-.33s.02-.38.02-.38l-.16-.17v-.12s.19-.25.19-.25v-.16s.03-.3.03-.3l.03-.17.07-.31v-.25s.05-.88.05-.88l-.09-.31v-.25s.03-.21.03-.21l-.09-.39v-.16s.1-.36.1-.36l.11-.23v-.29s.07-.1.07-.1l.07-.51.03-.17.14-.82v-.04s.07-.18.07-.18l.03-.17.03-.38.04-.09.13-.86-.04-.07v-.04s.07-.1.07-.1v-.37s-.05.09-.05.09h-.04s-.04-.02-.04-.02l.03-.17.08-.1.08.06.03-.26.07-.31.07-.35-.04-.11.03-.34.34-.58v-.04s.03-.17.03-.17l-.08-.14.07-.18.11-.23.07-.27.32-1.28.04-.13.21-.88h.04s.39-1.59.39-1.59v-.04s.04,0,.04,0l.18-.71v-.16s.03-.13.03-.13l-.07.14h-.12s-.04-.13-.04-.13l.11-.19.23-.14v.04s.08-.18.08-.18v-.08s.03-.09.03-.09l.11-.4-.04-.15-.04-.11.11-.11.11-.19.36-1.16.17-.95.15-.41.11-.36.1-.64.14-.49.11-.32.3-.57.11-.4.04-.05.11-.44.26-.64c.03-.17.11-.36.18-.58l.11-.48.11-.4.03-.34.32-1.15.07-.39.11-.4-.04-.03h-.04s0-.07,0-.07l.04-.05.11-.44-.17-.53v-.25s.13-.65.13-.65l.38-.59v-.29s-.05,0-.05,0v-.04s.08-.02.08-.02l.04-.13v-.12s.03-.05.03-.05v-.04s.07-.31.07-.31l.15-.29.07-.18.08-.06v.04s.11-.19.11-.19l-.13-.5-.12-.22-.08-.1v-.29s.18-.38.18-.38l.18-.75.22-.43.27-.19.2.07.16.17c.08-.06.23-.1.31.09.04.19.09.43.06.73l.04.2.09.43v.41s-.06.1-.06.1l.08.06-.07.18v.21s.12.01.12.01l-.04.09-.08.02-.11.32-.04.09-.12.07-.03.22-.11.11-.11.15c-.03.22-.1.48-.18.7l.04.19-.03.38-.19.38-.15.28-.33,1.03-.04.09.04.11-.04.09-.03.38-.3.57-.11.32v.04s-.03.17-.03.17l-.11.28.19-.09.08.14-.15.28-.04.05-.08.02v-.21s-.08.18-.08.18l-.11.23v.29s-.07.1-.07.1l-.08.06-.04.13h.12s-.03.19-.03.19l-.19.25-.22.67v.08s-.18.62-.18.62l-.11.44-.4,1.17v.25s-.82,2.68-.82,2.68l-.07.39-.11.4.04.11-.26.68-.11.28v.16s-.36,1.12-.36,1.12l-.15.2-.03.26-.15.12v.25s-.1.32-.1.32l-.04.05-.07.31v.08s-.14.49-.14.49v.08s-.1.4-.1.4l-.04.09-.11.44v.04s-.07.27-.07.27l-.21.92h.04s.05.47.05.47l-.14.45-.07.18-.19.29c0,.12-.03.22-.07.31v.04s-.09,1.01-.09,1.01l-.15.37-.11.44-.03.38-.1.69-.08.1-.1.73c0,.08-.03.26-.07.51l-.07.35.05.44-.06.72v.57s-.02.34-.02.34l-.07.43v.41s.26.56.26.56v.33s-.03.13-.03.13v.33s.05.28.05.28v.25s.08-.1.08-.1l.08.1v.16s-.03.05-.03.05h-.04s-.04-.1-.04-.1v.12s-.03.17-.03.17v.08s.04.11.04.11v.04s-.04.09-.04.09l.02.74.04.15v.33s.21.4.21.4l.37.73.12.22.04.03.28.18c.87.28,1.91.06,3.07-.48l.42-.27.12-.07.42-.19.15-.08c.85-.5,1.73-1.18,2.61-1.89l.38-.34.34-.29.23-.22.23-.18,1.3-1.19.04-.05.19-.38.11-.15.34-.38.42-.19.04.03.27-.27.19-.21.33-.83.61-.57.31-.24.54-.26.26-.35.04-.09.04.03.57-.68v-.2s.21-.59.21-.59l.49-.5.23-.22.54-.26.12-.07.53-.59c.34-.42.68-.83,1.02-1.21l.19-.38,1.25-1.43,1.21-1.54.49-.58.75-1.06.34-.42.61-.77.38-.34.91-1.22.26-.44.38-.55.53-.55.42-.56,1.25-1.59.03-.21.53-.63.15-.16v-.08s.26-.27.26-.27l.11-.23.31-.24.15-.2.15-.29.11-.4.61-.69.42-.39.68-.91v-.04s.04-.05.04-.05l.07-.18.23-.22c.49-.7.98-1.36,1.43-2.05l.3-.41.15-.33.11-.28.15-.08.03-.17.15-.2.07-.14.19-.05.08-.1c.04-.09.11-.19.19-.29l.04-.09.11-.36.19-.17.07-.18.19-.3.07-.18.27-.11.07-.14v.04s.83-1.32.83-1.32l.19-.25.79-1.23.34-.54.38-.51.26-.4.15-.33.26-.44.34-.58.3-.41.08-.06.11-.19.19-.3.15-.2.75-1.18.27-.23.07-.14.08-.06,1.05-1.58.11-.28.23-.35.11-.11.79-1.23.04-.05.07-.27.12-.07v.04s.26-.4.26-.4l.11-.28.3-.49.15-.16.83-1.28.04-.09.23-.3.15-.37.11-.23.15-.12.04-.13.15-.24.04-.09.12-.07.19-.42.3-.49.23-.22.08-.06.23-.39-.04-.03.19-.34.04-.13.08-.06.56-.84.04-.13.11-.23.11-.11.04-.05.04-.09.15-.24.04-.09.12-.03.04-.09.19-.25.04-.09.33-.66.3-.45.26-.36.11-.32.23-.34v-.16s.37-.55.37-.55l.15-.16.04-.13.56-.97.15-.12.07-.18.23-.35v-.04s.15-.24.15-.24l.22-.39v-.04s.04,0,.04,0l.11-.19.04-.05.03-.17.23-.35.15-.16.6-.98h.04s.34-.63.34-.63l.07-.35.12-.07.12-.03.16.13v.12s-.07.18-.07.18l-.19.21-.07.22-.08.02v.08s-.34.58-.34.58l-.12.07-.37.67-.15.28-.26.44-.04.05-.3.53-.11.4-.3.37-.19.29-.52.92-.04.09-.15.24-.15.33-.11.23-.11.15-.11.11-.34.54-.34.62-.22.47-.49.78v-.04c-.04.05-.08.1-.08.14v.08s-.11.19-.11.19l-.15.16-.11.23h-.04s0,.05,0,.05l-.08.1-.15.24Z"/>
        <path class="cls-4" d="M304.69,149.28l.04-.09.07-.14.68-1.08.15-.37.11-.15.04-.09.11-.11.45-.65.15-.24v-.08s.04.03.04.03l.11-.44-.04-.03h-.2s-.35.1-.35.1l-.46.24-1.11.73-.27.15-.19.09-1.11,1.02h-.04s-.31.29-.31.29l-.27.19-.27.23-.88.68-.88.76-.34.25-.57.47-.19.13-.46.4-.23.14-.69.63-.23.22-.23.26-.35.21-.35.25-.92.77-.08.1-.38.34-.08.02v.04s-.35.09-.35.09l-.46.32-.31.08c-.11.11-.27.19-.38.26l-.15.16-.77.48-.15.08-.58.39-.08.06-.12.07-.12.03-.23.02h-.04c-.62.25-1.13.25-1.29-.16-.17-.49-.03-1.15.23-1.87l.14-.53.12-.07.04-.17.15-.29.07-.18.08-.06v.04s.07-.22.07-.22l.26-.48.42-.44.08-.1.3-.61.15-.24.3-.32.46-.53,1.7-2.08v-.04s.04,0,.04,0l.49-.58.11-.15.64-.74.31-.28.99-1.03.04-.05.45-.65.19-.25.15-.33.08-.06.27-.03.11-.11.27-.15.15-.08.19-.09.15-.16v-.08s.3-.2.3-.2l1.23-.97.23-.26.15-.12.31-.16.08.02.08-.06.35-.21.12-.03.19-.17.27-.11.23-.14.27-.15.15-.08.39.03.23-.1.23-.06h.16s.08-.02.08-.02v.04s.16-.04.16-.04l.12.05.04.07h.16s.08.19.08.19v.37s-.1.11-.1.11c-.04.13-.15.24-.41.6-.11.11-.23.1-.27.07l-.42.23-.27.11-.7.18-.62.07v.04s-.15.04-.15.04v-.04s-.08.02-.08.02l-.27.11-.27.07-.54.38-.61.44-.88.63-.61.44c-.23.18-.42.39-.65.62q-.04.05-.04,0l-.34.37-.04.05-.08.06-1.71,1.79-.15.2-.34.5-.26.35-.27.23-.34.29-.11.15-.34.5-.08.1-.07.14-.45.73-.11.11-.08.1-.11.11-.07.18-.11.19-.08.02-.07.22-.15.24-.07.18-.19.25-.19.29-.38.59v.08s.05.24.05.24l-.04.09v.08s-.07.1-.07.1l-.15.16-.11.19-.19.3-.15.28v.08s-.03.09-.03.09v.25s.09.1.09.1l.12.18.12.05.81-.53.35-.17.54-.34h.04s.19-.1.19-.1c.5-.33,1-.7,1.5-1.08l.19-.17.27-.23.19-.21.31-.08c.42-.31.88-.63,1.3-.99l.19-.21.27-.19v-.04s.08-.06.08-.06l.11-.15.15-.08.57-.43.31-.24.27-.23,1.03-.84.27-.27,1.07-.81.23-.14.69-.54.34-.38.69-.54.19-.21.31-.28.19-.21.46-.45.5-.45,1.2-.59.47-.12h.35s.28.09.28.09l.16.08c.16,0,.24.06.32.21v.04s.08.02.08.02v.16s-.03.13-.03.13l.08-.02-.04.09-.04-.03-.08.1-.08.14-.07.18-.23.26c-.04.09-.11.19-.19.29l-.26.52-.23.26-.12.07-.45.69-.08.1v.04s-.08.06-.08.06l-.22.39-.07.14-.07.18-.3.53c-.08.1-.11.23-.15.33l-.11.36-.04.05c-.07.18-.11.36-.07.43,0,.12-.04.05.12.05.04-.01.08.02.12.01l.19-.09.27-.07.08-.06.27-.07.19-.09.08.02c.27-.11.5-.25.85-.42l.31-.16.27-.19.23-.06,1.35-.75.11-.11.42-.23v.04s.5-.29.5-.29l.31-.24.15-.08.15-.16,1.27-.69v-.08s.12.05.12.05l.35-.21.11-.15,1.85-1.04.19-.05.96-.57s.08-.02.12.01l.08-.02.05.28-.15.16-.31.08-.66.33-.46.36-.16.04-.62.32-.31.2-.88.68-.65.45-.73.43-.85.54-.15.12-.38.26-.19.17-.31.2h-.04s-.27.2-.27.2l-.31.28-.12.07-.08.1-1,.62v.08s-.04-.03-.04-.03l-.31.2-.04.09-.65.41-.58.35-.19.21-.04.05-.04-.07-.12.07-.08.1-.08-.02-.04.05-.27.15-.43.11-.08-.02-.27.07-.2-.03-.16-.04-.12-.13.03-.22-.04-.15c-.04-.15-.05-.28.03-.54l.11-.32.03-.17.26-.44.11-.23.3-.49.11-.19Z"/>
        <path class="cls-4" d="M322.69,147.85c.5-.37,1-.79,1.49-1.2l.04-.05,1.99-1.7.19-.25.31-.28.08-.1.5-.5.19-.09.11-.15.8-.7.19-.05.15-.16.12-.07.15-.2.23-.22.08.02.19-.25.27-.23.15-.2.27-.27.42-.27.34-.29c.27-.23.53-.51.8-.78.04-.05.08-.06.12-.07l.11-.19.12-.03h.12s.12.15.12.15l-.03.17-.15.16-.15.08-.11.11-.08.1-.08.02c-.72.72-1.53,1.37-2.29,2.06l-.26.36-.38.26-.27.23c-.19.13-.34.29-.5.46-.27.23-.49.74-.76.97l-.92.73-.27.27-.23.18-.5.45-.08.1-.11.11-.34.29-.53.51-.19.21-.5.33-.27.27-.11.11-.76.77-.22.39-.15.12-.3.41-.03.26-.11.11-.31.04-.23.18-.69.34-.73.35-.04-.03-.5.41-.19.05-.08.1-.88.68-.12.03-.15.12-.19.05-.11.15-.15.12h-.04s-.15.09-.15.09h-.12s-.12.02-.12.02l-.12-.05-.16-.04-.59-.06h-.16s-.2-.32-.2-.32c-.16-.21-.36-.53-.41-.85-.05-.44-.02-.9.16-1.4l-.12.03v-.04s.04,0,.04,0l.07-.14.03-.17.11-.36.33-.7.21-1,.22-.47.19-.17.26-.44.19-.42.25-.72.08-.02.15-.16.04-.13.11-.28.12-.07.56-1.05.11-.23.34-.62.18-.46.63-1.15.07-.22,1.49-2.64.19-.42.23-.35v-.12s.37-.67.37-.67l.15-.24.07-.18.6-1.06.19-.17.11-.28.08-.06.11-.19.04-.09.15-.29.04-.05.11-.19.07-.18.23-.3v-.04s.03-.26.03-.26l.22-.39.3-.36.19-.3.64-1.15v-.04s.11-.19.11-.19l.11-.4.11-.11.12-.03c.11-.23.26-.48.41-.72l.15-.29.19-.42.23-.35.15-.2.15-.28.15-.16c.04-.05.04-.09.08-.1v-.12s.15-.24.15-.24l.15-.2v-.16s.15-.2.15-.2v-.12s.56-1.01.56-1.01l.11-.15.07-.22.34-.62.08-.06.22-.39.19-.25,1.27-2.34.19-.21.52-1.04.27-.31.3-.57.15-.2.45-.9.07-.14v-.04s.15-.16.15-.16l.04-.09.07-.22.07-.14-.15.16-.04-.07v-.04s.11-.23.11-.23l.19-.09v.16s.15-.33.15-.33l.26-.36.19-.34.03-.17.26-.44.72-.68.34-.62.27-.23.08-.1.07-.14v-.04s.04,0,.04,0l.08.02.15-.08.15-.2.27-.27.19-.17.07-.18-.04-.07.12-.03.04.07.19-.17h.12s.04-.04.04-.04c.08-.06.07-.14.15-.12l.08-.02.04-.13v-.12s.11-.03.11-.03v.04s.19-.09.19-.09l.23-.02.16.21.2.36-.29.82-.49.58-.57.56-.15.28-.81.49-.19.17-.26.52-.53.63-.07.14-.6.81-.86,1.62-.38.43-.22.47-.49.7v.04s-.48.86-.48.86l-.27.31-.78,1.43-.49.66-.6,1.06-.75,1.34-.3.37-1.53,2.86-.26.48-.26.56-.38.51-.41.64-1.09,1.8-.03.26-.33.66-.12.07v.16s-.26.19-.26.19l-.03.3-.15.2-.15.16h-.04s-.71,1.34-.71,1.34l-.37.67-.07.31-.03.42-.11.19-.3.49-.19.13-.07.39-.3.41-.38.47-.33.74-.19.17-.34.62v.08s-.3.57-.3.57l-.45.81s0,.04-.04.05l-.41.89c-.04.05-.08.1-.07.14l-.18.5-.26.6-.19.25-.92,2.17-.03.46-.07.22-.26.64-.15.2-.07.18-.02.58.08.23.16.13.08.1h.12s.35.13.35.13l.31-.08.54-.3.15-.16.35-.17.11-.11.42-.31.73-.47.11-.11.38-.22.23-.22.54-.38.34-.29.73-.6.65-.37h.04Z"/>
        <path class="cls-4" d="M346.11,141.14c.03-.17.03-.34.14-.53v-.08s.03-.13.03-.13l.18-.42.03-.17.11-.19s.07-.14.07-.18l.04-.09c.22-.55.48-1.07.7-1.62l.07-.22.11-.19.18-.42.04-.13.18-.42.03-.26.15-.29v-.33s-.09-.1-.09-.1l-.08-.19-.15.16-.08.02-.5.33-.81.49-.11.11-.27.15-.38.3-.96.78-.69.63-.23.18-2.25,1.97-.19.25-.08.02-.11.19-1.11.94-.42.27-.08.1-1.49,1.28-.08.1-.08.06-.15.24-.12.07v.04s-.34.25-.34.25l-.11.15-.12.03-.19.21-.08.06-.04.05-.08.06-.12.07-.15.12-.23.3-.15.08-.27.15-.23.22-.11.15-.31.24-.58.23-.27.19v.04s-.11.11-.11.11l-.04-.03h-.04s-.23.15-.23.15l-.12.03-.04.09-.04.05-.04-.03.04-.05-.16.04-1.09.15v-.04s-.23.06-.23.06l-.24-.06-.39-.15c-.08.02-.12-.01-.19,0v-.04s-.04.05-.04.05l-.12-.18c0-.2,0-.37.03-.54v-.25s.09-.77.09-.77l.07-.35.15-.24.11-.36.04-.13.19-.29.07-.18.26-.4.44-.98.11-.36.23-.39.19-.34.14-.45.22-.43.15-.24.23-.26.04-.09.08-.1.19-.34v-.08s.04,0,.04,0l.19-.38.53-.75.15-.33.07-.14.04-.09.07-.43v-.45s.06-.31.06-.31l-.08-.23v-.16s.11-.28.11-.28l.23-.26.41-.68.34-.33.27-.07.2.12v.04s0,.04.04.03c.12.14.13.34.13.54l.04.03.09.68-.1.52-.19.38-.38.55-.29.82-.27.31-.11.15-.23.3-.23.35-.15.16-.04.09-.15.24-.23.26-.04.13h-.04s-.08.07-.08.07l-.79,1.31-.07.18-.11.23-.15.2c-.19.34-.37.67-.52,1l-.37.67c-.07.18-.15.33-.22.47l-.15.33-.03.3-.07.43-.19.38-.03.26-.04.05c0,.12,0,.25.05.32.2.28,1.2-.22,2.17-.83l.23-.26.39-.14.58-.39.31-.16.31-.24c.54-.38,1.03-.76,1.57-1.18l.23-.26.27-.19.34-.25.23-.18.3-.41.96-.65c.04-.05.08-.1.11-.11l.07-.14.27-.15.84-.75.04-.05.15-.24.15-.08.07-.14.19-.17.11-.15.54-.3,1.15-1.03.34-.38.5-.41.45-.61.27-.23.34-.29.46-.32.19-.17.31-.28.92-.6.15-.12.34-.29.23-.3.04-.09.08-.06.16.04c.19-.17.42-.35.65-.49l.04-.05.35-.25h.12c.12.02.2.13.24.2l.08-.06.24.02.2.07v.16s-.07.14-.07.14l.08-.02v.08s-.08-.02-.08-.02v.08s-.07.1-.07.1l-.11.28-.3.45-.19.38v.25s-.33.58-.33.58l-.07.22-.11.23-.19.34-.07.14-.15.45-.15.41-.23.35-.03.17-.3.57-.03.17-.15.41-.03.26-.18.42-.11.15c-.18.58-.25,1.01-.05,1.13.2.16.43.22.79.17l.39-.06.31-.08.23-.02.27-.07c.43-.11.85-.3,1.35-.51l.04-.05.23-.06.54-.3h.2s.85-.35.85-.35l.04-.05h.04s.23-.15.23-.15l.5-.17.39-.14h.04c.04-.06.08-.07.12-.08h.04s.23-.11.23-.11l.2.03.08.1-.15.16-.15.08-.12.07-.7.22-.15.16-.11.11-.08-.06-.5.25-1.31.78-.35.13-.23.1-.5.29-.35.13-.27.11-.08.02c-.04.05-.08.06-.12.07l-.08.02-.46.2-.58.27-.31.08c-.46.16-.85.34-1.12.36l-.08.06-.08-.02c-.08.02-.12-.01-.16,0l-.12.03-.12-.14-.04-.11v-.08s-.04-.03-.04-.03v-.04c-.08-.1-.09-.35-.05-.56l.03-.3.07-.14Z"/>
        <path class="cls-4" d="M358.46,135.64v.2s-.18.25-.18.25l-.11.19s-.04.05-.04.09v.12s-.15.28-.15.28v1.03c-.05.05-.08.63.08.8.24.23.12.26,1.1.34h.66s.5-.13.5-.13l.58-.23,2.82-1.37.54-.38,1.5-.91.31-.28.15-.12.08-.02,2.3-1.61.15-.04.27-.23.35-.17,1.27-.81.15-.08c1.38-.97,1.91-1.47,3.26-2.47l.85-.54.04-.09.23-.18.69-.42.73-.51v-.08s.11-.03.11-.03l.46-.36.04-.09,2.06-1.88.19-.09c.27-.23.53-.51.84-.83.08-.1.19-.09.23-.02v-.04s.15-.16.15-.16h.16s.13.34.13.34l-.19.13-.35.21-.19.13-.88.88-.19.34-.19.05-.15.12c-.34.33-.73.64-1.07.93l-.04.05-.27.23-.15.16-.12.03-1.22.97-.04.09-.15.08-.31.24-.08.06-.53.51-1.46,1.03c-.46.36-.92.77-1.38,1.09l-.11.15-1.92,1.47-.15.16-.08-.1-.42.39-.46.2-.31.24h-.04c-.5.38-1,.71-1.5,1.05l-.57.47-1.19.92-.31.16-.46.2-.65.37-.39.14-.15.12-.15.16-.5.25-.08.02c-.46.28-1,.54-1.54.76l-.11.15-.19.09h.04s-.77.35-.77.35l-.23-.02-.42.27-.94.07-.86-.24-.4-.48-.21-.48-.13-.54-.02-.7.04-.09-.04-.07v-.29s.24-1.09.24-1.09l.26-.56.29-.82.22-.47.08-.1.11-.36.23-.26.11-.32.22-.43.11-.15.42-.31.15-.24.27-.19.3-.32.08-.06.38-.47.34-.37.26-.48.15-.2.19-.29.15-.16.23-.14.07-.14.19-.25.31-.2.19-.13c.84-.87,1.71-1.79,2.63-2.6l.08-.1.38-.38.5-.33s.08-.02.08-.06l.46-.44.27-.23.12-.07.54-.22c.42-.27.85-.54,1.27-.77l.34-.29.39-.1.23-.14.12.05c.31-.08.62-.16.89-.18l.04-.05.12-.07.08.02.12-.07.04-.05.23.02v-.04s.04-.01.04-.01l-.04.09.12.05.12-.03.04.07h.04s.24.05.24.05l.04.03c.2.12.36.2.4.39h.12s-.04.1-.04.1h.04s-.04.04-.04.04v.2s.05.15.05.15l-.07.31-.07.14v.25s-.13.65-.13.65l-.3.61-.38.51-.42.39-.34.33-1.34,1.08-.19.21-.27.15c-.88.88-1.83,1.7-2.79,2.47l-.04.09-1.11.86-.49.5-1,.7-.73.47-1.04.47-.62.2-.27.07-.24-.06-.08-.19.07-.14.26-.64.53-.67.5-.33.31-.08h.27s.31.02.31.02l.5-.13.46-.2.5-.33.15-.04.07-.14,1.11-.69,1.03-.8.5-.41.19-.29.5-.33.07-.18.58-.35.15-.2.49-.54,1.71-2,.15-.24.07-.31.07-.14.18-.66-.04-.03-.04-.07-.08-.19-.2-.2-.27-.06h-.27s-.43.09-.43.09l-.27.11h-.16c-1.04.51-2.15,1.41-2.8,1.9l-.46.36-.11.15-.19.21h-.16s-.04.05-.08.06v.08s-.23.14-.23.14l-.08.1-.08.02-.84.71-.42.48-.26.36-.38.22-.15.12c-.34.33-.65.7-.99,1.07l-.19.29-.49.62-.26.36-.42.52-.53.71-.53.79-.11.15-.22.43-.26.48-.38.51-.33.66Z"/>
      </g>
    </g>
  </g>
</svg>