<?xml version="1.0" encoding="UTF-8"?>
<svg id="Layer_2" data-name="Layer 2" xmlns="http://www.w3.org/2000/svg" viewBox="0 0 317.54 35.63">
  <defs>
    <style>
      .cls-1 {
        fill: #fff;
      }
    </style>
  </defs>
  <g id="header">
    <g>
      <g>
        <path class="cls-1" d="M17.83,0C7.99,0,0,7.99,0,17.81s7.99,17.82,17.83,17.82,17.8-7.99,17.8-17.82S27.64,0,17.83,0ZM33.63,25.26l-.16.28c-.06-.05-.12-.07-.19-.1-.79,1.6-1.82,3.05-3.04,4.32.06.06.14.13.21.19l-.21.23c-.08-.06-.16-.13-.24-.2-1.24,1.23-2.66,2.29-4.22,3.1.1.1.19.21.27.32l-.27.2c-.09-.11-.19-.24-.3-.36-.94.46-1.94.85-2.96,1.15.06.11.12.23.16.33l-.3.11c-.04-.13-.1-.24-.18-.36-.53.14-1.08.26-1.64.35-.9.38-1.74.59-2.51.59-.7,0-1.47-.17-2.28-.49-.66-.07-1.3-.19-1.92-.34-.05.08-.08.15-.11.25l-.31-.11c.03-.07.06-.15.1-.21-1.05-.27-2.08-.64-3.05-1.09-.07.07-.15.17-.21.25l-.25-.18c.05-.08.11-.15.17-.22-1.65-.82-3.16-1.89-4.45-3.16-.06.06-.12.11-.18.17l-.22-.24c.06-.05.12-.1.18-.16-1.24-1.26-2.28-2.7-3.08-4.28-.09.06-.18.11-.27.16l-.17-.27c.1-.06.18-.12.29-.17-1.07-2.22-1.69-4.71-1.71-7.35h-.3v-.33h.3c.02-2.63.64-5.12,1.71-7.34-.11-.06-.19-.11-.3-.18l.17-.28c.09.05.19.11.27.16.81-1.58,1.85-3.01,3.08-4.27-.06-.05-.13-.11-.18-.17l.22-.23c.06.05.12.11.19.17,1.3-1.27,2.81-2.33,4.44-3.16-.06-.07-.12-.15-.17-.22l.25-.19c.06.09.15.18.22.28.96-.46,1.99-.82,3.04-1.11-.04-.07-.07-.14-.1-.22l.31-.1c.03.08.06.16.12.25.65-.16,1.33-.27,2-.35.76-.26,1.5-.41,2.18-.41.77,0,1.6.17,2.46.5.57.1,1.14.21,1.69.35.07-.11.14-.24.18-.35l.3.1c-.03.11-.1.23-.16.34,1.02.29,2.02.69,2.95,1.15.12-.12.22-.24.32-.37l.27.21c-.08.1-.17.21-.28.31,1.56.83,2.98,1.87,4.22,3.11.07-.07.16-.14.24-.21l.21.23c-.07.07-.15.14-.22.2,1.23,1.27,2.25,2.73,3.04,4.34.08-.04.14-.08.21-.13l.15.29c-.06.04-.15.08-.23.13,1.03,2.18,1.62,4.6,1.65,7.17h.29v.33h-.29c-.03,2.56-.61,4.99-1.65,7.17.07.04.15.08.22.12Z"/>
        <path class="cls-1" d="M17.91,22.19h.33v-1.42c-.11.02-.22.05-.33.07v1.36Z"/>
        <path class="cls-1" d="M18.23,17.97h-.33v1.81c.1-.02.21-.05.33-.07v-1.74Z"/>
        <path class="cls-1" d="M18.05.59s-.09,0-.15,0v2.18c.05,0,.1.01.16.01s.12,0,.17-.01V.6s-.02,0-.02,0c-.05,0-.11,0-.16,0Z"/>
        <path class="cls-1" d="M17.94,26.53h.29v-4.03h-.33v4.03h.04Z"/>
        <path class="cls-1" d="M18.06,4.78c.05,0,.12,0,.17,0v-1.66h-.33v1.66c.05,0,.1,0,.16,0Z"/>
        <path class="cls-1" d="M17.91,13.43v4.21h.33v-4.21h-.33Z"/>
        <path class="cls-1" d="M17.91,32.51h.33v-1.63c-.11.02-.22.03-.33.04v1.59Z"/>
        <path class="cls-1" d="M17.94,8.76h.29v-3.66c-.05,0-.11,0-.17,0s-.1,0-.16,0v3.66h.04Z"/>
        <path class="cls-1" d="M17.91,32.83v2.22h.33v-2.22c-.05,0-.11,0-.17,0s-.1,0-.16,0Z"/>
        <path class="cls-1" d="M17.94,26.86h-.04v2.63c.1.01.21.01.33,0v-2.63h-.29Z"/>
        <path class="cls-1" d="M17.91,13.11h.33v-1.57c-.11.11-.23.21-.33.32v1.24Z"/>
        <path class="cls-1" d="M10.09,17.64c0,.07,0,.14,0,.21,0,.04,0,.07,0,.12h.9c.04-.11.08-.21.12-.33h-1.02Z"/>
        <path class="cls-1" d="M21.94,17.97c.15-.11.31-.21.46-.33h-4.17v.33h3.71Z"/>
        <path class="cls-1" d="M30.9,17.86s0,.07,0,.12h4.17v-.33h-4.17c0,.07,0,.14,0,.21Z"/>
        <path class="cls-1" d="M17.91,17.64h-3.03c-.03.11-.07.21-.09.33h3.12v-.33Z"/>
        <path class="cls-1" d="M26.27,17.86v.12h4.31s0-.08,0-.12c0-.08,0-.14,0-.21h-4.31v.21Z"/>
        <path class="cls-1" d="M6.67,17.92c-.06-.1-.14-.18-.19-.27h-.96v.33h1.2s-.03-.04-.05-.06Z"/>
        <path class="cls-1" d="M24.27,17.97h1.73v-.33h-1.32c-.13.12-.27.22-.41.33Z"/>
        <path class="cls-1" d="M9.83,17.97v-.33h-1.36c.1.12.2.22.29.33h1.07Z"/>
        <path class="cls-1" d="M5.2,17.86v-.21H.58v.33h4.61v-.12Z"/>
        <path class="cls-1" d="M35.06,17.97h.29v-.33h-.29v.33Z"/>
        <path class="cls-1" d="M.58,17.64h-.3v.33h.3v-.33Z"/>
        <rect class="cls-1" x="17.91" y="17.64" width=".33" height=".33"/>
        <path class="cls-1" d="M6.6,23.94c-.11.03-.21.06-.31.08.57,1.63,1.31,3.03,2.05,4.17.09-.04.2-.08.3-.12-.73-1.13-1.48-2.52-2.04-4.13Z"/>
        <path class="cls-1" d="M5.62,15.95c-.08-.26-.16-.53-.23-.8-.11.81-.18,1.64-.19,2.49h.32c0-.57.04-1.13.09-1.69Z"/>
        <path class="cls-1" d="M27.55,7.41s-.03.02-.04.02c.37.59.72,1.2,1.04,1.83.01-.33-.01-.62-.09-.88-.11-.19-.22-.38-.32-.57-.17-.17-.37-.31-.59-.41Z"/>
        <path class="cls-1" d="M21.97,33.73c.07.07.15.15.23.22.7-.45,1.41-.99,2.1-1.63-.1-.05-.19-.1-.29-.16-.68.6-1.36,1.13-2.04,1.56Z"/>
        <path class="cls-1" d="M21.68,33.91c-.94.56-1.86.94-2.7,1.11.53-.04,1.06-.09,1.58-.18.44-.19.9-.43,1.36-.71-.08-.07-.16-.15-.24-.22Z"/>
        <path class="cls-1" d="M5.52,17.97h-.32c.02,2.12.41,4.05.98,5.75.1-.03.2-.06.31-.09-.57-1.67-.96-3.58-.97-5.66Z"/>
        <path class="cls-1" d="M14.44,33.92c-.09.07-.17.14-.24.22.52.32,1.07.59,1.57.8.5.06,1.01.09,1.52.11-.89-.14-1.86-.54-2.86-1.13Z"/>
        <path class="cls-1" d="M29.61,23.66c.1.03.21.06.31.09.59-1.7.97-3.64.98-5.77h-.32c-.01,2.09-.4,4.01-.98,5.68Z"/>
        <path class="cls-1" d="M27.42,28.15c.1.04.19.08.29.12.75-1.15,1.5-2.57,2.1-4.21-.12-.03-.21-.06-.32-.09-.59,1.64-1.35,3.04-2.07,4.18Z"/>
        <path class="cls-1" d="M9.88,5.63c.59-.73,1.23-1.41,1.87-2.01-.09-.06-.18-.11-.26-.17-1.1,1.02-2.15,2.24-3.07,3.64.23-.15.46-.3.69-.42.25-.35.51-.7.78-1.04Z"/>
        <path class="cls-1" d="M14.16,33.74c-.68-.43-1.38-.96-2.06-1.56-.1.05-.2.1-.28.16.69.63,1.41,1.18,2.11,1.63.07-.08.15-.15.23-.23Z"/>
        <path class="cls-1" d="M30.58,17.64h.32c-.02-2.05-.37-3.99-.95-5.79-.11.03-.21.06-.31.09.61,1.85.92,3.77.95,5.7Z"/>
        <path class="cls-1" d="M22,1.85c.7.43,1.41.94,2.1,1.54.1-.05.2-.11.28-.16-.71-.63-1.43-1.16-2.16-1.6-.06.08-.14.15-.21.22Z"/>
        <path class="cls-1" d="M29.53,11.64c.1-.03.21-.06.31-.09-.08-.24-.16-.48-.26-.72-.05.16-.1.32-.17.48.04.12.08.22.12.33Z"/>
        <path class="cls-1" d="M10.09,30.07c-.37-.46-.82-1.04-1.27-1.73-.1.05-.2.09-.3.12.47.72.93,1.32,1.32,1.81.55.67,1.13,1.29,1.72,1.84.1-.05.19-.11.29-.17-.6-.56-1.2-1.19-1.76-1.87Z"/>
        <path class="cls-1" d="M26.23,5.63c.08.11.16.22.25.33.14,0,.28.01.42.03-.72-.95-1.48-1.8-2.27-2.54-.09.06-.19.12-.29.17.66.6,1.29,1.28,1.88,2.01Z"/>
        <path class="cls-1" d="M14.12,1.84c-.08-.08-.15-.15-.22-.22-.73.43-1.46.97-2.17,1.6.09.06.18.11.28.17.69-.61,1.4-1.13,2.11-1.55Z"/>
        <path class="cls-1" d="M26.01,30.07c-.56.68-1.15,1.31-1.75,1.87.1.04.19.1.28.16.59-.56,1.16-1.17,1.71-1.83.39-.47.83-1.05,1.28-1.73-.1-.04-.21-.08-.3-.12-.43.65-.86,1.2-1.23,1.65Z"/>
        <path class="cls-1" d="M30.9,17.64h-.32c0,.07,0,.14,0,.21,0,.04,0,.07,0,.12h.32s0-.08,0-.12c0-.08,0-.14,0-.21Z"/>
        <path class="cls-1" d="M5.52,17.86v-.21h-.32v.33h.32v-.12Z"/>
        <path class="cls-1" d="M21.66,4.35c.08-.02.17-.05.24-.07-.4-.61-.8-1.16-1.19-1.65-.08.03-.15.06-.24.09.39.48.79,1.02,1.19,1.63Z"/>
        <path class="cls-1" d="M14.45,4.35c.41-.61.82-1.16,1.19-1.64-.08-.03-.16-.06-.24-.09-.39.49-.8,1.04-1.21,1.65.09.03.17.05.26.07Z"/>
        <path class="cls-1" d="M25.37,23.06c-.31,1.19-.67,2.31-1.07,3.32.13-.12.28-.25.4-.37.35-.9.67-1.88.91-2.91-.08,0-.17-.03-.25-.04Z"/>
        <path class="cls-1" d="M10.32,20.96c-.01-.14-.03-.28-.05-.41-.08-.03-.17-.07-.28-.11.08.66.19,1.29.32,1.92,0-.19,0-.38,0-.58,0-.25,0-.53.01-.81Z"/>
        <path class="cls-1" d="M10.69,12.89c-.08-.02-.17-.04-.27-.04-.35,1.48-.57,3.1-.59,4.79h.26c.02-1.65.24-3.24.6-4.76Z"/>
        <path class="cls-1" d="M9.83,17.97c0,.31.01.63.03.92.1.07.19.13.27.18-.02-.37-.04-.74-.04-1.11h-.26Z"/>
        <path class="cls-1" d="M12.16,8.54c-.1-.01-.19-.04-.27-.06-.53,1.22-1.01,2.57-1.38,4.05.08.02.17.03.25.04.37-1.43.84-2.79,1.4-4.03Z"/>
        <path class="cls-1" d="M25.68,22.79c.12-.51.22-1.03.31-1.56-.09-.03-.15-.06-.24-.09-.09.54-.19,1.09-.32,1.61.1.01.17.02.25.04Z"/>
        <path class="cls-1" d="M25.98,16.51c.02.38.03.76.03,1.14h.26c0-.46-.03-.93-.06-1.37-.06.06-.11.11-.16.16-.03.03-.06.05-.07.07Z"/>
        <path class="cls-1" d="M25.41,12.87c.13.56.24,1.11.34,1.69.08-.08.14-.17.22-.26-.08-.51-.19-1-.3-1.47-.08,0-.17.02-.26.04Z"/>
        <path class="cls-1" d="M13.66,30.11c-.16-.26-.32-.54-.47-.83-.18-.15-.37-.31-.54-.48.26.52.53.99.79,1.44.18.28.35.57.53.84.08-.03.17-.04.26-.07-.19-.29-.38-.58-.56-.9Z"/>
        <path class="cls-1" d="M18.32,35.05c.17,0,.33-.02.5-.02.48-.36,1.08-.97,1.73-1.77-.09-.03-.17-.05-.26-.08-.85,1.01-1.57,1.64-1.98,1.87Z"/>
        <path class="cls-1" d="M25.98,19.2c.08.03.16.06.24.1.03-.43.04-.88.05-1.32h-.26c0,.42,0,.82-.03,1.23Z"/>
        <path class="cls-1" d="M23.79,8.19c.08-.01.17-.04.27-.06-.06-.12-.11-.23-.17-.34-.08.03-.16.07-.23.1.05.1.08.2.13.3Z"/>
        <path class="cls-1" d="M21.7,31.28c-.41.61-.81,1.15-1.19,1.63.08.04.17.07.25.1.39-.49.8-1.05,1.2-1.66-.08-.03-.17-.05-.25-.07Z"/>
        <path class="cls-1" d="M25.33,12.55c.1-.02.17-.03.27-.04-.37-1.48-.86-2.86-1.4-4.08-.09.03-.18.04-.27.06.57,1.24,1.04,2.61,1.41,4.05Z"/>
        <path class="cls-1" d="M14.26,4.62c-.08-.02-.17-.05-.24-.06-.21.29-.39.59-.58.91-.46.78-.95,1.69-1.41,2.71.08.01.17.03.26.05.61-1.36,1.3-2.57,1.98-3.62Z"/>
        <path class="cls-1" d="M14.4,31.28c-.08.03-.17.05-.26.08.4.61.81,1.16,1.21,1.66.09-.03.17-.06.25-.1-.39-.47-.79-1.02-1.2-1.63Z"/>
        <path class="cls-1" d="M22.44,30.11c-.18.31-.37.61-.56.89.09.02.17.05.25.07.18-.27.34-.55.53-.83.26-.45.53-.93.81-1.46-.15.09-.29.2-.44.29-.2.37-.4.72-.59,1.04Z"/>
        <path class="cls-1" d="M22.95,6.5c.09-.03.17-.04.25-.07-.18-.35-.37-.65-.54-.95-.19-.32-.38-.62-.57-.91-.08.02-.16.04-.25.06.37.57.74,1.21,1.11,1.87Z"/>
        <path class="cls-1" d="M15.81,33.18c-.09.03-.17.06-.26.1.67.8,1.29,1.42,1.76,1.77.16,0,.32,0,.48,0-.41-.21-1.13-.85-1.98-1.87Z"/>
        <path class="cls-1" d="M26.01,17.86v.12h.26v-.33h-.26v.21Z"/>
        <path class="cls-1" d="M10.09,17.86c0-.08,0-.14,0-.21h-.26v.33h.26s0-.08,0-.12Z"/>
        <path class="cls-1" d="M15.4,2.62c.07-.09.14-.18.21-.26-.47-.18-.88-.41-1.2-.69-.09.06-.18.12-.29.18.35.31.77.57,1.28.78Z"/>
        <path class="cls-1" d="M20.71,2.62c.51-.2.95-.47,1.3-.77-.1-.06-.2-.12-.3-.17-.32.27-.73.5-1.21.68.07.08.13.17.21.26Z"/>
        <path class="cls-1" d="M18.23,3.11c.8-.03,1.56-.16,2.23-.4-.07-.09-.14-.18-.21-.26-.6.19-1.29.31-2.02.32v.34Z"/>
        <path class="cls-1" d="M17.91,3.11v-.34c-.74,0-1.43-.13-2.05-.33-.08.09-.15.18-.22.27.67.23,1.45.38,2.27.41Z"/>
        <path class="cls-1" d="M18.23,3.11v-.34c-.05,0-.11.01-.17.01s-.1,0-.16-.01v.34h.33Z"/>
        <path class="cls-1" d="M20.71,2.62c-.08-.09-.14-.18-.21-.26-.08.03-.16.06-.25.09.07.09.14.17.21.26.09-.03.16-.06.24-.09Z"/>
        <path class="cls-1" d="M15.86,2.44c-.08-.02-.17-.05-.25-.08-.07.08-.14.17-.21.26.08.03.16.06.24.09.07-.09.14-.18.22-.27Z"/>
        <path class="cls-1" d="M22.09,4.56c.84-.24,1.6-.56,2.26-.94-.09-.08-.16-.15-.25-.23-.63.36-1.38.66-2.2.88.07.09.14.19.19.29Z"/>
        <path class="cls-1" d="M14.19,4.27c-.81-.22-1.55-.52-2.18-.88-.08.07-.17.14-.26.23.67.38,1.42.69,2.27.94.06-.1.11-.2.17-.29Z"/>
        <path class="cls-1" d="M11.49,3.45c.08-.08.15-.15.24-.23-.48-.31-.9-.64-1.23-1.02-.1.05-.2.09-.31.14.34.4.79.77,1.3,1.1Z"/>
        <path class="cls-1" d="M18.23,5.1c1.27-.01,2.5-.18,3.61-.48-.06-.09-.12-.19-.18-.28-1.05.27-2.21.42-3.43.42v.33Z"/>
        <path class="cls-1" d="M17.91,5.1v-.33c-1.23,0-2.4-.16-3.46-.42-.06.08-.12.18-.18.28,1.11.3,2.35.47,3.64.48Z"/>
        <path class="cls-1" d="M24.38,3.23c.09.07.17.15.26.22.43-.28.83-.59,1.14-.94-.1-.05-.21-.1-.3-.15-.3.31-.67.6-1.1.86Z"/>
        <path class="cls-1" d="M18.23,5.1v-.33c-.05,0-.11,0-.17,0s-.1,0-.16,0v.33c.05,0,.1,0,.16,0s.12,0,.17,0Z"/>
        <path class="cls-1" d="M12.01,3.39c-.1-.06-.19-.11-.28-.17-.09.08-.17.15-.24.23.08.06.17.11.26.17.09-.08.18-.16.26-.23Z"/>
        <path class="cls-1" d="M24.35,3.62c.1-.05.19-.11.29-.17-.08-.08-.17-.15-.26-.22-.08.06-.18.11-.28.16.09.08.16.15.25.23Z"/>
        <path class="cls-1" d="M14.45,4.35c-.09-.02-.17-.05-.26-.07-.06.09-.12.19-.17.29.07.02.16.04.24.06.07-.1.13-.19.18-.28Z"/>
        <path class="cls-1" d="M22.09,4.56c-.05-.1-.12-.2-.19-.29-.07.02-.16.05-.24.07.07.09.13.19.18.28.09-.02.17-.05.25-.06Z"/>
        <path class="cls-1" d="M8.41,7.1c-1.08-.46-2-.99-2.66-1.6-.07.08-.16.15-.23.23.66.6,1.54,1.13,2.6,1.59.09-.08.19-.16.3-.22Z"/>
        <path class="cls-1" d="M17.91,9.01v-.25c-1.99,0-3.89-.19-5.62-.52-.04.09-.08.2-.13.3,1.73.34,3.65.53,5.64.55.03-.03.08-.05.11-.07Z"/>
        <path class="cls-1" d="M28.89,6.77c.51-.28.95-.59,1.34-.91-.08-.08-.16-.16-.23-.23-.39.33-.87.64-1.39.92.1.08.19.14.27.22Z"/>
        <path class="cls-1" d="M21.88,8.84c.71-.09,1.39-.21,2.05-.34-.04-.11-.08-.2-.13-.31-.37.07-.76.14-1.16.2-.25.14-.51.29-.76.44Z"/>
        <path class="cls-1" d="M12.03,8.18c-.72-.15-1.39-.32-2.04-.51-.1.07-.19.15-.29.23.69.23,1.43.42,2.2.58.06-.09.09-.19.14-.3Z"/>
        <path class="cls-1" d="M18.29,8.76h-.06v.04s.03-.03.06-.04Z"/>
        <path class="cls-1" d="M24.19,8.44c1.21-.26,2.33-.6,3.31-1-.01-.02-.01-.03-.03-.05-.14-.05-.28-.1-.42-.12-.9.35-1.92.64-2.99.87.04.1.09.2.13.3Z"/>
        <path class="cls-1" d="M5.75,5.5c-.07-.06-.13-.12-.19-.17l-.22.23c.06.06.12.11.18.17.07-.08.16-.15.23-.23Z"/>
        <path class="cls-1" d="M30.23,5.85c.08-.06.16-.13.22-.2l-.21-.23c-.08.07-.17.14-.24.21.07.07.15.15.23.23Z"/>
        <path class="cls-1" d="M18.23,8.76h-.33v.25c.1-.08.21-.15.33-.22v-.04Z"/>
        <path class="cls-1" d="M27.55,7.41s-.05-.02-.08-.02c.02.02.02.03.03.05.01,0,.02-.02.04-.02Z"/>
        <path class="cls-1" d="M23.79,8.19c.05.1.09.2.13.31.09-.03.18-.04.27-.06-.04-.1-.09-.2-.13-.3-.1.02-.19.04-.27.06Z"/>
        <path class="cls-1" d="M12.16,8.54c.04-.1.08-.21.13-.3-.08-.02-.18-.04-.26-.05-.05.1-.08.2-.14.3.09.02.17.05.27.06Z"/>
        <path class="cls-1" d="M16.72,13.41c.39.01.79.02,1.19.02v-.32c-.33,0-.66,0-.98-.01-.07.1-.14.2-.21.31Z"/>
        <path class="cls-1" d="M10.51,12.53c-1.14-.18-2.23-.41-3.25-.67-.03.11-.04.21-.06.32,1.02.27,2.09.48,3.22.67.03-.11.06-.22.09-.32Z"/>
        <path class="cls-1" d="M27.25,12.53c.09-.12.17-.26.24-.38-.61.13-1.25.26-1.9.36.03.11.06.21.07.32.55-.09,1.08-.19,1.59-.3Z"/>
        <path class="cls-1" d="M13.63,12.92c-.98-.09-1.94-.2-2.86-.35-.02.11-.06.21-.07.32.87.13,1.77.25,2.7.33.09-.1.16-.2.24-.3Z"/>
        <path class="cls-1" d="M18.23,13.43c2.5,0,4.93-.21,7.18-.56-.02-.1-.04-.21-.08-.32-2.21.35-4.61.54-7.09.55v.32Z"/>
        <path class="cls-1" d="M5.41,11.31c-1.12-.38-2.12-.82-2.98-1.31-.04.1-.09.2-.14.3.87.48,1.91.93,3.04,1.32.02-.1.05-.21.07-.31Z"/>
        <path class="cls-1" d="M29.07,12.1c.19-.06.38-.1.56-.16-.03-.1-.08-.21-.1-.31-.1.03-.19.06-.29.08-.05.13-.11.25-.17.38Z"/>
        <path class="cls-1" d="M29.95,11.85c1.3-.4,2.47-.86,3.47-1.38-.05-.1-.1-.2-.14-.29-.98.51-2.13.97-3.43,1.36.04.1.08.2.11.31Z"/>
        <path class="cls-1" d="M2.17,9.85l-.17.28c.1.06.19.11.3.18.06-.1.1-.2.14-.3-.09-.05-.18-.11-.27-.16Z"/>
        <path class="cls-1" d="M33.64,10.35l-.15-.29c-.07.04-.13.09-.21.13.05.09.1.18.14.29.08-.04.16-.09.23-.13Z"/>
        <path class="cls-1" d="M18.02,13.11h-.12v.32h.33v-.32h-.21Z"/>
        <path class="cls-1" d="M29.64,11.95c.1-.03.21-.06.31-.09-.03-.1-.06-.2-.11-.31-.1.03-.21.06-.31.09.03.1.07.21.1.31Z"/>
        <path class="cls-1" d="M10.76,12.57c-.09-.02-.17-.02-.25-.04-.03.11-.06.22-.09.32.09,0,.18.02.27.04.02-.1.05-.21.07-.32Z"/>
        <path class="cls-1" d="M25.41,12.87c.09-.02.17-.03.26-.04-.02-.11-.04-.21-.07-.32-.09.01-.17.02-.27.04.04.11.06.22.08.32Z"/>
        <path class="cls-1" d="M18.23,32.83c.74.02,1.44.14,2.07.35.07-.08.14-.18.21-.27-.68-.24-1.45-.38-2.28-.4v.32Z"/>
        <path class="cls-1" d="M15.6,32.92c.07.09.14.18.21.26.63-.21,1.34-.33,2.09-.35v-.32c-.84.02-1.62.16-2.3.41Z"/>
        <path class="cls-1" d="M20.76,33.01c-.07.09-.14.17-.2.25.44.18.81.4,1.13.65.09-.06.19-.12.29-.18-.34-.28-.74-.52-1.21-.72Z"/>
        <path class="cls-1" d="M15.35,33.02c-.47.2-.88.44-1.19.72.09.07.18.12.28.18.31-.25.68-.47,1.12-.64-.06-.08-.14-.17-.21-.26Z"/>
        <path class="cls-1" d="M21.92,34.13c.11.11.2.24.28.36.11-.03.22-.05.32-.09-.09-.15-.2-.3-.33-.44-.09.06-.18.12-.27.17Z"/>
        <path class="cls-1" d="M13.92,33.97c-.15.17-.29.36-.39.55.1.02.22.06.33.08.09-.16.2-.32.34-.46-.1-.06-.18-.11-.28-.17Z"/>
        <path class="cls-1" d="M18.06,32.51h-.16v.32c.05,0,.1,0,.16,0s.12,0,.17,0v-.32h-.17Z"/>
        <path class="cls-1" d="M13.92,33.97c.1.06.18.11.28.17.06-.08.15-.15.24-.22-.1-.07-.19-.12-.28-.18-.08.08-.16.15-.23.23Z"/>
        <path class="cls-1" d="M21.97,33.73c-.1.06-.2.12-.29.18.09.07.16.15.24.22.09-.06.19-.11.27-.17-.07-.07-.15-.15-.23-.22Z"/>
        <path class="cls-1" d="M20.3,33.18c.08.03.16.06.26.08.06-.08.13-.17.2-.25-.08-.03-.17-.06-.25-.1-.07.09-.14.19-.21.27Z"/>
        <path class="cls-1" d="M15.6,32.92c-.08.04-.17.07-.25.1.07.09.14.18.21.26.08-.03.17-.06.26-.1-.06-.09-.14-.17-.21-.26Z"/>
        <path class="cls-1" d="M11.82,32.34c-.09-.07-.17-.15-.25-.23-.55.35-1.01.73-1.37,1.17.1.05.19.1.3.16.35-.41.79-.77,1.33-1.1Z"/>
        <path class="cls-1" d="M24.54,32.1c-.08.08-.16.15-.24.22.46.28.85.59,1.19.93.09-.04.19-.1.3-.16-.35-.36-.76-.69-1.25-.99Z"/>
        <path class="cls-1" d="M19.7,30.6c-.37.11-.76.19-1.15.25,1.11.03,2.18.18,3.15.43.06-.1.13-.18.18-.28-.68-.19-1.42-.32-2.19-.4Z"/>
        <path class="cls-1" d="M15.74,30.69c-.53.07-1.04.19-1.52.31.05.1.12.19.18.28.75-.2,1.56-.33,2.4-.39-.35-.04-.7-.12-1.06-.2Z"/>
        <path class="cls-1" d="M21.96,31.35c.75.22,1.45.49,2.05.82.09-.08.17-.16.25-.23-.62-.36-1.33-.65-2.12-.87-.06.09-.12.19-.18.28Z"/>
        <path class="cls-1" d="M13.96,31.07c-.79.23-1.49.53-2.11.87.08.08.16.16.25.24.6-.33,1.29-.61,2.04-.82-.06-.1-.12-.19-.18-.29Z"/>
        <path class="cls-1" d="M10.02,33.5l.25.18c.06-.08.15-.17.21-.25-.1-.06-.2-.1-.3-.16-.06.07-.13.14-.17.22Z"/>
        <path class="cls-1" d="M25.79,33.61l.27-.2c-.08-.11-.17-.22-.27-.32-.1.06-.21.11-.3.16.11.12.21.25.3.36Z"/>
        <path class="cls-1" d="M24.01,32.17c.1.05.19.11.29.16.08-.07.17-.14.24-.22-.09-.06-.19-.12-.28-.16-.08.07-.16.15-.25.23Z"/>
        <path class="cls-1" d="M11.85,31.94c-.1.05-.19.11-.29.17.08.08.17.16.25.23.09-.05.19-.11.28-.16-.08-.08-.17-.16-.25-.24Z"/>
        <path class="cls-1" d="M21.7,31.28c.09.02.17.04.25.07.07-.09.12-.19.18-.28-.09-.02-.17-.05-.25-.07-.06.1-.12.19-.18.28Z"/>
        <path class="cls-1" d="M13.96,31.07c.06.1.12.18.18.29.09-.03.18-.05.26-.08-.06-.09-.12-.18-.18-.28-.09.03-.18.04-.26.07Z"/>
        <path class="cls-1" d="M8.34,28.2c-1.15.47-2.12,1.05-2.83,1.69.07.07.15.16.23.23.7-.63,1.64-1.18,2.78-1.65-.05-.09-.12-.18-.18-.27Z"/>
        <path class="cls-1" d="M24.89,27.67c.84.22,1.63.47,2.34.75.06-.09.12-.19.19-.27-.7-.28-1.45-.52-2.24-.73-.11.08-.2.17-.29.25Z"/>
        <path class="cls-1" d="M27.54,28.54c.99.42,1.82.91,2.47,1.45.08-.07.16-.15.24-.23-.67-.56-1.53-1.07-2.54-1.5-.06.1-.12.18-.17.27Z"/>
        <path class="cls-1" d="M11.44,27.23c-1.02.23-1.95.51-2.8.85.06.1.12.18.18.27.84-.33,1.79-.6,2.79-.83-.06-.09-.12-.19-.17-.29Z"/>
        <path class="cls-1" d="M18.23,26.86c1.7.02,3.36.16,4.9.43.13-.08.24-.17.35-.26-1.64-.3-3.42-.48-5.25-.5v.33Z"/>
        <path class="cls-1" d="M17.91,26.53c-1.19,0-2.38.07-3.51.2.04.11.07.21.12.31,1.09-.11,2.22-.18,3.39-.18v-.33Z"/>
        <path class="cls-1" d="M5.52,29.89c-.06.06-.12.1-.18.16l.22.24c.06-.05.12-.11.18-.17-.08-.07-.16-.15-.23-.23Z"/>
        <path class="cls-1" d="M30.25,30.19l.21-.23c-.07-.06-.15-.13-.21-.19-.08.08-.16.15-.24.23.08.07.16.14.24.2Z"/>
        <path class="cls-1" d="M17.91,26.53v.33h.33v-.33h-.33Z"/>
        <path class="cls-1" d="M27.23,28.42c.1.04.21.08.3.12.06-.09.11-.18.17-.27-.1-.05-.19-.08-.29-.12-.06.09-.13.18-.19.27Z"/>
        <path class="cls-1" d="M8.65,28.07c-.11.04-.21.08-.3.12.06.09.13.18.18.27.1-.04.2-.08.3-.12-.06-.09-.12-.17-.18-.27Z"/>
        <path class="cls-1" d="M27.98,23.56c.52.12,1.04.25,1.52.4.04-.1.07-.2.11-.31-.5-.14-1-.28-1.54-.4-.03.11-.05.21-.09.31Z"/>
        <path class="cls-1" d="M10.33,22.78c-1.37.22-2.66.51-3.84.85.03.11.06.21.11.31,1.15-.33,2.41-.61,3.74-.83,0-.1,0-.21-.02-.32Z"/>
        <path class="cls-1" d="M6.18,23.72c-1.49.45-2.8.98-3.89,1.59.04.1.1.19.14.29,1.07-.6,2.38-1.13,3.86-1.58-.04-.09-.07-.2-.11-.3Z"/>
        <path class="cls-1" d="M21.16,22.61c1.45.08,2.86.24,4.21.45.03-.1.04-.21.07-.31-1.27-.2-2.61-.36-3.99-.45-.1.1-.2.2-.28.31Z"/>
        <path class="cls-1" d="M17.91,22.19c-1.33,0-2.64.05-3.89.16-.02.11-.04.23-.04.32,1.27-.1,2.59-.15,3.92-.16v-.32Z"/>
        <path class="cls-1" d="M29.81,24.05c1.3.4,2.47.86,3.47,1.38.05-.1.09-.2.13-.3-1-.52-2.18-1-3.5-1.39-.03.11-.08.2-.1.31Z"/>
        <path class="cls-1" d="M19.59,22.54c.04-.11.08-.22.12-.32-.48-.02-.99-.02-1.48-.03v.32c.45,0,.91.02,1.36.03Z"/>
        <path class="cls-1" d="M25.61,23.1c.37.06.72.12,1.08.2.03-.11.06-.21.09-.32-.36-.06-.72-.13-1.1-.19-.02.11-.04.21-.07.31Z"/>
        <path class="cls-1" d="M2,25.49l.17.27c.09-.05.19-.1.27-.16-.05-.1-.1-.19-.14-.29-.11.06-.19.11-.29.17Z"/>
        <path class="cls-1" d="M33.47,25.54l.16-.28c-.07-.03-.15-.08-.22-.12-.04.1-.08.2-.13.3.07.03.13.06.19.1Z"/>
        <path class="cls-1" d="M17.91,22.19v.32h.33v-.32h-.33Z"/>
        <path class="cls-1" d="M29.49,23.96c.11.03.2.06.32.09.02-.1.07-.2.1-.31-.1-.03-.21-.06-.31-.09-.04.1-.07.21-.11.31Z"/>
        <path class="cls-1" d="M6.49,23.64c-.11.03-.21.06-.31.09.04.1.07.21.11.3.1-.02.2-.06.31-.08-.05-.1-.09-.2-.11-.31Z"/>
        <path class="cls-1" d="M25.61,23.1c.03-.11.05-.21.07-.31-.08-.02-.15-.03-.25-.04-.03.1-.04.21-.07.31.07.01.17.04.25.04Z"/>
        <path class="cls-1" d="M11.54,6.19c.73-.04.88.25,0,.45-1.25.27-2.92,1.68-3.74,3.08-1.3,2.22-1.16,5.62.05,7.47,1.14,1.73,2.87,2.48,2.87,2.48,0,0,.37-1.85,1.84-4.7,1.51-2.92,4.91-5.96,9.09-7.74,1.79-.76,3.59-1.18,5.46-1.01,1.53.14,2.67,1.49,2.59,3.05-.07,1.46-1.47,4.69-3.82,7-3.74,3.68-7.87,4.79-11.91,4.6-.59,3.29-.14,5.74.81,7.14,1.24,1.84,3.66,2.32,6.3.84,6.65-3.74,7.63-8.04,3.59-8.11-2.44-.04-3.94,1.7-4.42,2.89-.48,1.2-.43,1.54-.46,2.08-.04.49-.32.42-.36-.09-.05-.6-.03-2.84.96-4.14,1.52-2.02,4.62-2.79,6.03-1.8,4.14,2.89-1.11,7.55-3,8.84-2.81,1.94-6.29,3.09-9.2,1.22-2.56-1.66-3.95-3.9-3.65-9.33,0,0-2.14-.69-3.71-2.64-2.01-2.49-1.93-6.79.13-9.08,1.61-1.79,3.17-2.43,4.55-2.5ZM18.58,10.91c-2.39,2.01-3.85,5.24-4.56,9.43,0,0,2.49.27,5.25-.71,3.8-1.34,8.8-6.36,9.44-9.91.38-2.01-.84-2.77-2.48-2.75-2.05.04-5.29,1.94-7.65,3.94Z"/>
      </g>
      <g>
        <path class="cls-1" d="M42.27,19.6c1.14,0,3.98-.12,4.59-.15l4.27-.19-.44-5.41-2.43.12c-.32.02-4.03.22-4.83.27l-.05-1.68c2.43-.05,3.45-.1,4.76-.15l2.43-.1-.17-1.94c-.02-.17-.15-1.55-.27-2.5l3.33.1c.36,0,.36.05.36.12.02.17.02.97.05,1.14l.24,2.91,2.45-.12c1.19-.05,3.37-.17,4.49-.29l.05,1.7c-.7.02-3.86.1-4.3.12l-2.55.12.46,5.41,3.3-.15c.51-.02,3.64-.19,4.83-.32l.02,1.68c-1.48.05-4.01.15-4.73.17l-3.3.15.17,1.94c.17,1.92.46,5.1.56,5.73l-3.71.27c-.02-1.04-.15-2.26-.39-5.32l-.19-2.45-4.32.22c-.61.02-4.15.24-4.66.32l-.02-1.72Z"/>
        <path class="cls-1" d="M72.3,15.52c-.02-.17-.56-2.86-.61-3.03l2.72-.17c.19,0,.29,0,.29.05s-.05.24-.05.29c0,.17.02.27.05.41l.58,3.25,4.98-.49c.24-.02,1.17-.12,2.43-.32l1.09,1.09c-.22.32-.36.58-.49.78-1.72,3.11-4.18,4.61-5.05,5.15l-1-.97c1.29-1.21,2.48-2.99,2.77-4.3.02-.1-.02-.12-.29-.1l-4.2.39,1.43,7.87c.34,1.82.41,2.23.56,2.91l-2.94.51c-.1-.8-.34-2.23-.39-2.55l-1.48-8.47-2.74.27c-.53.05-1.94.22-3.08.34l-.07-1.38c1-.02,2.01-.1,3.01-.19l2.67-.27-.19-1.07Z"/>
        <path class="cls-1" d="M92.65,16.15c3.88-.73,8.33-2.23,10.61-3.91l1.89,2.31c.1.12.27.34.27.44,0,.12-.7.19-.83.22-4.81,1.75-9.98,2.43-11.94,2.69l-.02,6.07c0,1.51.29,2.38,3.57,2.38h2.38c.56,0,3.88,0,7.19-.66v2.18c-2.52.07-7.19.12-7.94.12h-2.4c-5.49,0-6.36-1.65-6.34-4.3l.07-12.45c0-.9-.02-2.23-.05-3.11l3.2.19c.49.02.53.1.53.19,0,.12-.15.68-.15.83l-.05,6.8ZM104.98,6.44c1.34,0,2.48,1.09,2.48,2.5s-1.12,2.5-2.48,2.5-2.48-1.12-2.48-2.5,1.14-2.5,2.48-2.5ZM104.98,7.73c-.68,0-1.21.56-1.21,1.21s.53,1.21,1.21,1.21c.63,0,1.19-.51,1.19-1.21s-.56-1.21-1.19-1.21Z"/>
        <path class="cls-1" d="M112.05,26.98c5.63-.8,8.23-2.48,10.58-4.69-1.41-2.02-3.16-3.62-5.29-4.86l.92-1.24c1.55.51,3.67,1.26,6.34,3.4,1.53-2.72,1.99-4.83,2.33-6.92h-7.26c-2.26,3.5-4.49,5.12-7.4,6.68l-1-1.31c2.96-1.89,4.76-4.52,5.78-8.04.41-1.46.46-2.11.49-2.5l3.5.92c.15.05.51.15.51.29,0,.07-.27.39-.29.49-.27.73-.51,1.41-.75,1.94h4.98c.46,0,3.71-.07,4.1-.12l1.38,1.19c-.95,3.57-1.63,6.12-3.42,8.79-4.08,6.04-10.88,7.06-14.81,7.57l-.68-1.6Z"/>
        <path class="cls-1" d="M141.4,16.27c0,2.45-.44,5.61-1.7,7.62-1.8,2.82-4.42,4.01-5.75,4.59l-.9-1.29c3.93-2.5,4.95-5.85,4.95-10.83v-5.24c0-.34-.02-2.67-.05-2.91l3.2.22c.15.02.41.07.41.29,0,.1-.15.51-.17.63v6.92ZM143.73,10.79c0-.39,0-2.06-.07-2.65l3.33.24c.12,0,.41.02.41.17,0,.12-.17.61-.17.73v13.98c3.79-1.7,5.36-4.01,6.43-6.36l1.26.9c-.63,1.63-2.4,6.21-7.31,9.06-.32.17-1.89.95-2.26,1.12l-1.77-1.87c.12-1.09.15-1.97.15-3.84v-11.48Z"/>
        <path class="cls-1" d="M179.47,10.81c-.15.24-.9,1.46-1.07,1.72-1.12,1.63-2.86,3.88-5.88,6.24l-1.29-1.12c2.82-3.11,3.69-6.46,3.69-6.55,0-.05-.15-.05-.22-.05l-11.19.02c-.78,0-3.54.05-4.27.1v-1.7c.78.05,3.52.07,4.27.07l11.24-.02c.83,0,2.45-.05,3.25-.17l1.46,1.46ZM166.56,13.46l3.33.15c.15.02.51.02.51.17,0,.12-.1.7-.1.83v1.31c0,7.5-3.67,10.15-10.05,11.68l-.58-1.46c1.75-.41,6.89-1.6,6.89-9.06v-3.62Z"/>
        <path class="cls-1" d="M183.47,13.82c1.65-.05,3.71-.15,4.27-.17l1.34-.05v-2.35c0-.51-.05-2.84-.1-3.28l3.33.24c.41.02.41.1.41.17,0,.1-.12.63-.12.75v4.3l6.04-.32c1.12-.05,2.4-.15,3.59-.32l1.34,1.65c-.17.19-.19.24-.44.58-2.91,4.42-5.68,5.66-7.36,6.43l-1-1.34c1.31-.83,3.2-2.14,4.44-5.51l-6.63.34v8.74c0,1.75.73,2.35,2.79,2.35h2.38c.44,0,2.72-.12,4.78-.53v2.21h-8.38c-3.98,0-5.1-1.36-5.1-3.62v-8.96l-1.38.05c-.9.02-3.16.17-4.22.29v-1.68Z"/>
        <path class="cls-1" d="M210.52,14.18c.97,1.02,2.67,3.01,3.81,5.32l-2.6,1.21c-.29-1.34-.8-3.52-2.33-5.85l1.12-.68ZM225.03,13.24c.1.02.27.05.27.17,0,.07-.12.41-.12.51-.32,1.77-.46,2.67-.85,4.15-2.09,7.84-7.84,9.78-11.14,10.83l-.68-1.17c2.89-.78,9.64-3.93,9.64-14.95l2.89.46ZM216.1,13.14c1.31,1.34,2.55,2.96,3.5,4.73l-2.67,1.04c-.29-1.46-.92-3.54-1.97-5.15l1.14-.63Z"/>
        <path class="cls-1" d="M234.21,10.81c0-1.63-.02-2.4-.05-3.03l3.2.24c.17.02.51.05.51.22,0,.12-.15.73-.15.85v5.73c2.02.41,5.63,1.14,9.98,4.01l-2.5,2.94c-1.09-1.14-3.37-3.57-7.48-5.17v6.77c0,.19.02,4.47.02,5.07h-3.59c.05-1.53.05-3.64.05-5.17v-12.45Z"/>
        <path class="cls-1" d="M250.21,26.64c5.73-1.34,11.97-4.44,13.77-15.27l-9.69.05c-2.28,0-3.25.02-4.22.07v-1.68c1.38.05,2.79.05,4.18.05l9.23-.02c1.31,0,2.33-.02,2.79-.05l1.65,1.65c-.92,3.67-1.5,5.9-3.52,8.84-3.93,5.73-10.17,7.14-13.3,7.87l-.87-1.51ZM269.48,5.91c1.36,0,2.48,1.12,2.48,2.5s-1.14,2.52-2.48,2.52-2.48-1.09-2.48-2.52,1.09-2.5,2.48-2.5ZM269.48,7.19c-.68,0-1.21.56-1.21,1.21s.53,1.24,1.21,1.24,1.19-.56,1.19-1.24c0-.63-.53-1.21-1.19-1.21Z"/>
        <path class="cls-1" d="M274.74,14.06c1.21.05,1.97.07,3.91.07h10.54c.63,0,1.85,0,3.11-.12l1.43,1.09c-.56,2.62-1.07,4.95-2.89,7.33-3.52,4.59-9.1,5.17-11.99,5.49l-.63-1.53c2.31-.29,7.84-1.02,10.29-6.29.85-1.84,1.19-4.2,1.19-4.35,0-.07-.22-.07-.24-.07h-10.8c-1.72,0-3.06.05-3.91.07v-1.7ZM291.32,10.66c-1.65-.05-3.23-.07-3.93-.07h-5.9c-2.31,0-3.35.05-4.22.07v-1.7c1.21.05,3.25.07,4.18.07h5.88c2.23,0,3.4-.05,4.01-.07v1.7Z"/>
        <path class="cls-1" d="M314.5,27.22c-1.94-3.2-4.01-5.07-5.58-6.38-3.16,3.45-6.29,5.03-11.6,6.63l-.66-1.48c1.99-.51,5.17-1.82,7.82-4.32,3.35-3.2,4.78-7.55,5.61-10.44l-7.28.05c-.9,0-3.3.07-4.22.1l-.02-1.7c1.58.07,2.52.1,4.22.07l6.63-.05c.34,0,2.96-.02,3.84-.1l1.19,1.29c-.12.24-1.04,2.48-1.24,2.94-.8,1.89-2.11,4.42-3.11,5.61,1.07.61,4.9,2.84,7.45,5.66l-3.03,2.14Z"/>
      </g>
    </g>
  </g>
</svg>