<?xml version="1.0" encoding="UTF-8"?>
<svg id="Layer_2" data-name="Layer 2" xmlns="http://www.w3.org/2000/svg" viewBox="0 0 125.71 54.24">
  <g id="section">
    <g>
      <path d="M17.95,21.43l.13-.09,1.78-2.82.09-.26.68-.95.03-.04.27-.61.19-.13.95-1.59,1.19-2.09s.03-.08.06-.12l.21-.49.14-.52.37-.55.45-1.02.12-.27.27-.68.12-.34.4-.73.18-.52.21-.49c.18-.49.32-.9.44-1.34l.05-.29.06-.08c.06-.22.08-.47.11-.66l-.17-.22v-.32s-.05-.14-.05-.14l-.08-.38-.05-.38c-.57-.31-1.67-.26-2.18.03l-1.15.66-.35.23h-.06s-1.12.7-1.12.7l-.03.04-.35.23-.13.12-.35.23-.26.11c-.57.37-1.11.76-1.65,1.16h-.03c-.09.09-.19.17-.29.22l-.69.7-.22.24-.29.08-.45.24-.1.05-.19.17-.06.08-1.6,1.62-.1.05-.38.37v.07s-.03,0-.03,0l-1.2,1.13-.13.12-.1.05-.51.32-.31.33v.07s-.34.37-.34.37l-.25.14-.75.78-.16.02-.62.76-.7.56-1.1,1.12-.21.35-.28.29-.12.16-.56.58v.07s-.08.33-.08.33l-.19.1-.32.26-.32.22h-.03s-.16.17-.16.17l-.13.09-.16.09-1.48,1.46-.02.29-.06.22-.41.38-.42.06-.28.25-.03.15-.1.05-.14.52-.05.29c.32-.08.51.46.16.79l-.32.22-.06.08-.03.11-.32.22-.5.5-.32.26-.26-.07-.07-.1c-.06,0-.16.02-.23,0-.27-.1-.37-.27-.38-.51.05-.36.36-.9.79-1.57l.28-.4.03-.08v-.07s.16-.13.16-.13l.09-.12-.07-.17h.06s.25-.22.25-.22h.03s0-.08,0-.08h.1s.18-.32.18-.32l.03-.04.09-.23.19-.17.09-.23.28-.36.32-.15.09-.16.19-.13.22-.14.06-.04.16-.13.12-.16.06-.04.28-.32.12-.16.13-.12.16-.2.09-.08.06-.22.06-.08h.23s1.26-1.21,1.26-1.21v-.04s.34-.37.34-.37l.16-.13.1-.05c.6-.62,1.13-1.09,1.45-1.42l1.29-1.18.06-.08.22-.21.22-.28.19-.17.09-.19.06-.12.51-.29.44-.35.48-.35.6-.51c.19-.17.41-.31.63-.48l.03-.11.22-.24.06-.08.35-.16.09-.12.19-.13.19-.1.73-.64.15-.23.13-.09.19-.21.06-.08.09-.23.06-.08h.26s.26-.11.26-.11h.03s.47-.39.47-.39l.13-.12.22-.32.13.02.1.02c.29-.18.6-.44.92-.67l.06-.15.13-.09.23-.07.16-.16.03.03.09-.08.03-.04.16-.09c.76-.54,1.59-1.08,2.38-1.59l.19-.21.38-.16s.06,0,.1-.05l.22-.14,1.02-.68.52-.15h.1c.06-.02.1-.03.16-.07.61-.26,2.73-1.07,3.32-.16.17.26.25.6.23,1l.11.27v.18s-.08.4-.08.4l-.21.49-.08.58-.09.26-.15.34-.12.23v.21s-.24.32-.24.32l-.03.15-.12.23-.54,1.18v.14s.04.1.04.1l-.19.1-.33.65-.03.15-.09.12h-.03s-.3.69-.3.69c-.81,1.75-1.76,3.31-2.75,4.94l-.03.11h-.06s-.18.35-.18.35l-.46.78v.04s-.34.48-.34.48l-1.16,2.02-.28.4-.95,1.66-.93,1.34-.28.47-.67,1.2-.28.32-.86,1.37-.08.37-.19.03-.46.74-.06.15-.03-.03-.16.2-.08.33-.36.69v.11s-.25.11-.25.11l-.52.93-.27.71-.12.23-.25.25-.12.34-.58,1.01-.15.45-.31.47-.21.39.41-.48h.03c.4-.6.83-1.23,1.33-1.87v-.04s.21-.42.21-.42l.34-.41.24-.53.16-.2.18-.31.31-.29.34-.44.63-.62.03-.04.13-.09c.03-.08.09-.16.15-.2l.12-.37h.03s.06-.08.06-.08l.16-.02.34-.48.06-.08.06-.12.1-.05c.75-.96,1.49-1.85,2.27-2.78l.27-.54.28-.25v.07s1.19-1.38,1.19-1.38l.03-.04.31-.36h.03s.41-.45.41-.45l.12-.23.69-.67.82-.83.06-.08.41-.49.19-.13c.19-.24.44-.42.66-.63v-.04s.06-.04.06-.04l.16-.13.03-.15.22-.17.19-.21.75-.75.12-.23.19-.03v.04s.51-.46.51-.46l.34-.4.09-.19.22-.17.09-.19.22-.24.09-.08.89-.48.67-.52.22-.25.13-.12.7-.49.22-.14h.03c.13-.09.25-.22.38-.34l.12-.16.48-.35.12-.16.13-.02.48-.35.13-.12.22-.21.48-.18.03.03c.58-.3,1.12-.48,1.61-.44.23.04.36.09.44.29.04.21.05.42.02.6h.03s.14.12.14.12l.07.13.04.17h-.03s-.02.29-.02.29l.03-.04.04.07-.03.15-.02.25-.09.26-.03.04v.04s-.06.08-.06.08l-.03.11.07.06h-.06s-.12.17-.12.17h-.03s-.06.05-.06.05l-.06.12h-.1s-.06.06-.06.06l-.19.24-.02.22-.09.19-.25.25-.33.62v.07s-.03,0-.03,0l-.03.04-.03.11-.06.19-.21.39-.14.55-.15.23-.09.08-.15.23-.12.23-.12.2-.22.28-.03.08-.03.11-.03.04h-.06s-.34.56-.34.56l-.06.15-.22.32-.12.23-.4.59-.06.15-.31.47-1.34,2.36-.09.26-.03.04v.04s-.06.08-.06.08l-.03.11.07.06h-.06s-.12.17-.12.17v.07s-.16.13-.16.13l-.06.12-.06.04-.16.2s-.03.04-.03.07l-.03.18-.09.19-.16.17-.13.12-.43.74-.03.11-.03-.03-.12.2-.05.36-.33.72v.14s-.15.09-.15.09l-.45,1.06-.23.71-.12.3-.15.27-.12.37-.83,1.43-.11.48-.31.54-.18.49-.49,1.67h.16s.03-.06.03-.06l.25-.32.27-.5.22-.21.28-.25.16-.2.16-.13-.1-.06.03-.11.09-.08h.03s.03.03.03.03l-.06.12.06-.08.19-.13.06-.12h.1s.44-.47.44-.47l.09-.16.25-.25.19-.24.5-.5.06-.12,1.13-1.16.15-.2.16-.13.03-.08.32-.29.25-.32.38-.37.19-.1.13-.09.19-.24.07.03.09-.19.19-.17.06-.15.19-.13.44-.42.12-.16.19-.17.03-.08.19-.21.03-.08h.03s.03-.04.03-.04l-.19.03.06-.26.22-.14h.1s.07.01.07.01h.1s.06-.09.06-.09l.09-.08.03-.11.16-.13.03-.04h.03s1.62-1.91,1.62-1.91l.06-.12.09-.12.12-.23.09-.12.02-.22.06-.08.23-.07.22-.17.13-.09.16-.16.06-.08.56-.61,1.6-1.72.18-.31.41-.31.03-.11.5-.6.19-.06.13-.12.06-.19.03-.04h.03s1.94-2.13,1.94-2.13l.38-.27.09-.26.38-.3,1.63-1.69.18-.45.32-.05,1.1-1.19.03-.04.56-.65.09-.16,1.32-1.36.16-.2.22-.17.03-.11.31-.36.13-.05.06-.15q.88-.8,1.75-1.85l.25-.18.78-.86.12-.27.13-.02.19-.1.44-.42.03-.15.15-.27.1-.05.35-.19.09-.16.19-.1.06-.04.79-.72.15-.31.13-.12.16-.17.13-.12.02-.22.06-.04.26-.04.22-.14.54-.26.45-.14c.45-.21,1.19-.49,1.76-.04l.1-.05.1.06.07.1.03-.04.03.03-.03.04v.07s.04.1.04.1l.07.17v.18c.04.1.08.24.09.38l.18.37v.28s-.02.11-.02.11l-.14.52-.03.04-.07.65.04.07.04.17h-.03s-.02.29-.02.29l.03-.04.04.07-.03.15-.02.25-.09.26-.03.04v.03s-.06.08-.06.08l-.03.11.07.06h-.07s-.12.17-.12.17h-.03s-.06.05-.06.05c-.17.66-.37,1.3-.58,1.9l-.08.54-.13.8-.5,1.39-.21.39-.47,1.31-.21.39-.18.38-.57,1.4-.18.45-.03.04c-.53,1.39-1.13,2.83-1.73,4.23l-.9,2.16-.09.19h-.06s-.18.5-.18.5v.39s-.14.13-.14.13l-.19.1-.33.72-.29.82-.12.12-.18.42-.15.41-.19.27.23-.03.04.28-.12.19h-.1s-.07-.05-.07-.05v-.18s-.07.15-.07.15l-.28.25.11.2-.06.08-.13.02-.48.96-.02.22-.3.61-.15.38-.51,1.03-.02.25-1.21,2.38-.08.37-.18.35v.11s-.33.65-.33.65l-.16.13-.02.22-.48.96-.13.12-.15.24-.13.05-.02.29-.15.23h-.1s-.08.42-.08.42l-.15.31-.06.22-.18.35-.28.36-.24.43-.54,1.25v.18s-.09.01-.09.01v.11s-.03,0-.03,0l-.18.49-.15.38h-.03c-.63,1.37-1.14,2.66-1.64,4.08v.18s-.08.26-.08.26v.07s-.11.44-.11.44l-.09.12v.11s-.23.75-.23.75l-.09.08-.03.11-.03.04s-.03.08-.03.11v.11s-.08.23-.08.23c-.03.04-.06.12-.06.15v.07s-.08.37-.08.37l-.09.26-.09.08-.22.99c-.29.97-.67,2.09-.79,3.17l.02.49.04.31.04.1.04.17.03.03h.03s.03.03.03.03l-.03.04.24.22.21.29.04.14.04.24c.13-.09.22-.28.27-.5.31-.51,1.03-.36.76.21-.6,1.4-2.63,2.05-2.65-.15-.05-2.94,1.08-5.81,2.02-8.5.35-1.15.95-2.38,1.49-3.56l.06-.19.12-.3.24-.46v-.04s.47-1.38.47-1.38l.06-.15.79-1.5c.3-.72.63-1.44.96-2.13l.05-.36.28-.36.84-1.9.12-.27.06-.22.15-.24.79-1.61.06-.12.03-.11.24-.46.54-1.14.06-.19.06-.12.21-.46h.03s.24-.61.24-.61l.15-.45,1.57-3.18.42-.84.06-.19.03-.08.34-.55h.03s1.17-2.59,1.17-2.59l.06-.15.41-1.2.13-.09.12-.37-.03-.03.06-.08.47-1.24.12-.12.06-.12.21-.42s.03-.08.06-.15c0,0,0-.04.03-.08l.03-.18.37-1.3.05-.36.13-.87.43-.74.52-1.64.46-1.56.21-.42.11-.51.06-.15-.04-.1.12-.2.35-.94.26-.89.52-.89.11-.62v-.21s.05-.22.05-.22l-.07-.06h-.06s-.13-.08-.13-.08h.06s-.21-.51-.21-.51l-.18-.54v-.25s.02-.18.02-.18l-.38.27-.32.05h-.29s0,.04,0,.04h-.03s-.03-.03-.03-.03h-.03s-.19.1-.19.1l-.44.31-.09.12-.32.26-.1.05-1.26,1.11-.35.33-.38.34-.63.52-.38.37-1.86,1.69-.41.34-.09.12-.19.2-.13.05c-.63.59-1.13,1.09-1.44,1.42l-.47.49-.06.08-.5.53-.09.08-.16.17h-.03s0,.04,0,.04h-.03s-.03.04-.03.04l-.28.29-.03.04-.78.82-.16.2-.19.28-.38.34-.53.54-.12.2-1.72,1.92-.59.72-.16.17-.32.22-1.5,1.71v.07s-.15.16-.15.16l-.13.12-.16.17h-.03s0,.04-.03.04l-.06.12-.16.2-.22.24h-.06s-.13.13-.13.13l-.06.22-.06.12-.06.08-.13.09-.06.08h-.03s-.03.08-.03.08l-.22.21-.16.17-.69.81-.25.29-.15.31-.44.35-.09.12-2.75,3.2-.06.15-.16.09v.11s-.18.21-.18.21l-.19.13-.78.89v.07s-.09.01-.09.01l-.03.04v.04s-.03,0-.03,0l-.66.77-.03.08-.22.28-.06.12-.25.35-.32.19-.62.73c-.12.16-.35.33-.6.55l-.18.52-.09.19-.34.51-.51.29-.26-.03-.19.13-.49.89-.63.55-.53.61-.12.27-.15.24v.14s.07,0,.07,0v.18s-.16.02-.16.02l-.69.6-.37.59-.15.27-.56.79-.8.47-.39.13-.4-.19v-.28s-.07.26-.07.26l-.02-.6.05-.43h-.06s0-.24,0-.24l.13.09.09-.3.22-.32.17-.7.55-1.04c.27-.71.57-1.4.87-2.01l.42-.88c.06-.15.15-.31.24-.46l.02-.22.58-1.11.51-1.14.22-.32.09-.33.58-.97.33-.65.18-.38.06-.08c.24-.46.46-.88.73-1.35l.42-.88.19-.24.43-.74c.06-.12.15-.24.21-.39l.15-.31v-.11s.03-.04.03-.04l.03-.08.12-.16.25-.36.16-.2,1.07-1.93.06-.12.09-.12.89-1.58.21-.35v-.04s.15-.31.15-.31l.03-.04.03-.11.09-.19.09-.16.34-.55.12-.34.48-1.03.21-.53.02-.29.12-.23v-.39s.03-.43.03-.43c-.07-.2-.3-.28-.69-.15-.55.22-1.03.47-1.5.82l-.09.08h-.07s-1.39,1.1-1.39,1.1c-.03,0-.03.04-.03.04l-.22.21-.22.25-.28.25-.13.09-.29.08-.31.33v.04s-.06,0-.06,0l-.03-.03c-.44.35-.85.73-1.23,1.07-.13.12-.25.21-.35.33l-.06.04-.19.17-.06.04c-.79.65-1.49,1.17-2.24,1.96-.22.21-.44.42-.63.66l-.19.27-.22.21-.22.25-.28.25-.06.19-.1.05h-.1s-1.16,1.35-1.16,1.35l-.52.79-.22.28-.66.7-.37.45-.59.65-1.9,2.44v.04s-.03.04-.03.04l-1.24,1.67-.31.36c-.09.19-.22.32-.31.44l-.06.11-.31.4-.65.88-.12.27-.41.41-.15.27-.28.4-1.06,1.4-.65.98-.37.66-.15.23-.05.47-.15.34-.33.79-.59.65-.36.05c-.5.68-1,1.21-1.49,1.21l-.25.18-.14-.16v-.35c-.13-.37-.09-.31.06-.51v-.04s.05-.29.05-.29l.24-.46.14-.59.31-.51.17-.56.06-.22.21-.35.22-.31.15-.27.09-.19.59-.8v-.04s.18-.28.18-.28l.08-.44v-.07s.09-.05.09-.05l.23-.07.33-.72.06-.08.13-.05.04.1.15-.27.08-.37.25-.32.12-.23h.1s0-.12,0-.12l.31-.44,1.47-2.42.09-.19.19-.24.43-.67v-.04s.06-.19.06-.19l.37-.44.06-.12v-.07s1.75-2.7,1.75-2.7l.77-1.28Z"/>
      <path d="M67.93,19.81l-.12.3c-.03.08,0,.18-.02.29l-.18.38-.21.39-.28.25-.31.4-.12.19-.16.2-.25.25-.06.04c-.53.61-1.19,1.2-1.86,1.76v.07s-.09.01-.09.01l-.35.3v.04s-.06.08-.06.08l-.13.02s-.03.04-.06.04v.11s-.12.02-.12.02l-.25.25h-.03s-.16.2-.16.2l-.22.1-.12.2-.22.21-.13.05-.35.09-.13.09-.19.06h-.06c-.51.3-.96.57-1.41.78l-.13.12-.1.05-.12.2-.1.05-.23-.04-.23.03-.62.05h-.59s0-.02,0-.02c-.03,0-.1.05-.13.05-.2,0-.33-.02-.49-.07-.13-.09-.83-.34-.87-.59v-.32s-.11.05-.11.05l-.04-.21.2-.67.2-.63.12-.23.37-.48.22-.21.06-.12.53-.5.47-.6.09-.19.12-.16.69-.7.19-.2.16-.06.06-.08.25-.21.06-.12.03.07.75-.75.15-.2.1-.05.28-.25.22-.31.28-.33.45-.24.41-.45.25-.18.29-.22c.32-.26.6-.55.88-.77h-.46c-.23.06-.42.13-.61.15l-.1.05-.03.04-.1-.02-.39.06c-.29.08-.65.2-1,.25h-.03s-.74.15-.74.15l-.39-.05-.2-.11-.1-.16.02-.25.24-.46.26-.14.32-.12.32-.08.26.07.49.07c.49-.07,1.01-.11,1.56-.08l.35-.12.52-.04.61-.19.1.02.55-.15c.1-.05.19-.13.29-.22l.28-.25.25-.18.1-.05.16-.13.26-.07.29-.08c.23-.07.45-.14.68-.13l.23-.07.1.09c.13.02.23.07.36.16l.9-.24.03-.04.39-.16.49-.1.51-.25.19-.06.32-.08.65-.09.26-.07.39-.02h.03c.13-.02.29-.05.42-.1.16-.02.36-.09.55-.11l.13-.05.06-.04h.06s.07.05.07.05l.19-.03.19-.1.23-.03h.29s.06-.02.06-.02l.23-.07.2.08h.1s.13-.07.13-.07h.26s.13.02.13.02c.39.01.72.04.92.08l.13.09.13-.02.1.13c.2.08.37.2.57.31h.06s.1.08.1.08l.16.05.11.2.14.19v.11s-.18.2-.18.2l-.09.26-.27.61-.12.23v.04s-.06.08-.06.12l-.12.23-.19.1v-.28s.05-.12.05-.12v-.07c.02-.15.11-.34.17-.49l.06-.19.2-.67s-.04-.07-.04-.14l-.1-.16-.33-.13-.27-.18-.49-.07c-.72-.07-1.63.06-2.15.13l-.49.07-.39.09c-.36.05-.52.15-.84.23-1.42.31-2.42.6-3.36.87l-.06.04-.29.11-.16.13-.52.04c-.52.15-1.03.33-1.61.48l-.25.14-.26.04-.58.15-.16.13c.33.06.62.16.86.23h.06s.1.08.1.08l.07.03.13.09.27.14.41.4.11.23.18.4v.64c-.03.18-.06.36-.12.55ZM67.14,19.67v-.21s.11-.34.11-.34v-.5s.01-.04.01-.04l-.18-.33-.2-.18-.23-.14-.27-.14-.23-.07-.3-.06-.27-.14-.2-.04s-.07-.03-.07-.03c-.41.34-.79.75-1.35,1.26l-.28.29-.22.24-1.14.91-.31.29-.22.17-.63.55-.03.04-.16.17-.48.35-.38.34-.35.3-.16.16-.44.42-.03.04-.34.51-.28.47-.15.27s-.03.04-.06.04c-.22.32-.4.66-.48.96v.07s-.02.15-.02.15l-.06.19v.21s-.02.08-.02.08l-.03.11c.04.28.12.52.29.63h.06s.2.1.2.1c.06,0,.13.02.2,0,1.07-.08,1.3-.22,2.35-.76.45-.21.93-.49,1.37-.77l.03-.08h.1s.38-.28.38-.28l.25-.32.54-.4.13-.05h.06s.98-.9.98-.9l.09-.12.06-.04c.25-.25.5-.53.75-.82l.09-.16.06-.11.19-.21.19-.28.09-.19.13-.05.06-.15.09-.12.06-.12h.06c.25-.44.46-.82.57-1.19ZM68.26,15.64c-.23-.11-.65.13-.97.32l.97-.32Z"/>
      <path d="M82.52,21.06l.41-.45,1.13-1.26.13-.12h.03s.91-1.02.91-1.02l.53-.57.09-.19.51-.43.94-.99.12-.16.12-.23.13-.02.09-.12.19-.21.19-.2h.03s.03-.04.06-.05l.12-.23.28-.32.06-.12.72-.78v-.04s.06,0,.06,0l.16-.2.03-.11,1-1.1.13-.09.44-.45.06-.12.06-.08h.06s.22-.25.22-.25l.09-.15.06-.04v-.04s.09-.12.09-.12l.03-.08.84-1.08v-.04s.1-.01.1-.01l.22-.32.06-.08,1-1.24.25-.36.46-.74s.03-.04.06-.04l.09-.19h.1s.07.08.07.08l.07.06-.06.15-.03.04c-.28.47-.62.94-.96,1.42l-.56.76-.03.11-.16.2-.09.16-.06.04-.19.21v.04s-.03,0-.03,0l-.4.59-.03.04-.09.08c-.06.08-.09.16-.16.2l-.09.16-.15.27-.13.09-.1.05-.56.68v.04s-.13.09-.13.09l-.22.28-.31.44-.9,1.16-.16.09-.22.17-2.03,2.32-.03.08-.25.39-.41.38-.34.51-.19.2-.28.29-.38.3-.19.17-.19.24-.16.13-.09.12c-.44.49-.87,1.01-1.15,1.41l-.65.95-.16.13-.88.94-.12.2-.19.27-.22.17-.13.05v.04s-.22.17-.22.17l-.06.12-.09.12-.02.25-.13.09-.06.12v.07s-.18.24-.18.24l.03.03-.03.04-.04-.07-.13.09-.09.12h-.03s-.06.05-.06.05l-.25.25-.32.08-.16.13-.13-.02-.26.07-.06.04-.23.03-.1-.06h-.03s-.07-.09-.07-.09l-.1-.06.02-.25-.18-.4s.03-.08.03-.15l-.1-.06-.06-.67-.06-.6.02-.25-.11-.23.06-.12.12-.16.06-.15.06-.19.03-.15.08-.37.08-.37.08-.37.03-.08.23-.89-.04-.21.06-.15.09-.26.06-.08.23-.92.13-.91.07-.72.2-.7v-.07s0-.14,0-.14l.08-.54.18-.42.16-.09.13-.02.24-.43.66-.66.13.05.14.12-.03.18c.07.03.07.1.07.17-.03.11-.06.19-.09.23l.04.28-.31,1.18-.38,1.02-.02.43-.18.35-.15.27-.03.11-.06.08-.12.2-.18.52h.03s-.03.04-.03.04l-.09.26c-.09.16-.12.3-.18.42l-.03.04-.02.29-.21.42v.07s-.09.23-.09.23l-.11.48v.14s-.02.08-.02.08c-.22.99-.58,2.79-.25,2.88.07.03.16.01.26,0l.03-.04.13-.09h.1s.32-.2.32-.2l.41-.41.6-.48.13-.09.09-.08.38-.41.09-.12.28-.36.31-.4.15-.24.19-.1.13-.09Z"/>
      <path d="M100.57,19.21l-.31.33-.45.28-.29.11-.16.13-.03.08-.09.08-.42.24-.29.18-.03.07-.09.08-.22.1-.48.35-.19.13-.47.42-.25.14-.19.13-.35.26-.29.18-.19.1-.52.18-.44.31-.39.13-.55.04-.35.16-.62-.05c-.33-.06-.59-.2-.77-.46l-.14-.12.02-.22c-.04-.28-.06-.6.06-.97v-.14s.19-.74.19-.74l.23-.74.05-.26.21-.46.22-.32.06-.15.19-.2c.06-.12.12-.23.21-.39l.24-.46.09-.26.09-.23.09-.12.08-.37.28-.36.19-.13.12-.23.28-.32.57-1.22.14-.55.34-.55.22-.24.12-.3.13-.13.05-.36v-.18s.14-.31.14-.31l.22-.21.09-.08h.06s0-.08,0-.08l.22-.28.22-.17c.12-.2.28-.36.51-.36.03,0,.07.03.1.06l.09-.08.03-.08.19-.06h.26s.23.14.23.14v.18s-.04.4-.04.4l-.21.42-.31.44-.09.12-.12.12h-.06s-.19.11-.19.11l-.53.65-.06.19-.03.08-.43.56c-.03.08-.09.12-.12.16l-.02.22-.28.33-.21.39-.25.32-.06.15-.22.21-.12.27-.06.12-.37.55-.46.67-.21.39-.18.35-.33.72c-.25.36-.28.4-.31.47l-.2.67-.05.29-.24.64-.17.77v.21s-.04.43-.04.43c.08.31.11.34.11.38l.13.05.19-.06h.1s.23-.01.23-.01l.19-.1.19-.06.13.05.16-.02.67-.27h.1c.16-.11.35-.17.54-.27l.16-.13.38-.3.29-.22.64-.27.51-.29.29-.11,1.11-.76.06-.15.19-.03.57-.4.03-.04.06-.12.25-.18h.1s.09-.17.09-.17l.19-.1.25-.18.32-.26.29-.22.35-.33.09-.12.38-.3.16-.09.13-.12.67-.52h.1s.22-.22.22-.22l.16-.09.16-.13c.06,0,.06-.04.1-.05l.16-.2.22-.14.12-.16.22-.17.32-.22.16-.13c.25-.21.54-.47.88-.73l.06-.15h.1s.1,0,.1,0l.1.2-.09.16-.09.08-.19.13-.06.12-.07-.03h-.03s0,.08,0,.08l-.41.31h-.1s-.98.83-.98.83l-.28.29-.28.32-.29.15-.19.13c-.6.55-1.17,1.06-1.7,1.49l-.12.2-.09.08-.38.2-.09.08-.06.08-.25.18ZM102.74,2.55l-.24.53-.12.2-.09.16v.04s-.32.12-.32.12l-.29.11-.26.14-.25.25-.03.04-.13.09-.15.31-.32.15-.24.57-.32.15-.12.2-.22.32v.07s-.34.3-.34.3l-.04-.28.12-.12s.06-.12.06-.22l.37-.66-.08-.27.21-.56.09-.23.31-.47.22-.32.06-.04.34-.44.12-.2.25-.21.18-.31h.03s.12-.17.12-.17h-.06s.16-.08.16-.08v.07s.22-.28.22-.28l.32-.15.27.25.33.1-.08.4.07.17-.15.31Z"/>
      <path d="M106.96,16.66v.18s-.15.2-.15.2l-.09.16s-.03.04-.03.08v.11s-.12.23-.12.23v.89s-.04.54.09.7c.2.22.11.23.93.4l.56.06.42-.06.48-.14,2.35-.91.45-.28,1.25-.64.25-.21.13-.09h.06s1.91-1.17,1.91-1.17l.13-.02.22-.17.29-.11,1.05-.58.13-.05c1.15-.7,1.59-1.08,2.7-1.81l.7-.39.03-.08.19-.13.58-.3.61-.37v-.07s.09-.01.09-.01l.38-.27.03-.08,1.71-1.42.16-.06c.22-.17.44-.38.69-.63.06-.08.16-.06.2,0v-.04s.12-.12.12-.12l.13.02.11.3-.16.09-.29.15-.16.09-.72.67-.15.27-.16.02-.13.09c-.28.25-.6.48-.89.7l-.03.04-.22.17-.13.12h-.1s-1.02.73-1.02.73l-.03.08-.13.05-.25.18-.06.04-.44.38-1.21.74c-.38.27-.76.57-1.14.8l-.09.12-1.59,1.08-.13.12-.07-.1-.35.3-.39.13-.25.18h-.03c-.41.28-.83.51-1.24.75l-.48.35-.98.67-.26.11-.39.13-.54.26-.32.08-.13.09-.13.12-.42.17h-.06c-.38.21-.83.38-1.29.51l-.09.12-.16.06h.03s-.64.23-.64.23l-.2-.04-.35.19-.78-.03-.73-.29-.34-.45-.18-.44-.12-.48-.02-.6.03-.08-.04-.07v-.25s.18-.92.18-.92l.21-.46.23-.67.18-.38.06-.08.09-.3.19-.21.09-.26.18-.35.09-.12.35-.23.12-.19.22-.14.25-.25.06-.04.31-.36.28-.29.21-.39.12-.16.15-.24.13-.12.19-.1.06-.12.16-.2.25-.14.16-.09c.69-.67,1.41-1.38,2.17-1.98l.06-.08.31-.29.42-.24s.07,0,.06-.04l.38-.34.22-.17.1-.05.45-.14c.35-.19.7-.38,1.06-.54l.29-.22.32-.05.19-.1.1.06c.26-.04.52-.07.75-.07l.03-.04.1-.05.07.03.1-.05.03-.04.2.04v-.04s.03,0,.03,0l-.03.08.1.06h.1s.03.05.03.05h.03s.2.07.2.07l.03.03c.17.12.3.21.34.38l.1.02-.03.08h.03s-.03.04-.03.04v.18s.04.14.04.14l-.06.26-.06.12v.21s-.1.55-.1.55l-.24.5-.31.4-.35.3-.28.25-1.11.8-.16.16-.23.1c-.72.67-1.52,1.28-2.31,1.86l-.03.08-.92.63-.41.38-.83.51-.61.34-.87.3-.52.11-.23.03-.2-.08-.07-.17.06-.12.21-.53.44-.52.41-.24.26-.04.23.04.26.03.42-.06.39-.13.41-.24.13-.02.06-.12.93-.49.86-.59.41-.31.15-.24.41-.24.06-.15.48-.25.12-.16.41-.41,1.41-1.55.12-.19.06-.26.06-.12.14-.55-.03-.03-.04-.07-.07-.17-.17-.19-.23-.07-.23-.04-.36.05-.23.07-.13-.02c-.87.34-1.79,1-2.33,1.37l-.38.27-.09.12-.16.17-.13-.02s-.03.04-.06.04v.07s-.19.1-.19.1l-.06.08h-.06s-.7.54-.7.54l-.34.37-.22.28-.32.15-.13.09c-.28.25-.53.54-.82.83l-.15.23-.4.49-.22.28-.34.41-.44.56-.43.63-.09.12-.18.35-.21.39-.31.4-.27.54Z"/>
    </g>
  </g>
</svg>