<?xml version="1.0" encoding="UTF-8"?>
<svg id="Layer_2" data-name="Layer 2" xmlns="http://www.w3.org/2000/svg" viewBox="0 0 421.57 89.06">
  <defs>
    <style>
      .cls-1 {
        fill: #fff;
      }
    </style>
  </defs>
  <g id="main">
    <g>
      <g>
        <path class="cls-1" d="M342.22,38.3c-.39,0-.81-.14-1.27-.43-.46-.28-.88-.64-1.24-1.07-.36-.43-.61-.82-.75-1.16-.11-.32-.19-.67-.22-1.05-.03-.39-.06-.75-.08-1.09l.61-.24c.29.39.57.74.82,1.07.25.33.52.59.82.78.29.19.63.29,1.02.29.32,0,.87-.04,1.67-.12.79-.08,1.73-.19,2.8-.32s2.19-.28,3.33-.43c1.14-.15,2.23-.29,3.25-.43,1.02-.14,1.87-.23,2.55-.27,1.61-.18,2.95-.33,4.03-.46,1.08-.12,1.96-.23,2.63-.32.68-.09,1.2-.16,1.55-.2.35-.05.62-.07.8-.07.45,0,.94.08,1.44.24.51.16.94.39,1.29.68.35.29.53.65.53,1.05,0,.36-.1.62-.31.77-.2.15-.49.22-.85.22-.32,0-.74-.04-1.26-.12-.52-.08-1.19-.16-2.01-.24-.82-.08-1.84-.12-3.08-.14-1.24-.01-2.73.07-4.47.25-1.31.09-2.63.24-3.94.46-1.31.22-2.53.44-3.64.68-1.11.24-2.05.46-2.82.66-.52.14-.96.28-1.31.44-.35.16-.67.29-.95.39-.28.1-.59.15-.94.15ZM345.52,56.22c2.06-.77,3.89-1.75,5.47-2.92,1.59-1.18,2.71-2.6,3.37-4.25-1.13.45-2.15.5-3.06.15-.91-.35-1.63-.97-2.18-1.85s-.82-1.9-.82-3.06c0-.88.19-1.7.58-2.45.39-.75.92-1.35,1.6-1.8.68-.45,1.48-.68,2.41-.68,1.16,0,2.08.26,2.79.78.7.52,1.22,1.22,1.55,2.11.33.88.49,1.9.49,3.06,0,1.63-.29,3.08-.88,4.35-.59,1.27-1.41,2.39-2.46,3.37-1.05.97-2.3,1.79-3.74,2.45-1.44.66-3.01,1.17-4.71,1.53l-.41-.78ZM352.55,47.17c.84,0,1.46-.23,1.85-.7.4-.46.59-1.25.59-2.36,0-1.04-.22-1.85-.66-2.41-.44-.57-1.03-.85-1.75-.85-.84,0-1.51.32-2.01.95-.5.63-.75,1.38-.75,2.24,0,.91.26,1.66.78,2.24.52.59,1.17.88,1.94.88ZM354.32,40.34c0-.34-.01-.8-.03-1.38-.02-.58-.05-1.23-.08-1.95-.03-.73-.07-1.46-.12-2.21-.05-.75-.09-1.47-.14-2.16-.05-.69-.09-1.29-.14-1.78-.05-.34-.12-.57-.22-.7-.1-.12-.29-.23-.56-.32-.25-.09-.57-.16-.95-.22-.39-.06-.83-.1-1.33-.12l-.07-.65c.34-.2.73-.4,1.17-.58.44-.18.9-.27,1.38-.27s1.04.08,1.63.24c.59.16,1.09.36,1.5.61.41.25.61.53.61.85,0,.41-.09.78-.27,1.1-.18.33-.28.72-.31,1.17-.05.41-.08,1.01-.1,1.8-.02.79-.03,1.69-.03,2.69s0,2.01.02,3.03c.01,1.02.03,1.95.05,2.79l-2.01-1.94Z"/>
        <path class="cls-1" d="M391.01,55.81c-1.29,0-2.43-.17-3.42-.51-.99-.34-1.76-.82-2.31-1.45-.56-.62-.83-1.37-.83-2.23,0-.97.39-1.78,1.16-2.41.77-.63,1.73-.95,2.89-.95.84,0,1.67.19,2.5.58.83.39,1.54.97,2.12,1.75.59.78.95,1.8,1.09,3.04l-2.35.41c-.16-1.43-.61-2.52-1.34-3.28-.74-.76-1.61-1.14-2.63-1.14-.61,0-1.12.16-1.53.48-.41.32-.61.75-.61,1.29,0,.61.38,1.13,1.14,1.56.76.43,1.91.65,3.45.65,1.95,0,3.56-.29,4.85-.88,1.28-.59,2.23-1.38,2.84-2.36.61-.99.93-2.05.95-3.18.02-1-.2-1.93-.66-2.81-.46-.87-1.16-1.58-2.09-2.12-.93-.54-2.09-.82-3.47-.82-1.61,0-3.07.31-4.37.94-1.3.62-2.5,1.45-3.6,2.48-1.1,1.03-2.12,2.17-3.08,3.42-.29.36-.54.62-.75.77-.2.15-.45.21-.75.19-.27,0-.52-.15-.75-.44-.23-.29-.33-.68-.31-1.16.02-.36.14-.7.34-1,.2-.31.52-.69.95-1.14.95-.97,1.95-1.99,2.99-3.04,1.04-1.05,2.08-2.08,3.11-3.09,1.03-1.01,1.99-1.98,2.87-2.91.88-.93,1.65-1.76,2.31-2.48.66-.73,1.13-1.33,1.43-1.8.2-.27.26-.46.17-.56-.09-.1-.25-.13-.48-.08-.39.07-.9.22-1.55.44-.65.23-1.3.48-1.97.75-.67.27-1.24.52-1.72.75-.32.14-.61.31-.88.51s-.57.31-.88.31c-.5,0-.96-.16-1.39-.48-.43-.32-.79-.69-1.09-1.12-.29-.43-.48-.82-.54-1.16-.07-.32-.09-.64-.07-.97.02-.33.07-.67.14-1.04l.58-.07c.23.5.5.96.82,1.39.32.43.69.65,1.12.65.32,0,.78-.06,1.39-.17.61-.11,1.28-.25,1.99-.41.71-.16,1.39-.33,2.04-.51.65-.18,1.17-.33,1.58-.44.32-.09.55-.19.7-.29s.28-.19.41-.27c.12-.08.27-.12.42-.12.29,0,.63.08,1.02.25.39.17.75.4,1.09.68.34.28.62.58.85.9.23.32.34.61.34.88,0,.23-.09.42-.27.58-.18.16-.43.32-.75.48-.32.16-.67.41-1.05.75-.48.36-1.07.86-1.79,1.5-.71.64-1.46,1.31-2.24,2.04-.78.73-1.51,1.42-2.19,2.07-.68.66-1.2,1.18-1.56,1.56-.14.16-.18.28-.12.37.06.09.16.1.32.03.7-.25,1.55-.5,2.53-.77.99-.26,2.08-.39,3.28-.39,1.47,0,2.84.31,4.1.92,1.26.61,2.25,1.5,2.99,2.65.74,1.16,1.09,2.54,1.07,4.15-.02,1.43-.45,2.74-1.29,3.94-.84,1.2-2.03,2.16-3.59,2.87-1.55.71-3.44,1.07-5.66,1.07Z"/>
        <path class="cls-1" d="M416.81,57.47c-.86,0-1.66-.22-2.4-.65-.74-.43-1.32-1.01-1.75-1.75-.43-.74-.65-1.54-.65-2.4s.21-1.69.65-2.41c.43-.73,1.01-1.3,1.75-1.72.74-.42,1.54-.63,2.4-.63s1.69.21,2.41.63c.73.42,1.3.99,1.72,1.72.42.73.63,1.53.63,2.41s-.21,1.66-.63,2.4c-.42.74-.99,1.32-1.72,1.75-.73.43-1.53.65-2.41.65ZM416.81,56.32c1,0,1.85-.36,2.55-1.09.7-.73,1.05-1.58,1.05-2.55s-.35-1.85-1.05-2.55c-.7-.7-1.55-1.05-2.55-1.05s-1.85.36-2.57,1.07c-.71.71-1.07,1.56-1.07,2.53s.36,1.85,1.07,2.57c.71.71,1.57,1.07,2.57,1.07Z"/>
      </g>
      <g>
        <path class="cls-1" d="M306.41,66.16c-1.82,0-2.33-1.48-2.72-2.78-3.49-11.46-6.53-17.19-12.53-22.92-21.33,19.45-37.74,24.92-46.4,26.57l.12-.69c22.82-8.86,52.02-35.42,61.68-51.57-3.43.43-18.66,3.13-23.89,4.95-.89.35-4.62,2.08-5.32,2.08-1.3,0-4.79-4.25-3.43-8.77.52-1.74,1.21-2.86,1.91-3.73,1.73,5.21,3.18,5.3,4.91,5.3,2.43,0,21.82-1.82,26.01-3.91.71-.35,4.03-2.43,4.73-2.43.96,0,5.73,5.47,5.28,6.95-.29.96-.95,1.13-4.04,2.17-.69.26-.83.43-2.58,2.52-6.05,7.38-9.5,11.63-17.31,19.1,9.03,4.6,20.32,14.93,17.86,23.09-.71,2.34-2.19,4.08-4.27,4.08Z"/>
        <path class="cls-1" d="M142.26,22.23c-1.82.87-1.96,1.04-3.87,3.91-10.42,15.54-17.98,23.3-27.97,30.51-5.63,3.99-17.61,12.03-28.47,14.38l.1-.61c12.12-5.64,27.44-16.92,33.7-23,5.73-5.47,12.91-15.2,20.44-28.66-18.2,1.04-34.75,3.82-37.99,5.04-.69.26-3.91,1.74-4.52,1.74-.78,0-5.71-4.08-4.01-9.72.47-1.56,1.11-2.52,1.8-3.39.99,3.04,3.04,5.73,6.86,5.73,1.22,0,33.61-2.6,38.14-3.82.75-.17,3.67-2.08,4.28-2.08.96,0,5.48,5.99,5.01,7.55-.26.87-1.4,1.48-3.51,2.43ZM152.1,16.41c-4.51,0-7.06-3.65-5.67-8.25s6.11-8.16,10.63-8.16,7.15,3.65,5.78,8.16-6.22,8.25-10.74,8.25ZM156.02,3.13c-2.78,0-5.63,2.26-6.44,4.95s.65,5.04,3.43,5.04,5.72-2.26,6.56-5.04-.76-4.95-3.54-4.95Z"/>
        <path class="cls-1" d="M232.28,30.47c-1.91.87-2.19,1.22-4.11,3.82-24.24,33.69-48.9,38.03-53.81,38.46v-.61c6.07-2.26,34.53-15.98,49.96-43.5-2.57.17-28.26,2.43-34.55,4.86-.6.26-3.08,1.56-3.6,1.56-2.17,0-6.96-5.12-5.39-10.33.24-.78.53-1.48,1.5-2.95.79,2.26,2.72,5.64,7.33,5.64,4.17,0,34.2-2.26,35.68-2.87.89-.35,4.16-3.13,4.85-3.13.96,0,5.99,4.6,5.39,6.6-.34,1.13-1.65,1.74-3.25,2.43ZM226.95,13.63c-6.79.35-21.22,1.56-23.32,1.91-4.44.61-4.9.69-6.29.69-2.78,0-5.77-3.91-4.11-9.38,2.75,3.56,5.28,4.08,10.05,4.08,5.82,0,17.38-1.22,21.53-2.86,1.97-.78,2.29-.96,3.07-.96,1.56,0,6.75,1.22,5.94,3.91-.52,1.74-1.84,2.34-6.86,2.6Z"/>
        <path class="cls-1" d="M96.57,62.58c-16.12,9.48-46.35,22.24-79.9,23.87-31.98.2,15.57-23.13,36.3-27.15,29.67-9.59,87.87-7.59,110.48-4.96,36.68,3.55,153.29,32.46,207.12,12.16-20.77,6.12-54.65,12.1-141.98-2.35-32.69-6.48-73.9-14.33-105.63-13.67-27.25.62-59.24.54-96.59,16.4-17.13,7.73-45.96,26.92-6.78,21.11,51.06-5.75,74.64-21.81,82.41-25.66"/>
      </g>
    </g>
  </g>
</svg>